<?xml version="1.0" encoding="UTF-8"?>
<svg width="24px" height="24px" viewBox="0 0 24 24" version="1.1" xmlns="http://www.w3.org/2000/svg" xmlns:xlink="http://www.w3.org/1999/xlink">
    <!-- Generator: Sketch 48.2 (47327) - http://www.bohemiancoding.com/sketch -->
    <title>Group 9</title>
    <desc>Created with Sketch.</desc>
    <defs></defs>
    <g id="Editable" stroke="none" stroke-width="1" fill="none" fill-rule="evenodd">
        <g id="Group-9">
            <circle id="Oval-Copy" fill="#FFFFFF" cx="12" cy="12" r="12"></circle>
            <circle id="Oval" fill="#D8D8D8" cx="12" cy="12" r="10"></circle>
            <path d="M12.0156059,4.25003278 C13.4114361,4.25003278 14.7030995,4.59899044 15.8905967,5.29690529 C17.0780939,5.99482013 18.0208001,6.93752638 18.7187149,8.12502354 C19.4166298,9.31252071 19.7655874,10.6041841 19.7655874,12.0000143 C19.7655874,13.3958445 19.4166298,14.6875079 18.7187149,15.8750051 C18.0208001,17.0625022 17.0780939,18.0052085 15.8905967,18.7031233 C14.7030995,19.4010382 13.4114361,19.7499958 12.0156059,19.7499958 C10.6197758,19.7499958 9.32811233,19.4010382 8.14061517,18.7031233 C6.953118,18.0052085 6.01041175,17.0625022 5.31249691,15.8750051 C4.61458206,14.6875079 4.2656244,13.3958445 4.2656244,12.0000143 C4.2656244,10.6041841 4.61458206,9.31252071 5.31249691,8.12502354 C6.01041175,6.93752638 6.953118,5.99482013 8.14061517,5.29690529 C9.32811233,4.59899044 10.6197758,4.25003278 12.0156059,4.25003278 Z M12.0156059,18.2499994 C13.1406032,18.2499994 14.1822673,17.9687501 15.1405985,17.4062514 C16.0989297,16.8437528 16.8593444,16.0833381 17.421843,15.1250069 C17.9843417,14.1666756 18.265591,13.1250116 18.265591,12.0000143 C18.265591,10.875017 17.9843417,9.83335296 17.421843,8.87502176 C16.8593444,7.91669055 16.0989297,7.15627585 15.1405985,6.59377719 C14.1822673,6.03127854 13.1406032,5.75002921 12.0156059,5.75002921 C10.8906086,5.75002921 9.84894458,6.03127854 8.89061338,6.59377719 C7.93228217,7.15627585 7.17186747,7.91669055 6.60936882,8.87502176 C6.04687016,9.83335296 5.76562083,10.875017 5.76562083,12.0000143 C5.76562083,13.1250116 6.04687016,14.1666756 6.60936882,15.1250069 C7.17186747,16.0833381 7.93228217,16.8437528 8.89061338,17.4062514 C9.84894458,17.9687501 10.8906086,18.2499994 12.0156059,18.2499994 Z M11.2968576,13.0625118 C11.1926914,12.9791785 11.140608,12.8750122 11.140608,12.7500125 L11.140608,7.62502474 C11.140608,7.52085848 11.1770664,7.4323167 11.2499828,7.35940037 C11.3228991,7.28648404 11.4114409,7.25002563 11.5156071,7.25002563 L12.5156047,7.25002563 C12.619771,7.25002563 12.7083128,7.28648404 12.7812291,7.35940037 C12.8541454,7.4323167 12.8906038,7.52085848 12.8906038,7.62502474 L12.8906038,12.0625142 L14.9843488,13.5625106 C15.0676821,13.6250104 15.114557,13.7083437 15.1249735,13.81251 C15.13539,13.9166762 15.1093486,14.010426 15.0468487,14.0937593 L14.48435,14.9062574 C14.4218502,14.9895907 14.3385169,15.0416736 14.2343506,15.062507 C14.1301844,15.0833404 14.0364346,15.062507 13.9531013,15.0000072 L11.2968576,13.0625118 Z" id="" fill="#798990"></path>
        </g>
    </g>
</svg>