<?xml version="1.0" encoding="UTF-8"?>
<svg width="245px" height="62px" viewBox="0 0 245 62" version="1.1" xmlns="http://www.w3.org/2000/svg" xmlns:xlink="http://www.w3.org/1999/xlink">
    <!-- Generator: Sketch 48.2 (47327) - http://www.bohemiancoding.com/sketch -->
    <title>Page 1 Copy 3</title>
    <desc>Created with Sketch.</desc>
    <defs></defs>
    <g id="06" stroke="none" stroke-width="1" fill="none" fill-rule="evenodd" transform="translate(-1155.000000, -832.000000)">
        <g id="Page-1-Copy-3" transform="translate(1155.000000, 832.000000)">
            <polygon id="Fill-1" fill="#404F5E" points="0 62 245 62 245 0 0 0"></polygon>
            <g id="Group-32" transform="translate(25.000000, 18.000000)" fill="#88B04B">
                <path d="M29.4726863,10.7036747 C29.4696824,10.7278056 29.4663781,10.7579692 29.4663781,10.7821001 C29.4456513,11.1742269 28.8598936,19.9367532 18.0489083,23.888185 C18.0429006,23.8912014 18.0398967,23.8912014 18.0338889,23.8939161 L18.0338889,18.4858839 L18.0489083,18.4708021 L24.5763523,11.4064866 C25.165114,10.7700346 25.1290673,9.77161942 24.4922435,9.17709483 C23.8554197,8.58588823 22.8611335,8.62238619 22.269368,9.26185455 L18.0489083,13.8316402 L18.0338889,13.846722 L18.0338889,9.13818378 C18.0398967,9.12611834 18.0429006,9.11706926 18.0489083,9.10500382 C18.5715845,7.93465607 21.0738214,3.21103605 27.2618263,3.21103605 C27.321904,3.21103605 27.3819817,3.21103605 27.4420595,3.21405241 C29.8631915,6.12483997 29.4756902,10.6584293 29.4726863,10.7036747 Z M14.9038398,13.846722 L14.8918243,13.8316402 L10.6683608,9.26185455 C10.0795991,8.62238619 9.08230901,8.58317351 8.44848909,9.17709483 C7.81166529,9.77161942 7.77261477,10.7700346 8.3640799,11.4064866 L14.8918243,18.4708021 L14.9038398,18.4828676 L14.9038398,23.8939161 C14.9008359,23.8939161 14.8948282,23.8912014 14.8918243,23.8912014 C4.07783515,19.9397695 3.4920774,11.1742269 3.47405409,10.7881328 C3.4710502,10.7606839 3.46804632,10.7308219 3.46804632,10.7036747 C3.46203854,10.6554129 3.05651395,6.14293814 5.49566928,3.21405241 C5.55875088,3.21103605 5.62183249,3.21103605 5.68491409,3.21103605 C11.8969501,3.21103605 14.3661443,7.92259063 14.8918243,9.11103654 C14.8948282,9.12008562 14.9008359,9.1291347 14.9038398,9.13818378 L14.9038398,13.846722 Z M29.2684221,0.547590025 C28.9980723,0.27611761 28.637606,0.110217801 28.2561125,0.0860869192 C22.3354535,-0.278892661 18.505499,2.72540207 16.4718683,5.55173154 C14.4352336,2.72540207 10.6052791,-0.281909021 4.68431971,0.0860869192 C4.3001227,0.110217801 3.9396564,0.27611761 3.66930667,0.547590025 C-0.133612844,4.366302 0.283927293,10.3836389 0.334993352,10.9721308 C0.359024439,11.4004539 0.605343081,14.365536 2.53984558,17.7679902 C4.39324317,21.0283739 8.21718988,25.3631851 15.9341727,27.5379808 C15.9732232,27.5500462 16.0152776,27.5621117 16.057332,27.5741771 L16.0603359,27.5741771 C16.0903748,27.5832262 16.1174097,27.5889573 16.1474486,27.5952916 C16.1864991,27.6043407 16.2255496,27.6103734 16.267604,27.6164062 C16.3366934,27.6284716 16.4057828,27.631488 16.4745718,27.631488 C16.5409576,27.631488 16.6070431,27.6284716 16.6731286,27.6164062 C16.7091752,27.6103734 16.7452219,27.6043407 16.7812685,27.598308 C16.8143112,27.5922753 16.847354,27.5832262 16.8803967,27.5741771 C16.9251546,27.5621117 16.9705133,27.5500462 17.0155716,27.5349644 C31.2780217,23.5048056 32.5156227,12.0761186 32.5997315,11.0053107 C32.6357781,10.6554129 33.1584543,4.45377644 29.2684221,0.547590025 Z" id="Fill-4"></path>
                <path d="M58.7129019,1.34617138 C58.9646275,1.34617138 59.1821089,1.43817036 59.3650455,1.6218667 C59.5479822,1.80556303 59.6393003,2.02394751 59.6393003,2.27671849 L59.6393003,4.72328822 C59.6393003,4.9760592 59.5479822,5.19444368 59.3650455,5.37814001 C59.1821089,5.56213798 58.9646275,5.65383533 58.7129019,5.65383533 L47.7655402,5.65383533 L47.7655402,12.6834627 L58.026514,12.6834627 C58.2782396,12.6834627 58.4954206,12.7754617 58.6786576,12.959158 C58.8615942,13.1428544 58.9532128,13.3612388 58.9532128,13.6140098 L58.9532128,16.0605795 C58.9532128,16.3133505 58.8615942,16.531735 58.6786576,16.7154313 C58.4954206,16.8994293 58.2782396,16.9911267 58.026514,16.9911267 L47.7655402,16.9911267 L47.7655402,24.8825281 C47.7655402,25.1349975 47.6739217,25.353382 47.4909851,25.5370783 C47.3080484,25.7210763 47.0905671,25.8127736 46.8391418,25.8127736 L44.0593458,25.8127736 C43.8076202,25.8127736 43.5901389,25.7210763 43.4072022,25.5370783 C43.2242656,25.353382 43.132647,25.1349975 43.132647,24.8825281 L43.132647,2.27671849 C43.132647,2.02394751 43.2242656,1.80556303 43.4072022,1.6218667 C43.5901389,1.43817036 43.8076202,1.34617138 44.0593458,1.34617138 L58.7129019,1.34617138 Z" id="Fill-8"></path>
                <path d="M62.813927,8.82402987 C62.813927,8.57125889 62.9055456,8.35287441 63.0884822,8.16917808 C63.2714189,7.98548174 63.4889002,7.89348276 63.7403254,7.89348276 L66.3485995,7.89348276 C66.6003252,7.89348276 66.8175061,7.98548174 67.0007432,8.16917808 C67.1836798,8.35287441 67.2752983,8.57125889 67.2752983,8.82402987 L67.2752983,17.5769038 C67.2752983,18.9553804 67.5669757,20.05786 68.1503303,20.884946 C68.7336849,21.7123336 69.6889206,22.1258766 71.015737,22.1258766 C72.2284057,22.1258766 73.1548042,21.7123336 73.795533,20.884946 C74.4359615,20.05786 74.7564761,18.9553804 74.7564761,17.5769038 L74.7564761,8.82402987 C74.7564761,8.57125889 74.8480946,8.35287441 75.0310313,8.16917808 C75.2139679,7.98548174 75.4311489,7.89348276 75.6828745,7.89348276 L78.2911486,7.89348276 C78.5428742,7.89348276 78.7600552,7.98548174 78.9432922,8.16917808 C79.1262289,8.35287441 79.217547,8.57125889 79.217547,8.82402987 L79.217547,24.8825281 C79.217547,25.1349975 79.1262289,25.353382 78.9432922,25.5370783 C78.7600552,25.7210763 78.5428742,25.8127736 78.2911486,25.8127736 L75.6828745,25.8127736 C75.4311489,25.8127736 75.2139679,25.7210763 75.0310313,25.5370783 C74.8480946,25.353382 74.7564761,25.1349975 74.7564761,24.8825281 L74.7564761,24.0898287 C74.2301953,24.618295 73.5780517,25.0948799 72.8003456,25.5201867 C72.0223392,25.9451918 71.084526,26.1575436 69.9863053,26.1575436 C68.5907,26.1575436 67.4354055,25.9391591 66.5201214,25.5026918 C65.6051378,25.0662245 64.8727904,24.4804473 64.3236801,23.7453603 C63.7748701,23.0099717 63.3858669,22.1542304 63.1569708,21.1778346 C62.9283751,20.2017404 62.813927,19.1737649 62.813927,18.0936063 L62.813927,8.82402987 Z" id="Fill-10"></path>
                <path d="M87.4126283,24.8826186 C87.4126283,25.135088 87.3213102,25.3534724 87.1380731,25.5371688 C86.9551365,25.7208651 86.7376551,25.8128641 86.4862299,25.8128641 L83.8779558,25.8128641 C83.6265305,25.8128641 83.4090492,25.7208651 83.2258122,25.5371688 C83.0428755,25.3534724 82.951257,25.135088 82.951257,24.8826186 L82.951257,2.27680898 C82.951257,2.024038 83.0428755,1.80565352 83.2258122,1.62195719 C83.4090492,1.43795922 83.6265305,1.34626187 83.8779558,1.34626187 L86.4862299,1.34626187 C86.7376551,1.34626187 86.9551365,1.43795922 87.1380731,1.62195719 C87.3213102,1.80565352 87.4126283,2.024038 87.4126283,2.27680898 L87.4126283,24.8826186 Z" id="Fill-12"></path>
                <path d="M95.6778803,24.8826186 C95.6778803,25.135088 95.5862618,25.3534724 95.4033252,25.5371688 C95.2203885,25.7208651 95.0029072,25.8128641 94.7514819,25.8128641 L92.1432078,25.8128641 C91.8914822,25.8128641 91.6740009,25.7208651 91.4910642,25.5371688 C91.3081276,25.3534724 91.216509,25.135088 91.216509,24.8826186 L91.216509,2.27680898 C91.216509,2.024038 91.3081276,1.80565352 91.4910642,1.62195719 C91.6740009,1.43795922 91.8914822,1.34626187 92.1432078,1.34626187 L94.7514819,1.34626187 C95.0029072,1.34626187 95.2203885,1.43795922 95.4033252,1.62195719 C95.5862618,1.80565352 95.6778803,2.024038 95.6778803,2.27680898 L95.6778803,24.8826186 Z" id="Fill-14"></path>
                <path d="M120.026358,15.6470667 C119.980699,15.9918367 119.957569,16.3939175 119.957569,16.8533092 C119.957569,17.3127008 119.980699,17.71448 120.026358,18.05925 C120.095147,18.7714126 120.255254,19.3804157 120.506679,19.8859577 C120.758405,20.391198 121.072912,20.7990099 121.4505,21.1090917 C121.827788,21.4191735 122.245629,21.6487186 122.703121,21.79833 C123.160612,21.9476398 123.629519,22.0224456 124.110141,22.0224456 C124.682081,22.0224456 125.162702,21.9762953 125.551405,21.8845979 C125.940108,21.7925989 126.272037,21.6604824 126.546593,21.4879466 C126.821148,21.3157124 127.055451,21.1205539 127.250103,20.9024711 C127.444454,20.6840866 127.633398,20.4370467 127.816335,20.1613514 C127.953613,19.9544291 128.11372,19.74811 128.296656,19.5411877 C128.479894,19.334567 128.697074,19.2311059 128.9488,19.2311059 L131.557074,19.2311059 C131.8088,19.2311059 132.031688,19.3231049 132.22604,19.5068012 C132.420691,19.6904975 132.506603,19.908882 132.483773,20.1613514 C132.460943,20.6436673 132.289121,21.2297461 131.968907,21.9189844 C131.648392,22.6079211 131.150949,23.2688056 130.475976,23.9001298 C129.801003,24.5320572 128.937385,25.0662546 127.884824,25.5027219 C126.832563,25.9391893 125.574235,26.1575737 124.110141,26.1575737 C122.851513,26.1575737 121.719348,25.945222 120.712445,25.5199152 C119.706144,25.09491 118.831112,24.5205951 118.08735,23.7969703 C117.343587,23.0733455 116.760233,22.2347973 116.337286,21.2813259 C115.914038,20.3281561 115.656305,19.3231049 115.564686,18.2661723 C115.519027,17.8526293 115.496198,17.3932376 115.496198,16.8876957 C115.496198,16.3824553 115.519027,15.9112999 115.564686,15.4748326 C115.633475,14.4182016 115.885201,13.4071177 116.319863,12.4424857 C116.754525,11.4775521 117.33818,10.6332729 118.069927,9.90964806 C118.802274,9.18572162 119.677306,8.61170828 120.695624,8.18670313 C121.71334,7.76139635 122.851513,7.54874295 124.110141,7.54874295 C125.574235,7.54874295 126.832563,7.76712743 127.884824,8.20359475 C128.937385,8.6403637 129.801003,9.17425945 130.475976,9.8061869 C131.150949,10.4378127 131.648392,11.0983956 131.968907,11.7876339 C132.289121,12.4765706 132.460943,13.0626493 132.483773,13.5449653 C132.506603,13.7977363 132.420691,14.0161208 132.22604,14.1998171 C132.031688,14.3838151 131.8088,14.4755124 131.557074,14.4755124 L128.9488,14.4755124 C128.697074,14.4755124 128.479894,14.3720513 128.296656,14.1654306 C128.11372,13.9585083 127.953613,13.7518876 127.816335,13.5449653 C127.633398,13.26927 127.444454,13.0225318 127.250103,12.8041473 C127.055451,12.5860644 126.821148,12.3906043 126.546593,12.2183701 C126.272037,12.046136 125.940108,11.9140194 125.551405,11.8220204 C125.162702,11.7303231 124.682081,11.6841727 124.110141,11.6841727 C123.629519,11.6841727 123.160612,11.7586768 122.703121,11.9079867 C122.245629,12.0575981 121.827788,12.2871431 121.4505,12.5975266 C121.072912,12.9076084 120.758405,13.3154203 120.506679,13.8206607 C120.255254,14.3262026 120.095147,14.9352057 120.026358,15.6470667" id="Fill-16"></path>
                <path d="M143.644411,12.0289125 C142.271935,12.0289125 141.282455,12.3332633 140.675971,12.9419648 C140.069786,13.5509679 139.766694,14.5445569 139.766694,15.9227319 L139.766694,24.8825281 C139.766694,25.1349975 139.675076,25.353382 139.492139,25.5370783 C139.308902,25.7210763 139.091721,25.8127736 138.839996,25.8127736 L136.231721,25.8127736 C135.979996,25.8127736 135.763115,25.7210763 135.579878,25.5370783 C135.396942,25.353382 135.305323,25.1349975 135.305323,24.8825281 L135.305323,8.82402987 C135.305323,8.57125889 135.396942,8.35287441 135.579878,8.16917808 C135.763115,7.98548174 135.979996,7.89348276 136.231721,7.89348276 L138.839996,7.89348276 C139.091721,7.89348276 139.308902,7.98548174 139.492139,8.16917808 C139.675076,8.35287441 139.766694,8.57125889 139.766694,8.82402987 L139.766694,9.61672932 C140.361464,9.06533868 140.996485,8.64033354 141.671458,8.34141224 C142.346131,8.04279259 143.232878,7.89348276 144.330798,7.89348276 L144.582524,7.89348276 C144.83425,7.89348276 145.051731,7.98548174 145.234668,8.16917808 C145.417604,8.35287441 145.508923,8.57125889 145.508923,8.82402987 L145.508923,11.0983654 C145.508923,11.3511364 145.417604,11.5695209 145.234668,11.7532172 C145.051731,11.9369136 144.83425,12.0289125 144.582524,12.0289125 L143.644411,12.0289125 Z" id="Fill-18"></path>
                <path d="M153.075561,24.8826186 C153.075561,25.135088 152.983942,25.3534724 152.801006,25.5371688 C152.618069,25.7208651 152.400588,25.8128641 152.148862,25.8128641 L149.540588,25.8128641 C149.289163,25.8128641 149.071681,25.7208651 148.888745,25.5371688 C148.705508,25.3534724 148.613889,25.135088 148.613889,24.8826186 L148.613889,8.82412036 C148.613889,8.57134938 148.705508,8.3529649 148.888745,8.16926857 C149.071681,7.9852706 149.289163,7.89357325 149.540588,7.89357325 L152.148862,7.89357325 C152.400588,7.89357325 152.618069,7.9852706 152.801006,8.16926857 C152.983942,8.3529649 153.075561,8.57134938 153.075561,8.82412036 L153.075561,24.8826186 Z M152.320384,1.34626187 C152.57211,1.34626187 152.789591,1.43795922 152.972528,1.62195719 C153.155765,1.80565352 153.246782,2.024038 153.246782,2.27680898 L153.246782,4.96468753 C153.246782,5.21715687 153.155765,5.43523971 152.972528,5.61923768 C152.789591,5.80293402 152.57211,5.894933 152.320384,5.894933 L149.369066,5.894933 C149.11734,5.894933 148.900159,5.80293402 148.716922,5.61923768 C148.533986,5.43523971 148.442367,5.21715687 148.442367,4.96468753 L148.442367,2.27680898 C148.442367,2.024038 148.533986,1.80565352 148.716922,1.62195719 C148.900159,1.43795922 149.11734,1.34626187 149.369066,1.34626187 L152.320384,1.34626187 Z" id="Fill-20"></path>
                <path d="M169.672601,17.8180316 C169.74139,17.1749436 169.74139,16.531554 169.672601,15.888466 C169.535323,14.3950661 169.077832,13.3212419 168.299825,12.6663901 C167.522119,12.0115383 166.572591,11.6842632 165.451541,11.6842632 C164.33049,11.6842632 163.386669,12.017571 162.620078,12.6835834 C161.853786,13.3498973 161.413417,14.3033688 161.298969,15.5436961 C161.25331,15.888466 161.23048,16.3249334 161.23048,16.8533997 C161.23048,17.381866 161.25331,17.8180316 161.298969,18.1628016 C161.413417,19.3575819 161.853786,20.2992895 162.620078,20.9885278 C163.386669,21.6777661 164.33049,22.0222344 165.451541,22.0222344 C166.572591,22.0222344 167.522119,21.6949594 168.299825,21.0404092 C169.077832,20.3855574 169.535323,19.3114316 169.672601,17.8180316 M166.480972,26.1573626 C165.771755,26.1573626 165.136733,26.0885896 164.576208,25.9507419 C164.015984,25.8128943 163.523947,25.6406601 163.1007,25.4337378 C162.677452,25.2268155 162.317286,25.0030016 162.019601,24.7619944 C161.722216,24.5206856 161.481905,24.2968716 161.298969,24.0899493 L161.298969,31.4299602 C161.298969,31.6827311 161.20735,31.900814 161.024414,32.084812 C160.841477,32.2685083 160.623996,32.3602056 160.37257,32.3602056 L157.764296,32.3602056 C157.512871,32.3602056 157.29539,32.2685083 157.112453,32.084812 C156.929216,31.900814 156.837597,31.6827311 156.837597,31.4299602 L156.837597,8.82415052 C156.837597,8.57137954 156.929216,8.35299507 157.112453,8.16929873 C157.29539,7.98530076 157.512871,7.89360341 157.764296,7.89360341 L160.37257,7.89360341 C160.623996,7.89360341 160.841477,7.98530076 161.024414,8.16929873 C161.20735,8.35299507 161.298969,8.57137954 161.298969,8.82415052 L161.298969,9.61684998 C161.481905,9.40992767 161.722216,9.18581211 162.019601,8.94450329 C162.317286,8.70349612 162.677452,8.47938056 163.1007,8.27245825 C163.523947,8.06583758 164.015984,7.89360341 164.576208,7.75575575 C165.136733,7.61790809 165.771755,7.54883345 166.480972,7.54883345 C167.625152,7.54883345 168.660291,7.77294901 169.58669,8.22118013 C170.513389,8.66910961 171.30281,9.26604729 171.954653,10.0128981 C172.606797,10.7597488 173.121362,11.6209197 173.498951,12.5973155 C173.876539,13.5740129 174.088013,14.5905263 174.133972,15.6471572 C174.156802,15.9916256 174.168217,16.3937064 174.168217,16.8533997 C174.168217,17.3127913 174.156802,17.7145705 174.133972,18.0593404 C174.088013,19.1162731 173.876539,20.1327864 173.498951,21.1091822 C173.121362,22.0852764 172.606797,22.9470505 171.954653,23.6935996 C171.30281,24.4401487 170.513389,25.0376897 169.58669,25.4856192 C168.660291,25.9335487 167.625152,26.1573626 166.480972,26.1573626" id="Fill-22"></path>
                <path d="M177.184959,7.81424298 L177.184959,2.27680898 C177.184959,2.024038 177.276578,1.80565352 177.459514,1.62195719 C177.642151,1.43795922 177.859632,1.34626187 178.111358,1.34626187 L180.719632,1.34626187 C180.971057,1.34626187 181.188538,1.43795922 181.371775,1.62195719 C181.554712,1.80565352 181.64633,2.024038 181.64633,2.27680898 L181.64633,7.89357325 L186.073157,7.89357325 C186.324883,7.89357325 186.542064,7.9852706 186.725301,8.16926857 C186.908237,8.3529649 186.999856,8.57134938 186.999856,8.82412036 L186.999856,11.0984559 C186.999856,11.3512269 186.908237,11.5693097 186.725301,11.7533077 C186.542064,11.9370041 186.324883,12.029003 186.073157,12.029003 L181.64633,12.029003 L181.64633,19.3343257 C181.64633,20.0464884 181.834674,20.6150723 182.212263,21.040379 C182.589851,21.4650825 183.293361,21.6777359 184.323093,21.6777359 L186.416201,21.6777359 C186.667926,21.6777359 186.885408,21.7697349 187.068344,21.9534313 C187.251581,22.1371276 187.3429,22.3555121 187.3429,22.6079814 L187.3429,24.8826186 C187.3429,25.135088 187.251581,25.3531708 187.068344,25.5371688 C186.885408,25.7208651 186.667926,25.8128641 186.416201,25.8128641 L183.876716,25.8128641 C181.726234,25.8128641 180.073195,25.2904305 178.917901,24.2449601 C177.762606,23.1997913 177.184959,21.5971991 177.184959,19.4377869 L177.184959,7.81424298 Z" id="Fill-24"></path>
                <path d="M193.374282,7.98834729 C193.413633,7.98834729 193.447276,8.00252418 193.475813,8.0311796 C193.50435,8.05953339 193.518769,8.09391989 193.518769,8.13283094 L193.518769,8.32617962 C193.518769,8.36539231 193.50435,8.39947718 193.475813,8.4281326 C193.447276,8.45678802 193.413633,8.47066328 193.374282,8.47066328 L192.37579,8.47066328 L192.37579,11.596819 C192.37579,11.6363333 192.361972,11.6701165 192.333435,11.6984703 C192.304899,11.7274273 192.270955,11.7413026 192.231904,11.7413026 L192.012921,11.7413026 C191.97357,11.7413026 191.939926,11.7274273 191.911389,11.6984703 C191.882853,11.6701165 191.868734,11.6363333 191.868734,11.596819 L191.868734,8.47066328 L190.870243,8.47066328 C190.830892,8.47066328 190.797248,8.45678802 190.768711,8.4281326 C190.740174,8.39947718 190.726356,8.36539231 190.726356,8.32617962 L190.726356,8.13283094 C190.726356,8.09391989 190.740174,8.05953339 190.768711,8.0311796 C190.797248,8.00252418 190.830892,7.98834729 190.870243,7.98834729 L193.374282,7.98834729 Z" id="Fill-26"></path>
                <path d="M195.760959,10.2559262 L196.839655,8.16015916 C196.860982,8.11672357 196.89042,8.07751089 196.927969,8.04191784 C196.964917,8.00632479 197.01418,7.98822663 197.074859,7.98822663 L197.277321,7.98822663 C197.316672,7.98822663 197.350315,8.00240352 197.378852,8.03105895 C197.407089,8.05971437 197.421808,8.09379924 197.421808,8.13301192 L197.421808,11.5966983 C197.421808,11.6362126 197.407089,11.6699959 197.378852,11.6983496 C197.350315,11.7273067 197.316672,11.7414836 197.277321,11.7414836 L197.058638,11.7414836 C197.019287,11.7414836 196.985644,11.7273067 196.957107,11.6983496 C196.92887,11.6699959 196.914752,11.6362126 196.914752,11.5966983 L196.914752,9.05541486 L196.081474,10.6691675 C196.053237,10.7225571 196.022598,10.7647862 195.991057,10.7949498 C195.958615,10.825415 195.91626,10.8404968 195.862491,10.8404968 L195.659728,10.8404968 C195.606259,10.8404968 195.563904,10.825415 195.531462,10.7949498 C195.499321,10.7647862 195.469282,10.7225571 195.441045,10.6691675 L194.607768,9.05541486 L194.607768,11.5966983 C194.607768,11.6362126 194.593649,11.6699959 194.565413,11.6983496 C194.536876,11.7273067 194.502932,11.7414836 194.463881,11.7414836 L194.244598,11.7414836 C194.205247,11.7414836 194.171603,11.7273067 194.143066,11.6983496 C194.11483,11.6699959 194.100712,11.6362126 194.100712,11.5966983 L194.100712,8.13301192 C194.100712,8.09379924 194.11483,8.05971437 194.143066,8.03105895 C194.171603,8.00240352 194.205247,7.98822663 194.244598,7.98822663 L194.44766,7.98822663 C194.508339,7.98822663 194.557002,8.00632479 194.59455,8.04191784 C194.631498,8.07751089 194.661537,8.11672357 194.682264,8.16015916 L195.760959,10.2559262 Z" id="Fill-28"></path>
                <path d="M109.024326,20.6950661 C109.024326,20.4416919 108.943821,20.2344679 108.783414,20.072791 C108.622706,19.9114158 108.341542,19.7615027 107.940223,19.6230517 C107.538303,19.4846008 107.004212,19.3464515 106.338852,19.2083022 C105.67289,19.0698513 104.823992,18.8858533 103.790956,18.6548001 C102.780448,18.4249535 101.942965,18.1365894 101.277304,17.7906129 C100.611342,17.444938 100.077552,17.0419523 99.6762327,16.5804492 C99.2746131,16.119851 98.993149,15.595306 98.8327415,15.0074174 C98.6720336,14.4195288 98.5918299,13.7800604 98.5918299,13.0884091 C98.5918299,12.3970593 98.751937,11.7174734 99.0736532,11.0487463 C99.3947686,10.3806225 99.8594697,9.78670122 100.468357,9.26788727 C101.076344,8.74937496 101.816501,8.32919598 102.68913,8.00614381 C103.561158,7.68339327 104.55995,7.522018 105.684605,7.522018 C106.80896,7.522018 107.813459,7.64900677 108.697503,7.90238102 C109.580946,8.15635855 110.332818,8.49026962 110.95282,8.90501914 C111.572522,9.3200703 112.054646,9.79846502 112.398891,10.3399017 C112.743136,10.88164 112.937788,11.4288077 112.984348,11.9820081 C113.006877,12.2359857 112.920666,12.4549734 112.725714,12.639273 C112.530761,12.8235726 112.306972,12.9155716 112.054646,12.9155716 L109.403416,12.9155716 C109.05887,12.9155716 108.800836,12.8525297 108.628413,12.7255409 C108.456291,12.5991554 108.267046,12.4549734 108.060379,12.2932965 C107.854012,12.1322229 107.578555,11.9883425 107.23401,11.8613537 C106.890065,11.7349682 106.373396,11.6710214 105.684605,11.6710214 C104.996115,11.6710214 104.387527,11.7747842 103.859745,11.9820081 C103.331361,12.1898354 103.06792,12.5584346 103.06792,13.0884091 C103.06792,13.3423866 103.130701,13.5553416 103.257165,13.728179 C103.383328,13.9013181 103.623939,14.0566607 103.9802,14.19481 C104.336161,14.3332609 104.829098,14.4777445 105.461116,14.627356 C106.091932,14.7772691 106.912293,14.955536 107.922801,15.1630616 C109.965443,15.6010371 111.405806,16.2869574 112.24389,17.2202192 C113.081674,18.1537827 113.500716,19.312065 113.500716,20.6950661 C113.500716,21.3864159 113.328594,22.0605724 112.984348,22.7175356 C112.639803,23.3744989 112.140557,23.9623875 111.48631,24.4808998 C110.832364,24.9997137 110.028525,25.4144632 109.076293,25.7257516 C108.12346,26.0367383 107.050172,26.1926842 105.857028,26.1926842 C104.639854,26.1926842 103.566866,26.0482005 102.637163,25.7601381 C101.707761,25.4720757 100.921043,25.0980471 100.279113,24.636544 C99.6359806,24.1756441 99.1427425,23.6571318 98.7981968,23.0807054 C98.4542519,22.5048822 98.2701137,21.9396163 98.2472842,21.3864159 C98.2241542,21.1330416 98.3103658,20.9143555 98.505318,20.7294526 C98.7005705,20.5454547 98.92436,20.4528524 99.1769868,20.4528524 L101.828517,20.4528524 C102.172462,20.4528524 102.430796,20.5339925 102.602919,20.6950661 C102.775041,20.8564414 102.969994,21.040741 103.188376,21.2482666 C103.406458,21.4554905 103.710151,21.6403934 104.100656,21.801467 C104.490861,21.9628423 105.076018,22.0436808 105.857028,22.0436808 C106.201274,22.0436808 106.556633,22.0210581 106.924309,21.9740028 C107.291083,21.9284558 107.629922,21.8533484 107.940223,21.7495856 C108.249924,21.6458229 108.507958,21.5073719 108.714625,21.3345345 C108.920992,21.161697 109.024326,20.9490437 109.024326,20.6950661" id="Fill-30"></path>
            </g>
        </g>
    </g>
</svg>