<?xml version="1.0" encoding="UTF-8"?>
<svg width="191px" height="20px" viewBox="0 0 191 20" version="1.1" xmlns="http://www.w3.org/2000/svg" xmlns:xlink="http://www.w3.org/1999/xlink">
    <!-- Generator: Sketch 48.2 (47327) - http://www.bohemiancoding.com/sketch -->
    <title>Group</title>
    <desc>Created with Sketch.</desc>
    <defs></defs>
    <g id="06" stroke="none" stroke-width="1" fill="none" fill-rule="evenodd" transform="translate(-1182.000000, -931.000000)">
        <g id="Group" transform="translate(1182.000000, 926.000000)">
            <text id="Featurename" font-family="Montserrat-Medium, Montserrat" font-size="24" font-weight="400" fill="#404F5E">
                <tspan x="30" y="23">Featurename</tspan>
            </text>
            <g id="Page-1-Copy-5" transform="translate(0.000000, 5.000000)" fill="#88B04B">
                <path d="M11,7 L11,10.5125485 L11.02,10.5237707 L11.02,7.02019996 C11.0145,7.01346664 11.005,7.00673332 11,7 Z M11,13.964497 L11,17.9977556 C11.005,17.9977556 11.0145,18 11.02,18 L11.02,13.9734748 L11,13.964497 Z" id="Fill-1"></path>
                <path d="M20.7463073,7.72283481 C20.7439577,7.74033611 20.7418217,7.76221274 20.7418217,7.77971405 C20.7270834,8.06411025 20.3105648,14.4192715 12.6231261,17.2851101 C12.6188541,17.2872978 12.6165045,17.2872978 12.6124462,17.2894854 L12.6124462,13.3670055 L12.6231261,13.3560672 L17.2646388,8.23256031 C17.6832934,7.7709634 17.6576615,7.04684692 17.204831,6.61587729 C16.7520005,6.18709533 16.0447732,6.21334729 15.6241962,6.67713186 L12.6231261,9.99144142 L12.6124462,10.0023797 L12.6124462,6.58743767 C12.6165045,6.57868702 12.6188541,6.57212403 12.6231261,6.56337338 C12.9947889,5.7145601 14.774071,2.28867972 19.1742165,2.28867972 C19.2169364,2.28867972 19.2596562,2.28867972 19.3021625,2.29086739 C21.0239864,4.40196226 20.7484433,7.69001986 20.7463073,7.72283481 Z M10.3867415,10.0023797 L10.3781975,9.99144142 L7.37477783,6.67713186 C6.95612322,6.21334729 6.24718716,6.18490767 5.79649264,6.61587729 C5.34366214,7.04684692 5.31589423,7.7709634 5.73647124,8.23256031 L10.3781975,13.3560672 L10.3867415,13.3648179 L10.3867415,17.2894854 C10.3843919,17.2894854 10.3803335,17.2872978 10.3781975,17.2872978 C2.6886229,14.4214592 2.27210427,8.06411025 2.25928831,7.78408938 C2.25693872,7.76440041 2.25501633,7.74252378 2.25501633,7.72283481 C2.25074434,7.6878322 1.96238529,4.41508824 3.69681157,2.29086739 C3.74166742,2.28867972 3.78652327,2.28867972 3.83137913,2.28867972 C8.24839895,2.28867972 10.0043988,5.70580945 10.3781975,6.5677487 C10.3803335,6.57431169 10.3843919,6.58087468 10.3867415,6.58743767 L10.3867415,10.0023797 Z M20.6008462,0.356973227 C20.4088204,0.16008355 20.1525013,0.0397620812 19.8812302,0.0222607766 C15.6709745,-0.242446456 12.9475834,1.93646597 11.5017298,3.98630627 C10.053313,1.93646597 7.32992198,-0.244634119 3.11987987,0.0222607766 C2.84668638,0.0397620812 2.59036722,0.16008355 2.39812786,0.356973227 C-0.306252822,3.12655468 -0.00913620225,7.49094252 0.0271756779,7.91753682 C0.0442636216,8.22818498 0.219201444,10.3786578 1.5949945,12.8463417 C2.91290216,15.2112055 5.63180759,18.3548774 11.1193871,19.9321824 C11.147155,19.9409331 11.1770589,19.9496837 11.2069628,19.9584344 L11.2090988,19.9584344 C11.2304587,19.9649974 11.2496826,19.9693727 11.2710426,19.973748 C11.2988105,19.980311 11.3263648,19.9846864 11.3564823,19.9890617 C11.4056101,19.9978123 11.454738,20 11.5036522,20 C11.5508577,20 11.5978495,19.9978123 11.6448413,19.9890617 L11.7217371,19.9759357 C11.7450194,19.9715604 11.7687289,19.9649974 11.7922249,19.9584344 C11.8240512,19.9496837 11.8563046,19.9409331 11.8881309,19.9299948 C22.0300391,17.0072769 22.9100682,8.71822151 22.969876,7.94160112 C22.9952943,7.6878322 23.3671707,3.18999691 20.6008462,0.356973227 Z" id="Fill-3"></path>
                <path d="M12,20 C12.0258294,19.9957593 12.0521327,19.9893981 12.0781991,19.983037 C12.1135071,19.9745555 12.1492891,19.966074 12.1845972,19.9554722 C12.1232227,19.9766759 12.0616114,19.9915185 12,20 Z M12.9881517,13.5943565 L12.9881517,17.3961833 C12.992654,17.394063 12.9952607,17.394063 13,17.3919426 L13,13.5837547 L12.9881517,13.5943565 Z M12.9881517,7.02332409 L12.9881517,10.3332246 L13,10.3226227 L13,7 C12.9952607,7.00848149 12.992654,7.0148426 12.9881517,7.02332409 Z" id="Fill-5"></path>
            </g>
        </g>
    </g>
</svg>