<?xml version="1.0" encoding="UTF-8"?>
<svg width="165px" height="72px" viewBox="0 0 165 72" version="1.1" xmlns="http://www.w3.org/2000/svg" xmlns:xlink="http://www.w3.org/1999/xlink">
    <!-- Generator: Sketch 48.2 (47327) - http://www.bohemiancoding.com/sketch -->
    <title>Page 1 Copy 2</title>
    <desc>Created with Sketch.</desc>
    <defs></defs>
    <g id="06" stroke="none" stroke-width="1" fill="none" fill-rule="evenodd" transform="translate(-1195.000000, -726.000000)">
        <g id="Page-1-Copy-2" transform="translate(1195.000000, 726.000000)" fill="#404F5E">
            <path d="M16.9897909,40 C17.26429,40 17.5014467,40.0977648 17.7009336,40.292974 C17.9004204,40.4881832 18,40.7202545 18,40.9888674 L18,43.5887712 C18,43.8573841 17.9004204,44.0894555 17.7009336,44.2846646 C17.5014467,44.4801943 17.26429,44.5776386 16.9897909,44.5776386 L5.05202817,44.5776386 L5.05202817,52.048155 L16.2413059,52.048155 C16.515805,52.048155 16.7526342,52.1455993 16.9524485,52.3408085 C17.1519354,52.5360177 17.2518426,52.768089 17.2518426,53.0367019 L17.2518426,55.6366057 C17.2518426,55.9052186 17.1519354,56.13729 16.9524485,56.3324991 C16.7526342,56.5280288 16.515805,56.6254731 16.2413059,56.6254731 L5.05202817,56.6254731 L5.05202817,65.0114532 C5.05202817,65.2800661 4.95212098,65.5118168 4.75263416,65.707026 C4.55314735,65.9025557 4.31599061,66 4.04181908,66 L1.01053666,66 C0.736037561,66 0.498880821,65.9025557 0.299394006,65.707026 C0.09990719,65.5118168 0,65.2800661 0,65.0114532 L0,40.9888674 C0,40.7202545 0.09990719,40.4881832 0.299394006,40.292974 C0.498880821,40.0977648 0.736037561,40 1.01053666,40 L16.9897909,40 Z" id="Fill-1"></path>
            <path d="M21,47.9680429 C21,47.7050867 21.1005347,47.4779026 21.3012745,47.2868043 C21.5020144,47.095706 21.7406607,47 22.0165544,47 L24.8786625,47 C25.1548857,47 25.3932025,47.095706 25.5942719,47.2868043 C25.7950117,47.4779026 25.8955464,47.7050867 25.8955464,47.9680429 L25.8955464,57.0739224 C25.8955464,58.5076301 26.2156094,59.6548472 26.8557354,60.5149463 C27.4958614,61.375673 28.5440595,61.8058794 30,61.8058794 C31.3306841,61.8058794 32.3472385,61.375673 33.0503223,60.5149463 C33.7530765,59.6548472 34.1047832,58.5076301 34.1047832,57.0739224 L34.1047832,47.9680429 C34.1047832,47.7050867 34.2053179,47.4779026 34.4060577,47.2868043 C34.6067975,47.095706 34.8451143,47 35.1213375,47 L37.9834456,47 C38.2596689,47 38.4979856,47.095706 38.6990551,47.2868043 C38.8997949,47.4779026 39,47.7050867 39,47.9680429 L39,64.6736086 C39,64.9365648 38.8997949,65.1634352 38.6990551,65.3545334 C38.4979856,65.5459455 38.2596689,65.6413377 37.9834456,65.6413377 L35.1213375,65.6413377 C34.8451143,65.6413377 34.6067975,65.5459455 34.4060577,65.3545334 C34.2053179,65.1634352 34.1047832,64.9365648 34.1047832,64.6736086 L34.1047832,63.8489678 C33.5272854,64.3987283 32.8116759,64.8945169 31.9582845,65.3369612 C31.1045634,65.7790917 30.0754834,66 28.8703853,66 C27.3389613,66 26.071235,65.7728159 25.0668766,65.3187614 C24.0628479,64.8650206 23.2592294,64.2553262 22.6566803,63.4906193 C22.0544609,62.7255987 21.6276004,61.8353757 21.3764284,60.8199505 C21.125586,59.8042114 21,58.7348142 21,57.6111313 L21,47.9680429 Z" id="Fill-3"></path>
            <path d="M48,65.0114532 C48,65.2800661 47.8976569,65.5118168 47.6922973,65.707026 C47.4872744,65.9022352 47.2435362,66 46.961756,66 L44.0385807,66 C43.7568004,66 43.5130622,65.9022352 43.3077027,65.707026 C43.1026798,65.5118168 43,65.2800661 43,65.0114532 L43,40.9888674 C43,40.7202545 43.1026798,40.4881832 43.3077027,40.292974 C43.5130622,40.0974443 43.7568004,40 44.0385807,40 L46.961756,40 C47.2435362,40 47.4872744,40.0974443 47.6922973,40.292974 C47.8976569,40.4881832 48,40.7202545 48,40.9888674 L48,65.0114532 Z" id="Fill-5"></path>
            <path d="M56,65.0114532 C56,65.2800661 55.8973202,65.5118168 55.6922973,65.707026 C55.4872744,65.9022352 55.2435362,66 54.961756,66 L52.0385807,66 C51.7564638,66 51.5127256,65.9022352 51.3077027,65.707026 C51.1026798,65.5118168 51,65.2800661 51,65.0114532 L51,40.9888674 C51,40.7202545 51.1026798,40.4881832 51.3077027,40.292974 C51.5127256,40.0974443 51.7564638,40 52.0385807,40 L54.961756,40 C55.2435362,40 55.4872744,40.0974443 55.6922973,40.292974 C55.8973202,40.4881832 56,40.7202545 56,40.9888674 L56,65.0114532 Z" id="Fill-7"></path>
            <path d="M81.799133,54.7035596 C81.750763,55.0741101 81.7262598,55.5062569 81.7262598,56 C81.7262598,56.4937431 81.750763,56.9258899 81.799133,57.2961162 C81.8720062,58.0615315 82.0416195,58.7160734 82.3079728,59.2594178 C82.5746444,59.8024379 82.9078247,60.2407443 83.307832,60.5740128 C83.7075211,60.9076055 84.1501704,61.1539908 84.6348252,61.3147896 C85.11948,61.4752642 85.6162274,61.5556636 86.1253854,61.5556636 C86.7312835,61.5556636 87.2404416,61.5060624 87.6522232,61.4075083 C88.0640048,61.30863 88.4156421,61.1666342 88.7064986,60.9811969 C88.9973552,60.796408 89.2455697,60.5863321 89.4517787,60.3519419 C89.6576695,60.1172275 89.8578323,59.851715 90.0516306,59.5557285 C90.1970589,59.3333333 90.3666721,59.1112624 90.5604704,58.8888673 C90.7545869,58.6667963 90.9846627,58.5555988 91.2513343,58.5555988 L94.0144715,58.5555988 C94.281143,58.5555988 94.5172651,58.6544771 94.7231559,58.8519095 C94.9293649,59.0493419 95.0203769,59.2840563 94.9961919,59.5557285 C94.9720069,60.0737859 94.7899828,60.7036893 94.4507563,61.4444661 C94.1112115,62.1852428 93.5842329,62.8952214 92.869184,63.5740777 C92.1541352,64.2529339 91.2392418,64.8274006 90.1241856,65.296181 C89.0094477,65.7652856 87.6764082,66 86.1253854,66 C84.7920278,66 83.5926423,65.7717694 82.5259561,65.3146599 C81.4599064,64.8578746 80.5329205,64.2406147 79.7449984,63.4632043 C78.9570763,62.6851456 78.3390857,61.7838942 77.8910266,60.7594502 C77.4426493,59.734682 77.1696133,58.6544771 77.072555,57.5185113 C77.024185,57.0740453 77,56.5803021 77,56.0369578 C77,55.4939376 77.024185,54.9875511 77.072555,54.5184465 C77.1454283,53.3828049 77.4120998,52.2961162 77.8725696,51.2593529 C78.3330395,50.2222654 78.9513483,49.3148544 79.7265414,48.5371199 C80.5023711,47.7590611 81.429357,47.1421254 82.5081356,46.6853401 C83.5862778,46.2282306 84.7920278,46 86.1253854,46 C87.6764082,46 89.0094477,46.2347144 90.1241856,46.7034948 C91.2392418,47.1729236 92.1541352,47.7467419 92.869184,48.4259223 C93.5842329,49.1047786 94.1112115,49.8147572 94.4507563,50.5555339 C94.7899828,51.2963107 94.9720069,51.9258899 94.9961919,52.4442715 C95.0203769,52.7159437 94.9293649,52.9506581 94.7231559,53.1480905 C94.5172651,53.3458471 94.281143,53.4444012 94.0144715,53.4444012 L91.2513343,53.4444012 C90.9846627,53.4444012 90.7545869,53.3332037 90.5604704,53.1111327 C90.3666721,52.8887376 90.1970589,52.6666667 90.0516306,52.4442715 C89.8578323,52.1479608 89.6576695,51.8827725 89.4517787,51.6480581 C89.2455697,51.4136679 88.9973552,51.203592 88.7064986,51.0184789 C88.4156421,50.8333658 88.0640048,50.69137 87.6522232,50.5924917 C87.2404416,50.4939376 86.7312835,50.4443364 86.1253854,50.4443364 C85.6162274,50.4443364 85.11948,50.5244116 84.6348252,50.6848862 C84.1501704,50.845685 83.7075211,51.0923945 83.307832,51.4259872 C82.9078247,51.7592557 82.5746444,52.1975621 82.3079728,52.7405822 C82.0416195,53.2839266 81.8720062,53.9384685 81.799133,54.7035596" id="Fill-9"></path>
            <path d="M106.989961,51.3848368 C105.510363,51.3848368 104.443653,51.7075429 103.789832,52.352955 C103.136334,52.998687 102.809585,54.0521992 102.809585,55.5134917 L102.809585,65.0136516 C102.809585,65.2816671 102.710816,65.5129025 102.513601,65.7076775 C102.316062,65.9027724 102.08193,66 101.810557,66 L98.9987047,66 C98.7273316,66 98.4935233,65.9027724 98.2959845,65.7076775 C98.0987694,65.5129025 98,65.2816671 98,65.0136516 L98,47.9866682 C98,47.7186527 98.0987694,47.4870975 98.2959845,47.2923225 C98.4935233,47.0975474 98.7273316,47 98.9987047,47 L101.810557,47 C102.08193,47 102.316062,47.0975474 102.513601,47.2923225 C102.710816,47.4870975 102.809585,47.7186527 102.809585,47.9866682 L102.809585,48.8271752 C103.450777,48.2425303 104.135363,47.7918932 104.863018,47.474944 C105.59035,47.1583147 106.546308,47 107.729922,47 L108.001295,47 C108.272668,47 108.507124,47.0975474 108.704339,47.2923225 C108.901554,47.4870975 109,47.7186527 109,47.9866682 L109,50.3981686 C109,50.6661841 108.901554,50.8977393 108.704339,51.0925144 C108.507124,51.2872894 108.272668,51.3848368 108.001295,51.3848368 L106.989961,51.3848368 Z" id="Fill-11"></path>
            <path d="M116.821808,65.0114532 C116.821808,65.2800661 116.72646,65.5118168 116.536076,65.707026 C116.345692,65.9022352 116.119357,66 115.857384,66 L113.142929,66 C112.881268,66 112.654933,65.9022352 112.464549,65.707026 C112.273853,65.5118168 112.178504,65.2800661 112.178504,65.0114532 L112.178504,47.9465191 C112.178504,47.6779061 112.273853,47.4458348 112.464549,47.2506257 C112.654933,47.055096 112.881268,46.9576517 113.142929,46.9576517 L115.857384,46.9576517 C116.119357,46.9576517 116.345692,47.055096 116.536076,47.2506257 C116.72646,47.4458348 116.821808,47.6779061 116.821808,47.9465191 L116.821808,65.0114532 Z M116.035888,40 C116.297862,40 116.524197,40.0974443 116.71458,40.292974 C116.905277,40.4881832 117,40.7202545 117,40.9888674 L117,43.8452036 C117,44.1138165 116.905277,44.3452468 116.71458,44.5407764 C116.524197,44.7359856 116.297862,44.8337504 116.035888,44.8337504 L112.964424,44.8337504 C112.702451,44.8337504 112.476429,44.7359856 112.285732,44.5407764 C112.095348,44.3452468 112,44.1138165 112,43.8452036 L112,40.9888674 C112,40.7202545 112.095348,40.4881832 112.285732,40.292974 C112.476429,40.0974443 112.702451,40 112.964424,40 L116.035888,40 Z" id="Fill-13"></path>
            <path d="M135.071342,56.7608442 C135.146757,56.0869481 135.146757,55.4127358 135.071342,54.7388397 C134.920841,53.1738961 134.419281,52.0486287 133.566333,51.3624052 C132.713714,50.6761817 131.672722,50.333228 130.443686,50.333228 C129.21465,50.333228 128.179915,50.6825034 127.339481,51.3807382 C126.499376,52.0786569 126.016588,53.0778059 125.891115,54.377553 C125.841058,54.7388397 125.816029,55.1962167 125.816029,55.75 C125.816029,56.3037833 125.841058,56.7608442 125.891115,57.1221309 C126.016588,58.374149 126.499376,59.3609706 127.339481,60.083228 C128.179915,60.8054853 129.21465,61.1664559 130.443686,61.1664559 C131.672722,61.1664559 132.713714,60.8235022 133.566333,60.1375948 C134.419281,59.4513713 134.920841,58.3257878 135.071342,56.7608442 M131.572278,65.4996839 C130.794745,65.4996839 130.098554,65.4276162 129.484036,65.2831648 C128.869848,65.1387133 128.330416,64.958228 127.866399,64.7413927 C127.402382,64.5245575 127.007522,64.2900214 126.681163,64.0374684 C126.355132,63.7845993 126.091673,63.5500632 125.891115,63.333228 L125.891115,71.0248736 C125.891115,71.2897539 125.790671,71.5182844 125.590113,71.7110971 C125.389555,71.9035937 125.151125,72 124.875481,72 L122.015964,72 C121.74032,72 121.501889,71.9035937 121.301331,71.7110971 C121.100444,71.5182844 121,71.2897539 121,71.0248736 L121,47.3360971 C121,47.0712167 121.100444,46.8423702 121.301331,46.6498736 C121.501889,46.4570609 121.74032,46.3609706 122.015964,46.3609706 L124.875481,46.3609706 C125.151125,46.3609706 125.389555,46.4570609 125.590113,46.6498736 C125.790671,46.8423702 125.891115,47.0712167 125.891115,47.3360971 L125.891115,48.166772 C126.091673,47.9499368 126.355132,47.7150846 126.681163,47.4625316 C127.007522,47.2096625 127.402382,46.9748103 127.866399,46.7579751 C128.330416,46.5414559 128.869848,46.3609706 129.484036,46.2168352 C130.098554,46.0723838 130.794745,46 131.572278,46 C132.826672,46 133.961521,46.2345361 134.977155,46.7042404 C135.993119,47.1736287 136.858581,47.7991636 137.573214,48.5817934 C138.288176,49.3644233 138.852307,50.2668498 139.266267,51.2900214 C139.680227,52.313509 139.912071,53.3787201 139.962457,54.4859706 C139.987486,54.8469413 140,55.2682844 140,55.75 C140,56.2313995 139.987486,56.6527427 139.962457,57.0137133 C139.912071,58.1212799 139.680227,59.186491 139.266267,60.2096625 C138.852307,61.232518 138.288176,62.1355767 137.573214,62.9178905 C136.858581,63.7002042 135.993119,64.3263713 134.977155,64.7957596 C133.961521,65.2651478 132.826672,65.4996839 131.572278,65.4996839" id="Fill-15"></path>
            <path d="M143,46.8733495 L143,40.9888674 C143,40.7202545 143.099213,40.4881832 143.297315,40.292974 C143.495091,40.0974443 143.730601,40 144.003194,40 L146.827685,40 C147.099953,40 147.335463,40.0974443 147.533889,40.292974 C147.731991,40.4881832 147.831204,40.7202545 147.831204,40.9888674 L147.831204,46.9576517 L152.625,46.9576517 C152.897593,46.9576517 153.132777,47.055096 153.331204,47.2506257 C153.529306,47.4458348 153.628519,47.6779061 153.628519,47.9465191 L153.628519,50.3633943 C153.628519,50.6320072 153.529306,50.863758 153.331204,51.0592877 C153.132777,51.2544968 152.897593,51.3522617 152.625,51.3522617 L147.831204,51.3522617 L147.831204,59.1154316 C147.831204,59.8725482 148.035161,60.4764464 148.44405,60.9284085 C148.852939,61.3800501 149.614768,61.6057106 150.729862,61.6057106 L152.996481,61.6057106 C153.269074,61.6057106 153.504584,61.7034754 153.702685,61.8986846 C153.901112,62.0938937 154,62.325965 154,62.5945779 L154,65.0114532 C154,65.2800661 153.901112,65.5114963 153.702685,65.707026 C153.504584,65.9022352 153.269074,66 152.996481,66 L150.246481,66 C147.917731,66 146.127661,65.4448239 144.876597,64.3338306 C143.625532,63.2231578 143,61.5201262 143,59.2253769 L143,46.8733495 Z" id="Fill-18"></path>
            <path d="M160.844772,47 C160.887048,47 160.923193,47.0151101 160.953851,47.0456518 C160.984509,47.075872 161,47.1125221 161,47.1539945 L161,47.3600707 C161,47.4018647 160.984509,47.4381932 160.953851,47.4687349 C160.923193,47.4992766 160.887048,47.5143868 160.844772,47.5143868 L159.772052,47.5143868 L159.772052,50.8460055 C159.772052,50.8881209 159.757207,50.924128 159.726549,50.9543482 C159.695891,50.9852114 159.659423,51 159.61747,51 L159.382207,51 C159.339931,51 159.303787,50.9852114 159.273128,50.9543482 C159.24247,50.924128 159.227302,50.8881209 159.227302,50.8460055 L159.227302,47.5143868 L158.154583,47.5143868 C158.112306,47.5143868 158.076162,47.4992766 158.045503,47.4687349 C158.014845,47.4381932 158,47.4018647 158,47.3600707 L158,47.1539945 C158,47.1125221 158.014845,47.075872 158.045503,47.0456518 C158.076162,47.0151101 158.112306,47 158.154583,47 L160.844772,47 Z" id="Fill-20"></path>
            <path d="M162.999638,49.417102 L164.298842,47.1832356 C164.32453,47.1369445 164.359986,47.0951539 164.40521,47.0572209 C164.449711,47.019288 164.509045,47 164.582127,47 L164.825977,47 C164.873372,47 164.913893,47.0151089 164.948263,47.0456482 C164.982272,47.0761874 165,47.1125131 165,47.1543036 L165,50.8456964 C165,50.8878084 164.982272,50.9238126 164.948263,50.9540304 C164.913893,50.9848911 164.873372,51 164.825977,51 L164.56259,51 C164.515195,51 164.474674,50.9848911 164.440304,50.9540304 C164.406295,50.9238126 164.389291,50.8878084 164.389291,50.8456964 L164.389291,48.1373463 L163.385673,49.8571888 C163.351664,49.9140882 163.314761,49.9594149 163.276773,49.9915615 C163.237699,50.0237081 163.186686,50.0397814 163.121925,50.0397814 L162.877713,50.0397814 C162.813314,50.0397814 162.762301,50.0237081 162.723227,49.9915615 C162.684515,49.9594149 162.648336,49.9140882 162.614327,49.8571888 L161.610709,48.1373463 L161.610709,50.8456964 C161.610709,50.8878084 161.593705,50.9238126 161.559696,50.9540304 C161.525326,50.9848911 161.484443,51 161.43741,51 L161.1733,51 C161.125904,51 161.085384,50.9848911 161.051013,50.9540304 C161.017004,50.9238126 161,50.8878084 161,50.8456964 L161,47.1543036 C161,47.1125131 161.017004,47.0761874 161.051013,47.0456482 C161.085384,47.0151089 161.125904,47 161.1733,47 L161.417873,47 C161.490955,47 161.549566,47.019288 161.59479,47.0572209 C161.639291,47.0951539 161.67547,47.1369445 161.700434,47.1832356 L162.999638,49.417102 Z" id="Fill-22"></path>
            <path d="M70.3056452,60.1109567 C70.3056452,59.8395425 70.2212212,59.6175644 70.0530031,59.4443762 C69.8844701,59.2718343 69.5896159,59.1109244 69.1687558,58.9626159 C68.7472656,58.8146305 68.1871688,58.666322 67.4894104,58.5183366 C66.7910219,58.3700281 65.9007893,58.1729297 64.8174524,57.9257488 C63.7577417,57.6792142 62.8794797,57.3703189 62.1814062,56.9997092 C61.4830178,56.6297457 60.923236,56.1980678 60.5023758,55.703383 C60.0812007,55.2099906 59.7860315,54.6480985 59.6178135,54.0186759 C59.4492804,53.3886071 59.3651714,52.7036092 59.3651714,51.9627129 C59.3651714,51.2221396 59.5330744,50.4941678 59.8704556,49.777828 C60.2072067,49.0621345 60.694535,48.4259265 61.3330706,47.8704966 C61.9706611,47.3147436 62.7468583,46.8646483 63.6619771,46.5185951 C64.5764659,46.172865 65.6238911,46 66.8033075,46 C67.982409,46 69.0358194,46.1360302 69.9629088,46.4074445 C70.8893682,46.679505 71.6778509,47.0371902 72.3280421,47.4814695 C72.9779182,47.9260719 73.4835174,48.4385279 73.8445247,49.0185143 C74.205532,49.5988239 74.4096617,50.1849494 74.4584891,50.7775372 C74.4821152,51.0495977 74.3917059,51.2841772 74.1872611,51.4815988 C73.9828163,51.6790203 73.7481301,51.7778927 73.4835174,51.7778927 L70.7031943,51.7778927 C70.341872,51.7778927 70.071274,51.7100391 69.8904553,51.5740089 C69.7099517,51.4386248 69.5114922,51.2841772 69.2947618,51.110989 C69.0783465,50.9384471 68.7894776,50.7843226 68.4281553,50.6482924 C68.0674631,50.5129083 67.5256371,50.4444085 66.8033075,50.4444085 C66.081293,50.4444085 65.4430724,50.5555591 64.8895909,50.7775372 C64.3354794,51.0001616 64.0592111,51.3950047 64.0592111,51.9627129 C64.0592111,52.2347733 64.1250493,52.4628906 64.2576706,52.6480339 C64.389977,52.8335003 64.6423041,52.9999031 65.0159119,53.1482116 C65.3892048,53.296197 65.9061446,53.4509677 66.5689363,53.6112314 C67.230468,53.7718182 68.0907742,53.9631006 69.1504849,54.1850787 C71.2925875,54.6542376 72.8030848,55.3889948 73.6819769,56.388704 C74.560554,57.3887363 75,58.6294872 75,60.1109567 C75,60.8515299 74.8194964,61.5736857 74.4584891,62.2774241 C74.0971668,62.9811626 73.5736117,63.6109083 72.8875089,64.1666613 C72.201721,64.7220912 71.3587407,65.1663705 70.3601428,65.4998223 C69.360915,65.832951 68.2353661,66 66.9841262,66 C65.7076851,66 64.5824512,65.8452292 63.6074795,65.5366571 C62.6328228,65.228408 61.8077983,64.8274258 61.1346111,64.3330641 C60.4601638,63.8393486 59.942909,63.2839187 59.5815867,62.6664513 C59.2208945,62.04963 59.0277902,61.4444409 59.0038491,60.8515299 C58.9795929,60.5801157 59.0700022,60.3458593 59.274447,60.1477915 C59.4792068,59.9506931 59.7138931,59.8514976 59.9788208,59.8514976 L62.7594589,59.8514976 C63.1201512,59.8514976 63.3910641,59.9384148 63.5715678,60.1109567 C63.7520714,60.2838218 63.9565162,60.4812433 64.1855322,60.7035445 C64.4142331,60.9255226 64.7327134,61.1235904 65.142233,61.2961323 C65.5514376,61.4689974 66.165087,61.5555915 66.9841262,61.5555915 C67.3451335,61.5555915 67.7177963,61.531358 68.1033748,61.4812756 C68.4880082,61.4321626 68.8433452,61.3517076 69.1687558,61.240557 C69.4935363,61.1294064 69.7641343,60.9810979 69.9808647,60.7959546 C70.19728,60.6111344 70.3056452,60.3830172 70.3056452,60.1109567" id="Fill-25"></path>
            <path d="M91.5703406,11.1981105 C91.5670902,11.2234874 91.5635147,11.2552085 91.5635147,11.2805854 C91.5410869,11.6929599 90.907256,20.9079437 79.2090141,25.0634097 C79.2025133,25.0665818 79.1992629,25.0665818 79.192762,25.0694367 L79.192762,19.382158 L79.2090141,19.3662975 L86.2721649,11.9372124 C86.9092462,11.2678969 86.8702412,10.217928 86.1811533,9.59302207 C85.4920654,8.97097102 84.4161782,9.00935356 83.7758465,9.68184119 L79.2090141,14.4875901 L79.192762,14.5034506 L79.192762,9.55178462 C79.1992629,9.53909618 79.2025133,9.52957984 79.2090141,9.5168914 C79.7745862,8.28611215 82.4821816,3.3185856 89.1780355,3.3185856 C89.2430438,3.3185856 89.3080521,3.3185856 89.3730604,3.32175771 C91.9928945,6.38284527 91.573591,11.1505288 91.5703406,11.1981105 Z M75.8058301,14.5034506 L75.7928284,14.4875901 L71.2227456,9.68184119 C70.5856643,9.00935356 69.5065267,8.96811612 68.8206892,9.59302207 C68.1316014,10.217928 68.089346,11.2678969 68.7293526,11.9372124 L75.7928284,19.3662975 L75.8058301,19.3789859 L75.8058301,25.0694367 C75.8025797,25.0694367 75.7960788,25.0665818 75.7928284,25.0665818 C64.0913361,20.9111158 63.4575052,11.6929599 63.4380028,11.2869296 C63.4347523,11.2583806 63.4315019,11.2266595 63.4315019,11.1981105 C63.4250011,11.1473567 62.9861951,6.40187794 65.6255317,3.32175771 C65.6937904,3.3185856 65.7620492,3.3185856 65.8303079,3.3185856 C72.5521651,3.3185856 75.2240059,8.27342371 75.7928284,9.52323562 C75.7960788,9.53275196 75.8025797,9.54226829 75.8058301,9.55178462 L75.8058301,14.5034506 Z M91.3493124,0.51761118 C91.0567751,0.232121148 90.6667254,0.0576550178 90.2539227,0.0322781261 C83.8473557,-0.351547361 79.7030771,2.80787566 77.5025465,5.7801441 C75.2987654,2.80787566 71.1544869,-0.354719472 64.7475948,0.0322781261 C64.3318668,0.0576550178 63.941817,0.232121148 63.6492797,0.51761118 C59.5342549,4.53350429 59.9860625,10.8618667 60.0413196,11.4804284 C60.0673229,11.9308682 60.3338569,15.0490538 62.4271238,18.6271955 C64.4326296,22.0559308 68.5704073,26.6145722 76.9207223,28.9016645 C76.9629777,28.914353 77.0084835,28.9270414 77.0539893,28.9397299 L77.0572397,28.9397299 C77.0897438,28.9492462 77.1189976,28.9552732 77.1515017,28.9619347 C77.1937571,28.971451 77.2360125,28.9777952 77.2815183,28.9841394 C77.3562778,28.9968279 77.4310374,29 77.5054719,29 C77.577306,29 77.6488151,28.9968279 77.7203243,28.9841394 C77.7593292,28.9777952 77.7983342,28.971451 77.8373392,28.9651068 C77.8730937,28.9587626 77.9088483,28.9492462 77.9446029,28.9397299 C77.993034,28.9270414 78.0421153,28.914353 78.0908715,28.8984924 C93.5238398,24.6605515 94.8630105,12.6414212 94.9540222,11.5153216 C94.9930271,11.1473567 95.5585993,4.62549552 91.3493124,0.51761118 Z" id="Fill-29"></path>
        </g>
    </g>
</svg>