<?xml version="1.0" encoding="UTF-8"?>
<svg width="383px" height="100px" viewBox="0 0 383 100" version="1.1" xmlns="http://www.w3.org/2000/svg" xmlns:xlink="http://www.w3.org/1999/xlink">
    <!-- Generator: Sketch 48.2 (47327) - http://www.bohemiancoding.com/sketch -->
    <title>Page 1</title>
    <desc>Created with Sketch.</desc>
    <defs></defs>
    <g id="06" stroke="none" stroke-width="1" fill="none" fill-rule="evenodd" transform="translate(-757.000000, -346.000000)">
        <g id="Page-1" transform="translate(757.000000, 346.000000)">
            <polygon id="Fill-1" fill="#88B04B" points="0 100 382.980685 100 382.980685 0 0 0"></polygon>
            <g id="Group-32" transform="translate(40.985240, 27.476228)" fill="#FFFFFF">
                <path d="M91.8496656,2.42738233 C92.2444429,2.42738233 92.5855155,2.5706614 92.8724122,2.85674977 C93.1593089,3.14283814 93.3025216,3.48294977 93.3025216,3.87661488 L93.3025216,7.6868986 C93.3025216,8.08056372 93.1593089,8.42067535 92.8724122,8.70676372 C92.5855155,8.99332186 92.2444429,9.13613116 91.8496656,9.13613116 L74.6810899,9.13613116 L74.6810899,20.0845312 L90.7732141,20.0845312 C91.1679915,20.0845312 91.508593,20.2273405 91.7959608,20.5134288 C92.0828574,20.7995172 92.2265413,21.1396288 92.2265413,21.533294 L92.2265413,25.3435777 C92.2265413,25.7372428 92.0828574,26.0773544 91.7959608,26.3634428 C91.508593,26.6500009 91.1679915,26.7928102 90.7732141,26.7928102 L74.6810899,26.7928102 L74.6810899,39.082866 C74.6810899,39.4765312 74.537406,39.816173 74.2505093,40.1022614 C73.9636127,40.3888195 73.6225401,40.5316288 73.2282338,40.5316288 L68.8687234,40.5316288 C68.473946,40.5316288 68.1328734,40.3888195 67.8459768,40.1022614 C67.5590801,39.816173 67.4153962,39.4765312 67.4153962,39.082866 L67.4153962,3.87661488 C67.4153962,3.48294977 67.5590801,3.14283814 67.8459768,2.85674977 C68.1328734,2.5706614 68.473946,2.42738233 68.8687234,2.42738233 L91.8496656,2.42738233 Z" id="Fill-2"></path>
                <path d="M98.2811919,14.073387 C98.2811919,13.6797219 98.4248758,13.3396102 98.7117724,13.0535219 C98.9986691,12.7674335 99.3397417,12.6241544 99.734048,12.6241544 L103.824563,12.6241544 C104.219341,12.6241544 104.559942,12.7674335 104.84731,13.0535219 C105.134207,13.3396102 105.277891,13.6797219 105.277891,14.073387 L105.277891,27.7055684 C105.277891,29.8519358 105.735323,31.5694056 106.650189,32.8570381 C107.565055,34.1456102 109.063137,34.7896614 111.143962,34.7896614 C113.045771,34.7896614 114.498627,34.1456102 115.503472,32.8570381 C116.507846,31.5694056 117.010504,29.8519358 117.010504,27.7055684 L117.010504,14.073387 C117.010504,13.6797219 117.154188,13.3396102 117.441085,13.0535219 C117.727982,12.7674335 118.068583,12.6241544 118.46336,12.6241544 L122.553876,12.6241544 C122.948653,12.6241544 123.289255,12.7674335 123.576622,13.0535219 C123.863519,13.3396102 124.006732,13.6797219 124.006732,14.073387 L124.006732,39.082866 C124.006732,39.4765312 123.863519,39.816173 123.576622,40.1022614 C123.289255,40.3888195 122.948653,40.5316288 122.553876,40.5316288 L118.46336,40.5316288 C118.068583,40.5316288 117.727982,40.3888195 117.441085,40.1022614 C117.154188,39.816173 117.010504,39.4765312 117.010504,39.082866 L117.010504,37.8483172 C116.185146,38.6713498 115.1624,39.4135823 113.942736,40.0759544 C112.7226,40.7378567 111.251843,41.068573 109.52952,41.068573 C107.340814,41.068573 105.528984,40.7284614 104.093558,40.0487079 C102.658604,39.3694242 101.510075,38.456666 100.648914,37.3118428 C99.7882239,36.1665498 99.1781562,34.8338195 98.819182,33.3136521 C98.460679,31.7930149 98.2811919,30.1920474 98.2811919,28.5098102 L98.2811919,14.073387 Z" id="Fill-4"></path>
                <path d="M136.858996,39.083007 C136.858996,39.4766721 136.715784,39.816314 136.428416,40.1024023 C136.141519,40.3884907 135.800447,40.5317698 135.40614,40.5317698 L131.315625,40.5317698 C130.921319,40.5317698 130.580246,40.3884907 130.292878,40.1024023 C130.005982,39.816314 129.862298,39.4766721 129.862298,39.083007 L129.862298,3.87675581 C129.862298,3.4830907 130.005982,3.14297907 130.292878,2.8568907 C130.580246,2.57033256 130.921319,2.42752326 131.315625,2.42752326 L135.40614,2.42752326 C135.800447,2.42752326 136.141519,2.57033256 136.428416,2.8568907 C136.715784,3.14297907 136.858996,3.4830907 136.858996,3.87675581 L136.858996,39.083007 Z" id="Fill-6"></path>
                <path d="M149.821215,39.083007 C149.821215,39.4766721 149.677531,39.816314 149.390634,40.1024023 C149.103737,40.3884907 148.762665,40.5317698 148.368358,40.5317698 L144.277843,40.5317698 C143.883066,40.5317698 143.541993,40.3884907 143.255096,40.1024023 C142.9682,39.816314 142.824516,39.4766721 142.824516,39.083007 L142.824516,3.87675581 C142.824516,3.4830907 142.9682,3.14297907 143.255096,2.8568907 C143.541993,2.57033256 143.883066,2.42752326 144.277843,2.42752326 L148.368358,2.42752326 C148.762665,2.42752326 149.103737,2.57033256 149.390634,2.8568907 C149.677531,3.14297907 149.821215,3.4830907 149.821215,3.87675581 L149.821215,39.083007 Z" id="Fill-8"></path>
                <path d="M188.006597,24.6995735 C187.934991,25.2365177 187.898716,25.8627177 187.898716,26.5781735 C187.898716,27.2936293 187.934991,27.9198293 188.006597,28.4563037 C188.114478,29.5654247 188.365571,30.5138851 188.759878,31.3012153 C189.154655,32.0880758 189.647891,32.7232014 190.240057,33.2061223 C190.831752,33.689513 191.487045,34.0465363 192.204522,34.2795409 C192.921999,34.5120758 193.657378,34.6285781 194.41113,34.6285781 C195.308094,34.6285781 196.061846,34.5567037 196.671442,34.4138944 C197.281039,34.2706153 197.801598,34.0648572 198.232179,33.7961502 C198.66276,33.5283828 199.030213,33.2239735 199.335483,32.8843316 C199.640281,32.54422 199.9366,32.1594805 200.223496,31.7305828 C200.438787,31.4083223 200.68988,31.0865316 200.976777,30.7642712 C201.264145,30.4424805 201.604746,30.2813502 201.999523,30.2813502 L206.090039,30.2813502 C206.484816,30.2813502 206.834368,30.4246293 207.139167,30.7107177 C207.444436,30.996806 207.579169,31.3369177 207.543366,31.7305828 C207.507563,32.4812712 207.238097,33.3940293 206.73591,34.4674479 C206.233252,35.5408665 205.453119,36.5696572 204.394569,37.5533502 C203.336019,38.5370433 201.981622,39.3694712 200.330906,40.0487549 C198.680661,40.7285084 196.707245,41.06862 194.41113,41.06862 C192.437243,41.06862 190.661687,40.7379037 189.082577,40.0755316 C187.50441,39.4136293 186.132111,38.5191921 184.965681,37.3926898 C183.79925,36.2652479 182.884384,34.9592944 182.221083,33.4748293 C181.557311,31.9898944 181.153111,30.4246293 181.009427,28.7785642 C180.937821,28.134513 180.902018,27.4190572 180.902018,26.631727 C180.902018,25.8448665 180.937821,25.1110898 181.009427,24.4313363 C181.117308,22.7857409 181.512085,21.2110805 182.19376,19.7087642 C182.875434,18.2059781 183.790771,16.8910991 184.938357,15.764127 C186.086886,14.6366851 187.459185,13.7427177 189.056196,13.0808153 C190.652265,12.4184433 192.437243,12.087727 194.41113,12.087727 C196.707245,12.087727 198.680661,12.4278386 200.330906,13.1071223 C201.981622,13.7873456 203.336019,14.618834 204.394569,15.6029967 C205.453119,16.5866898 206.233252,17.6154805 206.73591,18.6888991 C207.238097,19.7623177 207.507563,20.674606 207.543366,21.4257642 C207.579169,21.8194293 207.444436,22.1595409 207.139167,22.4456293 C206.834368,22.7321874 206.484816,22.8749967 206.090039,22.8749967 L201.999523,22.8749967 C201.604746,22.8749967 201.264145,22.7138665 200.976777,22.3920758 C200.68988,22.0698153 200.438787,21.7480247 200.223496,21.4257642 C199.9366,20.9963967 199.640281,20.612127 199.335483,20.2720153 C199.030213,19.9323735 198.66276,19.6279642 198.232179,19.359727 C197.801598,19.0914898 197.281039,18.8857316 196.671442,18.7424526 C196.061846,18.5996433 195.308094,18.5277688 194.41113,18.5277688 C193.657378,18.5277688 192.921999,18.6438014 192.204522,18.8763363 C191.487045,19.1093409 190.831752,19.466834 190.240057,19.9502247 C189.647891,20.4331456 189.154655,21.0682712 188.759878,21.8551316 C188.365571,22.6424619 188.114478,23.5909223 188.006597,24.6995735" id="Fill-10"></path>
                <path d="M225.046419,19.064666 C222.893987,19.064666 221.342201,19.5386614 220.391061,20.4866521 C219.440392,21.4351126 218.965057,22.9825265 218.965057,25.128894 L218.965057,39.082866 C218.965057,39.4765312 218.821373,39.816173 218.534477,40.1022614 C218.247109,40.3888195 217.906507,40.5316288 217.51173,40.5316288 L213.421215,40.5316288 C213.026437,40.5316288 212.686307,40.3888195 212.398939,40.1022614 C212.112042,39.816173 211.968359,39.4765312 211.968359,39.082866 L211.968359,14.073387 C211.968359,13.6797219 212.112042,13.3396102 212.398939,13.0535219 C212.686307,12.7674335 213.026437,12.6241544 213.421215,12.6241544 L217.51173,12.6241544 C217.906507,12.6241544 218.247109,12.7674335 218.534477,13.0535219 C218.821373,13.3396102 218.965057,13.6797219 218.965057,14.073387 L218.965057,15.3079358 C219.897825,14.4492009 220.893719,13.7872986 221.952269,13.3217591 C223.010347,12.8566893 224.401019,12.6241544 226.12287,12.6241544 L226.517648,12.6241544 C226.912425,12.6241544 227.253498,12.7674335 227.540394,13.0535219 C227.827291,13.3396102 227.970504,13.6797219 227.970504,14.073387 L227.970504,17.6154335 C227.970504,18.0090986 227.827291,18.3492102 227.540394,18.6352986 C227.253498,18.921387 226.912425,19.064666 226.517648,19.064666 L225.046419,19.064666 Z" id="Fill-12"></path>
                <path d="M239.837144,39.083007 C239.837144,39.4766721 239.69346,39.816314 239.406563,40.1024023 C239.119667,40.3884907 238.778594,40.5317698 238.383817,40.5317698 L234.293301,40.5317698 C233.898995,40.5317698 233.557923,40.3884907 233.271026,40.1024023 C232.983658,39.816314 232.839974,39.4766721 232.839974,39.083007 L232.839974,14.0735279 C232.839974,13.6798628 232.983658,13.3397512 233.271026,13.0536628 C233.557923,12.7671047 233.898995,12.6242953 234.293301,12.6242953 L238.383817,12.6242953 C238.778594,12.6242953 239.119667,12.7671047 239.406563,13.0536628 C239.69346,13.3397512 239.837144,13.6798628 239.837144,14.0735279 L239.837144,39.083007 Z M238.652812,2.42752326 C239.047589,2.42752326 239.388662,2.57033256 239.675558,2.8568907 C239.962926,3.14297907 240.105668,3.4830907 240.105668,3.87675581 L240.105668,8.06285349 C240.105668,8.4565186 239.962926,8.7956907 239.675558,9.08224884 C239.388662,9.36833721 239.047589,9.51161628 238.652812,9.51161628 L234.024306,9.51161628 C233.629529,9.51161628 233.288927,9.36833721 233.00156,9.08224884 C232.714663,8.7956907 232.570979,8.4565186 232.570979,8.06285349 L232.570979,3.87675581 C232.570979,3.4830907 232.714663,3.14297907 233.00156,2.8568907 C233.288927,2.57033256 233.629529,2.42752326 234.024306,2.42752326 L238.652812,2.42752326 Z" id="Fill-14"></path>
                <path d="M265.866022,28.0806307 C265.973902,27.0790865 265.973902,26.0770726 265.866022,25.0755284 C265.650731,22.7497098 264.933254,21.0773377 263.713119,20.0574726 C262.493455,19.0376074 261.004324,18.5279098 259.246199,18.5279098 C257.488073,18.5279098 256.007894,19.0470028 254.80566,20.0847191 C253.603898,21.1219656 252.913273,22.6069005 252.733786,24.5385842 C252.662179,25.0755284 252.626376,25.7552819 252.626376,26.5783144 C252.626376,27.401347 252.662179,28.0806307 252.733786,28.6175749 C252.913273,30.4783237 253.603898,31.9449377 254.80566,33.0183563 C256.007894,34.0917749 257.488073,34.6282493 259.246199,34.6282493 C261.004324,34.6282493 262.493455,34.1185516 263.713119,33.0991563 C264.933254,32.0792912 265.650731,30.4064493 265.866022,28.0806307 M260.86064,41.0682912 C259.748386,41.0682912 258.752492,40.9611842 257.873429,40.7465005 C256.994837,40.5318167 256.223184,40.2635795 255.559412,39.9413191 C254.895639,39.6190586 254.330797,39.2704912 253.863942,38.895147 C253.397558,38.519333 253.020682,38.1707656 252.733786,37.8485051 L252.733786,49.279826 C252.733786,49.6734912 252.590102,50.013133 252.303205,50.2996912 C252.016308,50.5857795 251.675236,50.7290586 251.28093,50.7290586 L247.190414,50.7290586 C246.796108,50.7290586 246.455035,50.5857795 246.168139,50.2996912 C245.880771,50.013133 245.737087,49.6734912 245.737087,49.279826 L245.737087,14.0735749 C245.737087,13.6799098 245.880771,13.3397981 246.168139,13.0537098 C246.455035,12.7671516 246.796108,12.6243423 247.190414,12.6243423 L251.28093,12.6243423 C251.675236,12.6243423 252.016308,12.7671516 252.303205,13.0537098 C252.590102,13.3397981 252.733786,13.6799098 252.733786,14.0735749 L252.733786,15.3081237 C253.020682,14.9858633 253.397558,14.636826 253.863942,14.2614819 C254.330797,13.8856679 254.895639,13.5366307 255.559412,13.2143702 C256.223184,12.8925795 256.994837,12.6243423 257.873429,12.4101284 C258.752492,12.1954447 259.748386,12.0878679 260.86064,12.0878679 C262.65504,12.0878679 264.278433,12.4364353 265.731289,13.1345098 C267.184616,13.8321144 268.422653,14.7617842 269.444928,15.9249284 C270.467675,17.0880726 271.27466,18.4292586 271.866826,19.9498958 C272.458992,21.4710028 272.790643,23.0541191 272.86272,24.6997144 C272.898524,25.2361888 272.916425,25.8623888 272.916425,26.5783144 C272.916425,27.2937702 272.898524,27.9199702 272.86272,28.4564447 C272.790643,30.1025098 272.458992,31.685626 271.866826,33.2062633 C271.27466,34.7264307 270.467675,36.0685563 269.444928,37.2312307 C268.422653,38.3939051 267.184616,39.3245144 265.731289,40.0221191 C264.278433,40.7197237 262.65504,41.0682912 260.86064,41.0682912" id="Fill-16"></path>
                <path d="M277.647535,12.5007465 L277.647535,3.87675581 C277.647535,3.4830907 277.791219,3.14297907 278.078116,2.8568907 C278.364541,2.57033256 278.705614,2.42752326 279.100391,2.42752326 L283.190907,2.42752326 C283.585213,2.42752326 283.926285,2.57033256 284.213653,2.8568907 C284.50055,3.14297907 284.644234,3.4830907 284.644234,3.87675581 L284.644234,12.6242953 L291.586757,12.6242953 C291.981534,12.6242953 292.322135,12.7671047 292.609503,13.0536628 C292.8964,13.3397512 293.040084,13.6798628 293.040084,14.0735279 L293.040084,17.6155744 C293.040084,18.0092395 292.8964,18.3488814 292.609503,18.6354395 C292.322135,18.9215279 291.981534,19.064807 291.586757,19.064807 L284.644234,19.064807 L284.644234,30.4421047 C284.644234,31.5516953 284.93961,32.4367372 285.531776,33.0991093 C286.123942,33.7610116 287.227246,34.0917279 288.842159,34.0917279 L292.124747,34.0917279 C292.519524,34.0917279 292.860597,34.235007 293.147493,34.5210953 C293.434861,34.8071837 293.578074,35.1472953 293.578074,35.5409605 L293.578074,39.083007 C293.578074,39.4766721 293.434861,39.8158442 293.147493,40.1024023 C292.860597,40.3884907 292.519524,40.5317698 292.124747,40.5317698 L288.142112,40.5317698 C284.769545,40.5317698 282.177111,39.7181326 280.365281,38.0899186 C278.55345,36.4621744 277.647535,33.9663 277.647535,30.6032349 L277.647535,12.5007465 Z" id="Fill-18"></path>
                <path d="M303.036949,12.7718963 C303.098662,12.7718963 303.151425,12.7939753 303.196179,12.8386033 C303.240933,12.8827614 303.263546,12.9363149 303.263546,12.9969149 L303.263546,13.2980358 C303.263546,13.3591056 303.240933,13.4121893 303.196179,13.4568172 C303.151425,13.5014451 303.098662,13.5235242 303.036949,13.5235242 L301.47103,13.5235242 L301.47103,18.3917242 C301.47103,18.4532637 301.44936,18.5058777 301.404606,18.5500358 C301.359852,18.5951335 301.306618,18.6167428 301.245376,18.6167428 L300.901948,18.6167428 C300.840234,18.6167428 300.787472,18.5951335 300.742718,18.5500358 C300.697964,18.5058777 300.675822,18.4532637 300.675822,18.3917242 L300.675822,13.5235242 L299.109904,13.5235242 C299.04819,13.5235242 298.995428,13.5014451 298.950674,13.4568172 C298.90592,13.4121893 298.884249,13.3591056 298.884249,13.2980358 L298.884249,12.9969149 C298.884249,12.9363149 298.90592,12.8827614 298.950674,12.8386033 C298.995428,12.7939753 299.04819,12.7718963 299.109904,12.7718963 L303.036949,12.7718963 Z" id="Fill-20"></path>
                <path d="M306.779938,16.3038428 L308.471639,13.0394288 C308.505087,12.9717823 308.551254,12.9107126 308.610141,12.85528 C308.668085,12.7998474 308.745345,12.7716614 308.840506,12.7716614 L309.158024,12.7716614 C309.219737,12.7716614 309.2725,12.7937405 309.317254,12.8383684 C309.361537,12.8829963 309.384621,12.93608 309.384621,12.9971498 L309.384621,18.3914893 C309.384621,18.4530288 309.361537,18.5056428 309.317254,18.5498009 C309.2725,18.5948986 309.219737,18.6169777 309.158024,18.6169777 L308.815067,18.6169777 C308.753354,18.6169777 308.700591,18.5948986 308.655837,18.5498009 C308.611554,18.5056428 308.589413,18.4530288 308.589413,18.3914893 L308.589413,14.4336986 L307.282596,16.9469544 C307.238313,17.0301033 307.190261,17.0963405 307.140796,17.1433172 C307.089918,17.190294 307.023494,17.2137823 306.939168,17.2137823 L306.621179,17.2137823 C306.537324,17.2137823 306.4709,17.190294 306.420022,17.1433172 C306.369614,17.0963405 306.322505,17.0301033 306.278222,16.9469544 L304.971405,14.4336986 L304.971405,18.3914893 C304.971405,18.4530288 304.949264,18.5056428 304.904981,18.5498009 C304.860227,18.5948986 304.806993,18.6169777 304.745751,18.6169777 L304.401852,18.6169777 C304.340138,18.6169777 304.287376,18.5948986 304.242622,18.5498009 C304.198339,18.5056428 304.176197,18.4530288 304.176197,18.3914893 L304.176197,12.9971498 C304.176197,12.93608 304.198339,12.8829963 304.242622,12.8383684 C304.287376,12.7937405 304.340138,12.7716614 304.401852,12.7716614 L304.720312,12.7716614 C304.815473,12.7716614 304.89179,12.7998474 304.950677,12.85528 C305.008622,12.9107126 305.055731,12.9717823 305.088237,13.0394288 L306.779938,16.3038428 Z" id="Fill-22"></path>
                <path d="M170.752282,32.5612726 C170.752282,32.1666679 170.626029,31.8439377 170.374464,31.5921423 C170.122429,31.3412865 169.681484,31.1073423 169.052101,30.8917191 C168.421777,30.6765656 167.58417,30.4609423 166.540696,30.2457888 C165.496279,30.0301656 164.164965,29.7436074 162.54487,29.3842353 C160.960108,29.0258028 159.646696,28.5767051 158.60275,28.0378819 C157.558333,27.4999981 156.721197,26.8723888 156.091815,26.1531749 C155.461961,25.43584 155.020546,24.6189144 154.768981,23.7038074 C154.516945,22.7877609 154.391163,21.791854 154.391163,20.7146772 C154.391163,19.6379702 154.642256,18.5795842 155.146799,17.5381098 C155.650399,16.4975749 156.379183,15.5726028 157.334092,14.7650726 C158.287587,13.9570726 159.448365,13.3026865 160.816895,12.7995656 C162.184483,12.2969144 163.750873,12.0455888 165.514651,12.0455888 C167.277959,12.0455888 168.8533,12.2433609 170.239731,12.6379656 C171.625221,13.0335098 172.804371,13.5535423 173.77671,14.1994726 C174.748579,14.8458726 175.504686,15.5909237 176.04456,16.4341563 C176.584435,17.2778586 176.889704,18.1300167 176.962724,18.9915702 C176.998056,19.3871144 176.862852,19.7281656 176.557111,20.0151935 C176.251371,20.3022214 175.900405,20.4459702 175.504686,20.4459702 L171.346804,20.4459702 C170.806458,20.4459702 170.401788,20.3473191 170.131379,20.149547 C169.861442,19.9527144 169.564653,19.7281656 169.240539,19.4763702 C168.916897,19.2255144 168.484903,19.0014353 167.944558,18.8036633 C167.405154,18.6068307 166.594871,18.50724 165.514651,18.50724 C164.434902,18.50724 163.480464,18.66884 162.652751,18.9915702 C161.824095,19.31524 161.410945,19.8892958 161.410945,20.7146772 C161.410945,21.1102214 161.509404,21.4418772 161.707735,21.711054 C161.905595,21.9807005 162.282942,22.2226307 162.84166,22.438254 C163.399907,22.6534074 164.172974,22.878426 165.164157,23.1114307 C166.153456,23.3449051 167.440015,23.6230074 169.024778,23.9457377 C172.228222,24.62784 174.487121,25.6960912 175.801475,27.1495516 C177.115359,28.6034819 177.772536,30.4073888 177.772536,32.5612726 C177.772536,33.6379795 177.502598,34.6879098 176.962724,35.7110633 C176.422378,36.7342167 175.639419,37.6497935 174.613375,38.4577935 C173.587801,39.2653237 172.327152,39.911254 170.833782,40.396054 C169.339469,40.8803842 167.656248,41.123254 165.78506,41.123254 C163.876184,41.123254 162.193434,40.8982353 160.735395,40.4496074 C159.277828,40.0014493 158.044031,39.4184679 157.037302,38.6997237 C156.028688,37.9819191 155.255151,37.1743888 154.714805,36.2766633 C154.175402,35.3798772 153.886621,34.5000028 153.850817,33.6379795 C153.814543,33.2433749 153.949747,32.9027935 154.255488,32.614826 C154.561699,32.3282679 154.912665,32.1840493 155.308855,32.1840493 L159.467208,32.1840493 C160.006612,32.1840493 160.411753,32.3104167 160.681691,32.5612726 C160.951628,32.8125981 161.257368,33.099626 161.599854,33.422826 C161.941869,33.7455563 162.418146,34.0335237 163.030569,34.2843795 C163.642521,34.5357051 164.560213,34.6616028 165.78506,34.6616028 C166.324934,34.6616028 166.882239,34.6263702 167.458859,34.5535563 C168.034066,34.4821516 168.565461,34.3651795 169.052101,34.2035795 C169.5378,34.0419795 169.94247,33.8263563 170.266584,33.5571795 C170.590226,33.2884726 170.752282,32.9568167 170.752282,32.5612726" id="Fill-24"></path>
                <path d="M45.992694,17.000226 C45.987983,17.0378074 45.982801,17.0847842 45.982801,17.1223656 C45.9502954,17.7330633 45.0316608,31.3798074 28.0769621,37.5337609 C28.0675402,37.5384586 28.0628293,37.5384586 28.0534074,37.5426865 L28.0534074,29.120226 L28.0769621,29.0967377 L38.3138502,18.0947842 C39.2371958,17.1035749 39.1806645,15.5486447 38.1819437,14.6232028 C37.1832229,13.7019888 35.6238994,13.7588307 34.6958428,14.7547377 L28.0769621,21.8717144 L28.0534074,21.8952028 L28.0534074,14.562133 C28.0628293,14.5433423 28.0675402,14.5292493 28.0769621,14.5104586 C28.8966669,12.6877609 32.8208859,5.33120279 42.5254369,5.33120279 C42.6196558,5.33120279 42.7138748,5.33120279 42.8080937,5.33590047 C46.6051171,9.86915628 45.9974049,16.9297609 45.992694,17.000226 Z M23.1446005,21.8952028 L23.1257567,21.8717144 L16.5021651,14.7547377 C15.5788194,13.7588307 14.014785,13.6977609 13.0207752,14.6232028 C12.0220544,15.5486447 11.9608121,17.1035749 12.8883975,18.0947842 L23.1257567,29.0967377 L23.1446005,29.1155284 L23.1446005,37.5426865 C23.1398895,37.5426865 23.1304677,37.5384586 23.1257567,37.5384586 C6.16634711,31.3845051 5.24771242,17.7330633 5.21944674,17.1317609 C5.21473579,17.0894819 5.21002485,17.0425051 5.21002485,17.000226 C5.20060295,16.9250633 4.56462509,9.89734233 8.38991415,5.33590047 C8.48884403,5.33120279 8.58777392,5.33120279 8.68670381,5.33120279 C18.4289424,5.33120279 22.301341,12.6689702 23.1257567,14.519854 C23.1304677,14.533947 23.1398895,14.54804 23.1446005,14.562133 L23.1446005,21.8952028 Z M45.6723496,1.18315628 C45.2483643,0.760365581 44.6830507,0.501993488 44.0847604,0.464412093 C34.7994836,-0.104006512 28.7930261,4.57487721 25.6037149,8.97659814 C22.4096927,4.57487721 16.4032352,-0.108704186 7.11748733,0.464412093 C6.5149572,0.501993488 5.94964354,0.760365581 5.5256583,1.18315628 C-0.438400738,7.13041209 0.21642091,16.5022726 0.296507011,17.4183191 C0.334194588,18.0853888 0.720492251,22.7032028 3.75434219,28.0021795 C6.66099656,33.0798958 12.6580322,39.8309237 24.7604554,43.217947 C24.8216977,43.2367377 24.8876509,43.2555284 24.9536042,43.2743191 L24.9583151,43.2743191 C25.0054246,43.2884121 25.0478231,43.2973377 25.0949326,43.3072028 C25.1561749,43.3212958 25.2174172,43.3306912 25.2833705,43.3400865 C25.3917223,43.3588772 25.500074,43.3635749 25.6079547,43.3635749 C25.7120667,43.3635749 25.8157075,43.3588772 25.9193483,43.3400865 C25.9758797,43.3306912 26.0324111,43.3212958 26.0889424,43.3119005 C26.1407629,43.3025051 26.1925833,43.2884121 26.2444037,43.2743191 C26.3145968,43.2555284 26.3857321,43.2367377 26.4563963,43.2132493 C48.8239732,36.9371563 50.7648834,19.1376679 50.8967899,17.4699935 C50.9533213,16.9250633 51.7730261,7.26664465 45.6723496,1.18315628 Z" id="Fill-28"></path>
                <path d="M26.0889424,43.3118065 C26.1407629,43.3024112 26.1925833,43.2883181 26.2444037,43.2742251 C26.3145968,43.2554344 26.3857321,43.2366437 26.4563963,43.2131553 C26.3339117,43.2606019 26.2114271,43.2930158 26.0889424,43.3118065 Z M28.0534074,29.1201321 L28.0534074,37.5430623 C28.0628293,37.5383647 28.0675402,37.5383647 28.0769621,37.533667 L28.0769621,29.0966437 L28.0534074,29.1201321 Z M28.0534074,14.5620391 L28.0534074,21.8951088 L28.0769621,21.8716205 L28.0769621,14.5103647 C28.0675402,14.5291553 28.0628293,14.5432484 28.0534074,14.5620391 Z" id="Fill-30"></path>
            </g>
        </g>
    </g>
</svg>