<?xml version="1.0" encoding="utf-8"?>
<!-- Generator: Adobe Illustrator 22.0.1, SVG Export Plug-In . SVG Version: 6.00 Build 0)  -->
<svg version="1.1" id="Layer_1" xmlns="http://www.w3.org/2000/svg" xmlns:xlink="http://www.w3.org/1999/xlink" x="0px" y="0px"
	 viewBox="0 0 309 51" style="enable-background:new 0 0 309 51;" xml:space="preserve">
<style type="text/css">
	.st0{fill:#88B04B;}
	.st1{fill:#FFFFFF;}
</style>
<title>Group 32</title>
<desc>Created with Sketch.</desc>
<g id="_x30_6" transform="translate(-839.000000, -541.000000)">
	<g id="Page-1" transform="translate(807.000000, 513.000000)">
		<g id="Group-32" transform="translate(31.909425, 28.357268)">
			<path id="Fill-4" class="st0" d="M46,16.5c0,0,0,0.1,0,0.1c0,0.6-0.9,14.1-17.8,20.3c0,0,0,0,0,0v-8.4l0,0l10.2-10.9
				c0.9-1,0.9-2.5-0.1-3.4c-1-0.9-2.5-0.9-3.5,0.1l-6.6,7.1l0,0v-7.3c0,0,0,0,0-0.1C29,12.3,32.9,5,42.5,5c0.1,0,0.2,0,0.3,0
				C46.6,9.5,46,16.5,46,16.5z M23.3,21.4L23.3,21.4l-6.6-7.1c-0.9-1-2.5-1-3.5-0.1c-1,0.9-1.1,2.5-0.1,3.4l10.2,10.9l0,0v8.4
				c0,0,0,0,0,0C6.4,30.8,5.4,17.3,5.4,16.7c0,0,0-0.1,0-0.1c0-0.1-0.6-7,3.2-11.6c0.1,0,0.2,0,0.3,0c9.7,0,13.5,7.3,14.4,9.1
				c0,0,0,0,0,0V21.4z M45.7,0.8c-0.4-0.4-1-0.7-1.6-0.7c-9.2-0.6-15.2,4.1-18.4,8.4c-3.2-4.4-9.2-9-18.4-8.4
				c-0.6,0-1.2,0.3-1.6,0.7C-0.2,6.7,0.4,16,0.5,17c0,0.7,0.4,5.2,3.4,10.5c2.9,5,8.9,11.7,20.9,15.1c0.1,0,0.1,0,0.2,0.1h0
				c0,0,0.1,0,0.1,0c0.1,0,0.1,0,0.2,0c0.1,0,0.2,0,0.3,0c0.1,0,0.2,0,0.3,0c0.1,0,0.1,0,0.2,0c0.1,0,0.1,0,0.2,0
				c0.1,0,0.1,0,0.2-0.1C48.8,36.3,50.7,18.7,50.9,17C50.9,16.5,51.7,6.9,45.7,0.8z"/>
			<path id="Fill-6" class="st0" d="M26.2,42.7c0.1,0,0.1,0,0.2,0c0.1,0,0.1,0,0.2-0.1C26.4,42.6,26.3,42.6,26.2,42.7z M28.1,28.6
				v8.4c0,0,0,0,0,0L28.1,28.6L28.1,28.6z M28.1,14.1v7.3l0,0L28.1,14.1C28.2,14.1,28.2,14.1,28.1,14.1z"/>
			<path id="Fill-8" class="st1" d="M91.6,2.1c0.4,0,0.7,0.1,1,0.4s0.4,0.6,0.4,1v3.8c0,0.4-0.1,0.7-0.4,1c-0.3,0.3-0.6,0.4-1,0.4
				H74.5v10.9h16c0.4,0,0.7,0.1,1,0.4c0.3,0.3,0.4,0.6,0.4,1v3.8c0,0.4-0.1,0.7-0.4,1c-0.3,0.3-0.6,0.4-1,0.4h-16v12.2
				c0,0.4-0.1,0.7-0.4,1c-0.3,0.3-0.6,0.4-1,0.4h-4.3c-0.4,0-0.7-0.1-1-0.4c-0.3-0.3-0.4-0.6-0.4-1V3.5c0-0.4,0.1-0.7,0.4-1
				c0.3-0.3,0.6-0.4,1-0.4H91.6z"/>
			<path id="Fill-10" class="st1" d="M98,13.6c0-0.4,0.1-0.7,0.4-1s0.6-0.4,1-0.4h4.1c0.4,0,0.7,0.1,1,0.4c0.3,0.3,0.4,0.6,0.4,1
				v13.5c0,2.1,0.5,3.8,1.4,5.1c0.9,1.3,2.4,1.9,4.5,1.9c1.9,0,3.3-0.6,4.3-1.9c1-1.3,1.5-3,1.5-5.1V13.6c0-0.4,0.1-0.7,0.4-1
				s0.6-0.4,1-0.4h4.1c0.4,0,0.7,0.1,1,0.4c0.3,0.3,0.4,0.6,0.4,1v24.8c0,0.4-0.1,0.7-0.4,1c-0.3,0.3-0.6,0.4-1,0.4h-4.1
				c-0.4,0-0.7-0.1-1-0.4c-0.3-0.3-0.4-0.6-0.4-1v-1.2c-0.8,0.8-1.8,1.6-3.1,2.2c-1.2,0.7-2.7,1-4.4,1c-2.2,0-4-0.3-5.4-1
				c-1.4-0.7-2.6-1.6-3.4-2.7c-0.9-1.1-1.5-2.5-1.8-4C98.2,31.2,98,29.6,98,28V13.6z"/>
			<path id="Fill-12" class="st1" d="M136.4,38.5c0,0.4-0.1,0.7-0.4,1c-0.3,0.3-0.6,0.4-1,0.4h-4.1c-0.4,0-0.7-0.1-1-0.4
				c-0.3-0.3-0.4-0.6-0.4-1V3.5c0-0.4,0.1-0.7,0.4-1c0.3-0.3,0.6-0.4,1-0.4h4.1c0.4,0,0.7,0.1,1,0.4c0.3,0.3,0.4,0.6,0.4,1V38.5z"/>
			<path id="Fill-14" class="st1" d="M149.3,38.5c0,0.4-0.1,0.7-0.4,1s-0.6,0.4-1,0.4h-4.1c-0.4,0-0.7-0.1-1-0.4s-0.4-0.6-0.4-1V3.5
				c0-0.4,0.1-0.7,0.4-1c0.3-0.3,0.6-0.4,1-0.4h4.1c0.4,0,0.7,0.1,1,0.4c0.3,0.3,0.4,0.6,0.4,1V38.5z"/>
			<path id="Fill-16" class="st1" d="M187.3,24.2c-0.1,0.5-0.1,1.2-0.1,1.9c0,0.7,0,1.3,0.1,1.9c0.1,1.1,0.4,2,0.7,2.8
				c0.4,0.8,0.9,1.4,1.5,1.9c0.6,0.5,1.2,0.8,2,1.1c0.7,0.2,1.4,0.3,2.2,0.3c0.9,0,1.6-0.1,2.2-0.2c0.6-0.1,1.1-0.3,1.6-0.6
				c0.4-0.3,0.8-0.6,1.1-0.9c0.3-0.3,0.6-0.7,0.9-1.1c0.2-0.3,0.5-0.6,0.7-1c0.3-0.3,0.6-0.5,1-0.5h4.1c0.4,0,0.7,0.1,1,0.4
				c0.3,0.3,0.4,0.6,0.4,1c0,0.7-0.3,1.7-0.8,2.7c-0.5,1.1-1.3,2.1-2.3,3.1c-1.1,1-2.4,1.8-4,2.5c-1.6,0.7-3.6,1-5.9,1
				c-2,0-3.7-0.3-5.3-1c-1.6-0.7-2.9-1.5-4.1-2.7c-1.2-1.1-2.1-2.4-2.7-3.9c-0.7-1.5-1.1-3-1.2-4.7c-0.1-0.6-0.1-1.3-0.1-2.1
				c0-0.8,0-1.5,0.1-2.2c0.1-1.6,0.5-3.2,1.2-4.7c0.7-1.5,1.6-2.8,2.7-3.9c1.1-1.1,2.5-2,4.1-2.7c1.6-0.7,3.4-1,5.3-1
				c2.3,0,4.2,0.3,5.9,1c1.6,0.7,3,1.5,4,2.5c1.1,1,1.8,2,2.3,3.1c0.5,1.1,0.8,2,0.8,2.7c0,0.4-0.1,0.7-0.4,1
				c-0.3,0.3-0.7,0.4-1,0.4h-4.1c-0.4,0-0.7-0.2-1-0.5c-0.3-0.3-0.5-0.6-0.7-1c-0.3-0.4-0.6-0.8-0.9-1.1c-0.3-0.3-0.7-0.6-1.1-0.9
				s-0.9-0.5-1.6-0.6c-0.6-0.1-1.4-0.2-2.2-0.2c-0.8,0-1.5,0.1-2.2,0.3c-0.7,0.2-1.4,0.6-2,1.1c-0.6,0.5-1.1,1.1-1.5,1.9
				C187.7,22.1,187.4,23.1,187.3,24.2"/>
			<path id="Fill-18" class="st1" d="M224.2,18.6c-2.1,0-3.7,0.5-4.6,1.4c-0.9,0.9-1.4,2.5-1.4,4.6v13.8c0,0.4-0.1,0.7-0.4,1
				c-0.3,0.3-0.6,0.4-1,0.4h-4.1c-0.4,0-0.7-0.1-1-0.4c-0.3-0.3-0.4-0.6-0.4-1V13.6c0-0.4,0.1-0.7,0.4-1c0.3-0.3,0.6-0.4,1-0.4h4.1
				c0.4,0,0.7,0.1,1,0.4c0.3,0.3,0.4,0.6,0.4,1v1.2c0.9-0.9,1.9-1.5,3-2c1.1-0.5,2.4-0.7,4.2-0.7h0.4c0.4,0,0.7,0.1,1,0.4
				s0.4,0.6,0.4,1v3.5c0,0.4-0.1,0.7-0.4,1c-0.3,0.3-0.6,0.4-1,0.4H224.2z"/>
			<path id="Fill-20" class="st1" d="M238.9,38.5c0,0.4-0.1,0.7-0.4,1s-0.6,0.4-1,0.4h-4.1c-0.4,0-0.7-0.1-1-0.4
				c-0.3-0.3-0.4-0.6-0.4-1V13.6c0-0.4,0.1-0.7,0.4-1c0.3-0.3,0.6-0.4,1-0.4h4.1c0.4,0,0.7,0.1,1,0.4c0.3,0.3,0.4,0.6,0.4,1V38.5z
				 M237.7,2.1c0.4,0,0.7,0.1,1,0.4c0.3,0.3,0.4,0.6,0.4,1v4.2c0,0.4-0.1,0.7-0.4,1c-0.3,0.3-0.6,0.4-1,0.4h-4.6
				c-0.4,0-0.7-0.1-1-0.4c-0.3-0.3-0.4-0.6-0.4-1V3.5c0-0.4,0.1-0.7,0.4-1c0.3-0.3,0.6-0.4,1-0.4H237.7z"/>
			<path id="Fill-22" class="st1" d="M264.8,27.5c0.1-1,0.1-2,0-3c-0.2-2.3-0.9-4-2.1-5c-1.2-1-2.7-1.5-4.4-1.5s-3.2,0.5-4.4,1.5
				c-1.2,1-1.9,2.5-2.1,4.4c-0.1,0.5-0.1,1.2-0.1,2s0,1.5,0.1,2c0.2,1.8,0.9,3.3,2.1,4.4c1.2,1.1,2.7,1.6,4.4,1.6s3.2-0.5,4.4-1.5
				C263.9,31.5,264.6,29.8,264.8,27.5 M259.8,40.4c-1.1,0-2.1-0.1-3-0.3c-0.9-0.2-1.6-0.5-2.3-0.8s-1.2-0.7-1.7-1
				c-0.5-0.4-0.8-0.7-1.1-1v11.3c0,0.4-0.1,0.7-0.4,1c-0.3,0.3-0.6,0.4-1,0.4h-4.1c-0.4,0-0.7-0.1-1-0.4c-0.3-0.3-0.4-0.6-0.4-1
				V13.6c0-0.4,0.1-0.7,0.4-1c0.3-0.3,0.6-0.4,1-0.4h4.1c0.4,0,0.7,0.1,1,0.4c0.3,0.3,0.4,0.6,0.4,1v1.2c0.3-0.3,0.7-0.7,1.1-1
				c0.5-0.4,1-0.7,1.7-1c0.7-0.3,1.4-0.6,2.3-0.8c0.9-0.2,1.9-0.3,3-0.3c1.8,0,3.4,0.3,4.8,1c1.4,0.7,2.7,1.6,3.7,2.8
				c1,1.2,1.8,2.5,2.4,4c0.6,1.5,0.9,3.1,1,4.7c0,0.5,0.1,1.2,0.1,1.9c0,0.7,0,1.3-0.1,1.9c-0.1,1.6-0.4,3.2-1,4.7
				c-0.6,1.5-1.4,2.8-2.4,4c-1,1.2-2.2,2.1-3.7,2.8C263.2,40.1,261.6,40.4,259.8,40.4"/>
			<path id="Fill-24" class="st1" d="M276.5,12.1V3.5c0-0.4,0.1-0.7,0.4-1c0.3-0.3,0.6-0.4,1-0.4h4.1c0.4,0,0.7,0.1,1,0.4
				c0.3,0.3,0.4,0.6,0.4,1v8.7h6.9c0.4,0,0.7,0.1,1,0.4c0.3,0.3,0.4,0.6,0.4,1v3.5c0,0.4-0.1,0.7-0.4,1c-0.3,0.3-0.6,0.4-1,0.4h-6.9
				v11.3c0,1.1,0.3,2,0.9,2.6c0.6,0.7,1.7,1,3.3,1h3.3c0.4,0,0.7,0.1,1,0.4c0.3,0.3,0.4,0.6,0.4,1v3.5c0,0.4-0.1,0.7-0.4,1
				c-0.3,0.3-0.6,0.4-1,0.4h-4c-3.4,0-5.9-0.8-7.7-2.4c-1.8-1.6-2.7-4.1-2.7-7.4V12.1z"/>
			<path id="Fill-26" class="st1" d="M301.8,12.3c0.1,0,0.1,0,0.2,0.1c0,0,0.1,0.1,0.1,0.2v0.3c0,0.1,0,0.1-0.1,0.2
				c0,0-0.1,0.1-0.2,0.1h-1.6v4.8c0,0.1,0,0.1-0.1,0.2c0,0-0.1,0.1-0.2,0.1h-0.3c-0.1,0-0.1,0-0.2-0.1c0,0-0.1-0.1-0.1-0.2v-4.8
				h-1.6c-0.1,0-0.1,0-0.2-0.1c0,0-0.1-0.1-0.1-0.2v-0.3c0-0.1,0-0.1,0.1-0.2c0,0,0.1-0.1,0.2-0.1H301.8z"/>
			<path id="Fill-28" class="st1" d="M305.5,15.9l1.7-3.2c0-0.1,0.1-0.1,0.1-0.2c0.1-0.1,0.1-0.1,0.2-0.1h0.3c0.1,0,0.1,0,0.2,0.1
				c0,0,0.1,0.1,0.1,0.2v5.4c0,0.1,0,0.1-0.1,0.2c0,0-0.1,0.1-0.2,0.1h-0.3c-0.1,0-0.1,0-0.2-0.1c0,0-0.1-0.1-0.1-0.2V14l-1.3,2.5
				c0,0.1-0.1,0.1-0.1,0.2c-0.1,0-0.1,0.1-0.2,0.1h-0.3c-0.1,0-0.1,0-0.2-0.1c-0.1,0-0.1-0.1-0.1-0.2l-1.3-2.5v3.9
				c0,0.1,0,0.1-0.1,0.2c0,0-0.1,0.1-0.2,0.1h-0.3c-0.1,0-0.1,0-0.2-0.1c0,0-0.1-0.1-0.1-0.2v-5.4c0-0.1,0-0.1,0.1-0.2
				c0,0,0.1-0.1,0.2-0.1h0.3c0.1,0,0.2,0,0.2,0.1c0.1,0.1,0.1,0.1,0.1,0.2L305.5,15.9z"/>
			<path id="Fill-30" class="st1" d="M170.1,32c0-0.4-0.1-0.7-0.4-1c-0.3-0.2-0.7-0.5-1.3-0.7c-0.6-0.2-1.5-0.4-2.5-0.6
				c-1-0.2-2.4-0.5-4-0.9c-1.6-0.4-2.9-0.8-3.9-1.3c-1-0.5-1.9-1.2-2.5-1.9c-0.6-0.7-1.1-1.5-1.3-2.4c-0.3-0.9-0.4-1.9-0.4-3
				c0-1.1,0.2-2.1,0.8-3.2c0.5-1,1.2-2,2.2-2.8c0.9-0.8,2.1-1.5,3.5-1.9c1.4-0.5,2.9-0.7,4.7-0.7c1.8,0,3.3,0.2,4.7,0.6
				c1.4,0.4,2.6,0.9,3.5,1.5c1,0.6,1.7,1.4,2.3,2.2c0.5,0.8,0.8,1.7,0.9,2.5c0,0.4-0.1,0.7-0.4,1s-0.7,0.4-1,0.4h-4.1
				c-0.5,0-0.9-0.1-1.2-0.3c-0.3-0.2-0.6-0.4-0.9-0.7c-0.3-0.2-0.8-0.5-1.3-0.7c-0.5-0.2-1.3-0.3-2.4-0.3c-1.1,0-2,0.2-2.8,0.5
				c-0.8,0.3-1.2,0.9-1.2,1.7c0,0.4,0.1,0.7,0.3,1c0.2,0.3,0.6,0.5,1.1,0.7c0.6,0.2,1.3,0.4,2.3,0.7c1,0.2,2.3,0.5,3.8,0.8
				c3.2,0.7,5.4,1.7,6.7,3.2c1.3,1.4,2,3.2,2,5.4c0,1.1-0.3,2.1-0.8,3.1c-0.5,1-1.3,1.9-2.3,2.7c-1,0.8-2.3,1.4-3.8,1.9
				c-1.5,0.5-3.2,0.7-5,0.7c-1.9,0-3.6-0.2-5-0.7c-1.5-0.4-2.7-1-3.7-1.7c-1-0.7-1.8-1.5-2.3-2.4c-0.5-0.9-0.8-1.8-0.9-2.6
				c0-0.4,0.1-0.7,0.4-1c0.3-0.3,0.7-0.4,1-0.4h4.1c0.5,0,0.9,0.1,1.2,0.4c0.3,0.2,0.6,0.5,0.9,0.9c0.3,0.3,0.8,0.6,1.4,0.9
				c0.6,0.2,1.5,0.4,2.7,0.4c0.5,0,1.1,0,1.7-0.1c0.6-0.1,1.1-0.2,1.6-0.3c0.5-0.2,0.9-0.4,1.2-0.6C170,32.7,170.1,32.4,170.1,32"/>
		</g>
	</g>
</g>
</svg>
