<?xml version="1.0" encoding="utf-8"?>
<!-- Generator: Adobe Illustrator 22.0.1, SVG Export Plug-In . SVG Version: 6.00 Build 0)  -->
<svg version="1.1" id="Layer_1" xmlns="http://www.w3.org/2000/svg" xmlns:xlink="http://www.w3.org/1999/xlink" x="0px" y="0px"
	 viewBox="0 0 63 54" style="enable-background:new 0 0 63 54;" xml:space="preserve">
<style type="text/css">
	.st0{fill:#FFFFFF;}
</style>
<title>Group 8</title>
<desc>Created with Sketch.</desc>
<g id="_x30_6" transform="translate(-675.000000, -738.000000)">
	<g id="Page-1" transform="translate(649.000000, 707.000000)">
		<g id="Group-8" transform="translate(26.450000, 31.320000)">
			<path id="Fill-2" class="st0" d="M28,17.6v9.1l0,0L28,17.6C28,17.6,28,17.6,28,17.6z M28,35.6V46c0,0,0,0,0,0L28,35.6L28,35.6z"
				/>
			<path id="Fill-4" class="st0" d="M55.9,20.6c0,0,0,0.1,0,0.2c0,0.8-1.2,17.6-21.9,25.2c0,0,0,0,0,0V35.6l0,0L46.6,22
				c1.1-1.2,1.1-3.1-0.2-4.3c-1.2-1.1-3.1-1.1-4.3,0.2l-8.1,8.8l0,0v-9.1c0,0,0,0,0-0.1c1-2.3,5.8-11.3,17.6-11.3c0.1,0,0.2,0,0.3,0
				C56.7,11.8,55.9,20.6,55.9,20.6z M28.1,26.7L28.1,26.7l-8.1-8.8c-1.1-1.2-3-1.3-4.2-0.2c-1.2,1.1-1.3,3.1-0.2,4.3L28,35.6l0,0V46
				c0,0,0,0,0,0C7.3,38.4,6.2,21.5,6.2,20.8c0-0.1,0-0.1,0-0.2c0-0.1-0.8-8.8,3.9-14.4c0.1,0,0.2,0,0.4,0C22.3,6.2,27,15.3,28,17.6
				c0,0,0,0,0,0.1V26.7z M55.5,1.1c-0.5-0.5-1.2-0.8-1.9-0.9C42.3-0.5,34.9,5.3,31.1,10.7C27.2,5.3,19.8-0.5,8.5,0.2
				c-0.7,0-1.4,0.4-1.9,0.9c-7.3,7.3-6.5,18.9-6.4,20c0,0.8,0.5,6.5,4.2,13.1C7.9,40.5,15.3,48.8,30,53c0.1,0,0.2,0,0.2,0.1h0
				c0.1,0,0.1,0,0.2,0c0.1,0,0.1,0,0.2,0c0.1,0,0.3,0,0.4,0c0.1,0,0.3,0,0.4,0c0.1,0,0.1,0,0.2,0c0.1,0,0.1,0,0.2,0
				c0.1,0,0.2,0,0.3-0.1c27.3-7.7,29.7-29.7,29.8-31.8C62,20.5,63,8.6,55.5,1.1z"/>
			<path id="Fill-6" class="st0" d="M31.6,53.1c0.1,0,0.1,0,0.2,0c0.1,0,0.2,0,0.3-0.1C31.9,53.1,31.8,53.1,31.6,53.1z M34,35.6V46
				c0,0,0,0,0,0L34,35.6L34,35.6z M34,17.6v9.1l0,0L34,17.6C34.1,17.6,34.1,17.6,34,17.6z"/>
		</g>
	</g>
</g>
</svg>
