<?xml version="1.0" encoding="UTF-8"?>
<svg width="370px" height="100px" viewBox="0 0 370 100" version="1.1" xmlns="http://www.w3.org/2000/svg" xmlns:xlink="http://www.w3.org/1999/xlink">
    <!-- Generator: Sketch 48.2 (47327) - http://www.bohemiancoding.com/sketch -->
    <title>Page 1</title>
    <desc>Created with Sketch.</desc>
    <defs></defs>
    <g id="06" stroke="none" stroke-width="1" fill="none" fill-rule="evenodd" transform="translate(-807.000000, -513.000000)">
        <g id="Page-1" transform="translate(807.000000, 513.000000)">
            <polygon id="Fill-1" fill="#404F5E" points="0 100 370 100 370 0 0 0"></polygon>
            <g id="Group-32" transform="translate(31.909425, 28.357268)">
                <path d="M45.9952529,16.5420427 C45.990565,16.5793359 45.9854083,16.6259524 45.9854083,16.6632456 C45.9530619,17.2692597 45.0389248,30.8113458 28.1672357,36.9181041 C28.15786,36.9227657 28.1531721,36.9227657 28.1437963,36.9269612 L28.1437963,28.5690934 L28.1672357,28.5457851 L38.3540044,17.6282066 C39.2728294,16.644599 39.2165748,15.1015936 38.2227437,14.1827829 C37.2289126,13.2691 35.6772235,13.3255059 34.7537106,14.3137752 L28.1672357,21.3761712 L28.1437963,21.3994795 L28.1437963,14.1226477 C28.1531721,14.1040011 28.15786,14.0900161 28.1672357,14.0713695 C28.9829273,12.2626503 32.8879334,4.96251026 42.5449714,4.96251026 C42.638729,4.96251026 42.7324867,4.96251026 42.8262443,4.96717191 C46.6046776,9.46566178 45.9999408,16.472118 45.9952529,16.5420427 Z M23.2590228,21.3994795 L23.2402712,21.3761712 L16.6491084,14.3137752 C15.7302835,13.3255059 14.1739065,13.2649045 13.1847633,14.1827829 C12.1909322,15.1015936 12.1299897,16.644599 13.0530338,17.6282066 L23.2402712,28.5457851 L23.2590228,28.5644317 L23.2590228,36.9269612 C23.2543349,36.9269612 23.2449591,36.9227657 23.2402712,36.9227657 C6.36389425,30.8160075 5.44975716,17.2692597 5.42162987,16.6725689 C5.41694198,16.6301479 5.4122541,16.5839976 5.4122541,16.5420427 C5.40287834,16.4674564 4.7700142,9.49363166 8.57657479,4.96717191 C8.67502032,4.96251026 8.77346585,4.96251026 8.87191138,4.96251026 C18.5664524,4.96251026 22.4198918,12.2440037 23.2402712,14.0806928 C23.2449591,14.0946778 23.2543349,14.1086627 23.2590228,14.1226477 L23.2590228,21.3994795 Z M45.6764769,0.846275493 C45.2545674,0.426727215 44.6920215,0.170336601 44.0966605,0.133043421 C34.8568441,-0.431015931 28.8797939,4.21198501 25.7060974,8.57994875 C22.5277131,4.21198501 16.5506629,-0.435677578 7.31037772,0.133043421 C6.71079755,0.170336601 6.14825165,0.426727215 5.72634223,0.846275493 C-0.208517013,6.74792127 0.443098654,16.0474419 0.522792656,16.9569294 C0.560295716,17.6188833 0.944702081,22.2012828 3.96369841,27.4596212 C6.85612191,32.4983961 12.8237963,39.1976497 24.8669665,42.5586976 C24.9279089,42.5773442 24.9935393,42.5959908 25.0591696,42.6146374 L25.0638575,42.6146374 C25.1107364,42.6286223 25.1529273,42.6374794 25.1998061,42.6472689 C25.2607486,42.6612538 25.3216911,42.6705771 25.3873214,42.6799004 C25.4951427,42.698547 25.602964,42.7032087 25.7103165,42.7032087 C25.8139187,42.7032087 25.9170521,42.698547 26.0201856,42.6799004 C26.0764401,42.6705771 26.1326947,42.6612538 26.1889493,42.6519306 C26.240516,42.6426073 26.2920827,42.6286223 26.3436494,42.6146374 C26.4134989,42.5959908 26.4842859,42.5773442 26.5546042,42.554036 C48.8126703,36.3256087 50.7440778,18.6630924 50.8753386,17.0082075 C50.9315931,16.4674564 51.7472847,6.88310905 45.6764769,0.846275493 Z" id="Fill-4" fill="#88B04B"></path>
                <path d="M26.1889493,42.6517907 C26.240516,42.6424674 26.2920827,42.6284825 26.3436494,42.6144975 C26.4134989,42.5958509 26.4842859,42.5772043 26.5546042,42.5538961 C26.4327192,42.6005126 26.3108343,42.6331441 26.1889493,42.6517907 Z M28.1437963,28.5689535 L28.1437963,36.9272875 C28.1531721,36.9226259 28.15786,36.9226259 28.1672357,36.9179642 L28.1672357,28.5456453 L28.1437963,28.5689535 Z M28.1437963,14.1225078 L28.1437963,21.3993396 L28.1672357,21.3760314 L28.1672357,14.0712297 C28.15786,14.0898763 28.1531721,14.1038612 28.1437963,14.1225078 Z" id="Fill-6" fill="#88B04B"></path>
                <path d="M91.6277105,2.08044668 C92.0205551,2.08044668 92.3599578,2.22262693 92.6454498,2.50652126 C92.9309419,2.7904156 93.0734535,3.12791888 93.0734535,3.51856494 L93.0734535,7.29962725 C93.0734535,7.69027332 92.9309419,8.0277766 92.6454498,8.31167093 C92.3599578,8.59603143 92.0205551,8.73774552 91.6277105,8.73774552 L74.5431916,8.73774552 L74.5431916,19.6017151 L90.5565294,19.6017151 C90.9493739,19.6017151 91.2883078,19.7438953 91.5742687,20.0277897 C91.8597607,20.311684 92.0027411,20.6491873 92.0027411,21.0398334 L92.0027411,24.8208957 C92.0027411,25.2115417 91.8597607,25.549045 91.5742687,25.8329393 C91.2883078,26.1172998 90.9493739,26.2590139 90.5565294,26.2590139 L74.5431916,26.2590139 L74.5431916,38.4548162 C74.5431916,38.8449961 74.4002111,39.1824994 74.1147191,39.4663937 C73.8292271,39.7507542 73.4898244,39.8924683 73.0974486,39.8924683 L68.7592821,39.8924683 C68.3664376,39.8924683 68.0270349,39.7507542 67.7415428,39.4663937 C67.4560508,39.1824994 67.3130704,38.8449961 67.3130704,38.4548162 L67.3130704,3.51856494 C67.3130704,3.12791888 67.4560508,2.7904156 67.7415428,2.50652126 C68.0270349,2.22262693 68.3664376,2.08044668 68.7592821,2.08044668 L91.6277105,2.08044668 Z" id="Fill-8" fill="#FFFFFF"></path>
                <path d="M98.0277952,13.6371371 C98.0277952,13.246491 98.1707756,12.9089877 98.4562677,12.6250934 C98.7417597,12.3411991 99.0811624,12.1990188 99.4735382,12.1990188 L103.544027,12.1990188 C103.936871,12.1990188 104.275805,12.3411991 104.561766,12.6250934 C104.847258,12.9089877 104.990238,13.246491 104.990238,13.6371371 L104.990238,27.1643059 C104.990238,29.2946788 105.445432,30.998511 106.355818,32.2767347 C107.266205,33.5554246 108.756952,34.1945365 110.82759,34.1945365 C112.720088,34.1945365 114.165831,33.5554246 115.165756,32.2767347 C116.165213,30.998511 116.66541,29.2946788 116.66541,27.1643059 L116.66541,13.6371371 C116.66541,13.246491 116.80839,12.9089877 117.093882,12.6250934 C117.379374,12.3411991 117.718308,12.1990188 118.111153,12.1990188 L122.181641,12.1990188 C122.574486,12.1990188 122.913419,12.3411991 123.19938,12.6250934 C123.484872,12.9089877 123.627384,13.246491 123.627384,13.6371371 L123.627384,38.4548162 C123.627384,38.8449961 123.484872,39.1824994 123.19938,39.4663937 C122.913419,39.7507542 122.574486,39.8924683 122.181641,39.8924683 L118.111153,39.8924683 C117.718308,39.8924683 117.379374,39.7507542 117.093882,39.4663937 C116.80839,39.1824994 116.66541,38.8449961 116.66541,38.4548162 L116.66541,37.2297352 C115.844093,38.0464559 114.826353,38.7829962 113.612661,39.4402885 C112.398499,40.0971146 110.934942,40.4252946 109.221052,40.4252946 C107.043062,40.4252946 105.240102,40.0877913 103.811705,39.4132509 C102.383776,38.7387105 101.24087,37.8334186 100.383925,36.6973751 C99.5274488,35.5608654 98.9203681,34.238356 98.5631514,32.7293807 C98.2064035,31.2208716 98.0277952,29.6321821 98.0277952,27.9628461 L98.0277952,13.6371371 Z" id="Fill-10" fill="#FFFFFF"></path>
                <path d="M136.416677,38.454956 C136.416677,38.8451359 136.274166,39.1826392 135.988205,39.4665336 C135.702713,39.7504279 135.36331,39.8926081 134.970935,39.8926081 L130.900446,39.8926081 C130.50807,39.8926081 130.168668,39.7504279 129.882707,39.4665336 C129.597215,39.1826392 129.454234,38.8451359 129.454234,38.454956 L129.454234,3.51870479 C129.454234,3.12805873 129.597215,2.79055545 129.882707,2.50666111 C130.168668,2.22230061 130.50807,2.08058653 130.900446,2.08058653 L134.970935,2.08058653 C135.36331,2.08058653 135.702713,2.22230061 135.988205,2.50666111 C136.274166,2.79055545 136.416677,3.12805873 136.416677,3.51870479 L136.416677,38.454956 Z" id="Fill-12" fill="#FFFFFF"></path>
                <path d="M149.31548,38.454956 C149.31548,38.8451359 149.1725,39.1826392 148.887007,39.4665336 C148.601515,39.7504279 148.262113,39.8926081 147.869737,39.8926081 L143.799249,39.8926081 C143.406404,39.8926081 143.067001,39.7504279 142.781509,39.4665336 C142.496017,39.1826392 142.353037,38.8451359 142.353037,38.454956 L142.353037,3.51870479 C142.353037,3.12805873 142.496017,2.79055545 142.781509,2.50666111 C143.067001,2.22230061 143.406404,2.08058653 143.799249,2.08058653 L147.869737,2.08058653 C148.262113,2.08058653 148.601515,2.22230061 148.887007,2.50666111 C149.1725,2.79055545 149.31548,3.12805873 149.31548,3.51870479 L149.31548,38.454956 Z" id="Fill-14" fill="#FFFFFF"></path>
                <path d="M187.313862,24.1818304 C187.242606,24.7146567 187.206509,25.3360543 187.206509,26.0460233 C187.206509,26.7559922 187.242606,27.3769236 187.313862,27.9097499 C187.421214,29.0103649 187.671078,29.9515516 188.063454,30.7328437 C188.456299,31.5136696 188.94712,32.1439244 189.536387,32.6231418 C190.125185,33.1023591 190.777269,33.4571105 191.491234,33.6883282 C192.205198,33.9190798 192.936977,34.0346886 193.687038,34.0346886 C194.579611,34.0346886 195.329672,33.9633654 195.936284,33.8216513 C196.542896,33.6794711 197.060907,33.4752909 197.489379,33.2086447 C197.917852,32.9424646 198.283507,32.640856 198.587281,32.3038189 C198.890587,31.9663156 199.185455,31.5845267 199.470947,31.1584521 C199.685183,30.8386631 199.935048,30.5198064 200.22054,30.2000174 C200.5065,29.8806945 200.845434,29.7208 201.238279,29.7208 L205.308767,29.7208 C205.701612,29.7208 206.049453,29.8629802 206.352759,30.1468746 C206.656534,30.4307689 206.790607,30.7682722 206.754979,31.1584521 C206.719351,31.9038495 206.451204,32.8096077 205.951476,33.8747941 C205.451279,34.9395144 204.674966,35.9608814 203.621598,36.9365642 C202.568231,37.9131794 201.220465,38.7387571 199.577831,39.4132975 C197.935666,40.0878379 195.971912,40.4253412 193.687038,40.4253412 C191.722815,40.4253412 189.955952,40.0971612 188.384574,39.4398689 C186.814133,38.7830428 185.448553,37.8954651 184.287833,36.7771359 C183.127114,35.6588066 182.216727,34.3628686 181.556673,32.8893218 C180.89615,31.4162412 180.49393,29.8629802 180.35095,28.229539 C180.279694,27.5904271 180.244066,26.8804582 180.244066,26.099166 C180.244066,25.3183401 180.279694,24.5901907 180.35095,23.9156503 C180.458302,22.2826752 180.851147,20.7200909 181.529483,19.2292961 C182.20782,17.738035 183.118676,16.4332399 184.260644,15.3149106 C185.403549,14.1961152 186.76913,13.3090037 188.358322,12.6521776 C189.946576,11.9948853 191.722815,11.6662391 193.687038,11.6662391 C195.971912,11.6662391 197.935666,12.0037424 199.577831,12.6782828 C201.220465,13.3532894 202.568231,14.178401 203.621598,15.1550161 C204.674966,16.1311651 205.451279,17.1520659 205.951476,18.2172524 C206.451204,19.2819727 206.719351,20.1877308 206.754979,20.9331282 C206.790607,21.3237743 206.656534,21.6612776 206.352759,21.9451719 C206.049453,22.2295324 205.701612,22.3712465 205.308767,22.3712465 L201.238279,22.3712465 C200.845434,22.3712465 200.5065,22.211352 200.22054,21.8920291 C199.935048,21.5722401 199.685183,21.2529173 199.470947,20.9331282 C199.185455,20.5070537 198.890587,20.1257309 198.587281,19.7882276 C198.283507,19.4511905 197.917852,19.1491157 197.489379,18.8829357 C197.060907,18.6167556 196.542896,18.4125754 195.936284,18.2703952 C195.329672,18.1286811 194.579611,18.0573579 193.687038,18.0573579 C192.936977,18.0573579 192.205198,18.1725006 191.491234,18.4032521 C190.777269,18.6344698 190.125185,18.9892212 189.536387,19.4689047 C188.94712,19.9481221 188.456299,20.5783769 188.063454,21.3592028 C187.671078,22.1404949 187.421214,23.0816816 187.313862,24.1818304" id="Fill-16" fill="#FFFFFF"></path>
                <path d="M224.172338,18.5901376 C222.030444,18.5901376 220.486256,19.0604978 219.539772,20.0012183 C218.593758,20.9424049 218.12075,22.4779516 218.12075,24.6078584 L218.12075,38.4548162 C218.12075,38.8449961 217.97777,39.1824994 217.692278,39.4663937 C217.406317,39.7507542 217.067383,39.8924683 216.674538,39.8924683 L212.60405,39.8924683 C212.211206,39.8924683 211.87274,39.7507542 211.58678,39.4663937 C211.301288,39.1824994 211.158307,38.8449961 211.158307,38.4548162 L211.158307,13.6371371 C211.158307,13.246491 211.301288,12.9089877 211.58678,12.6250934 C211.87274,12.3411991 212.211206,12.1990188 212.60405,12.1990188 L216.674538,12.1990188 C217.067383,12.1990188 217.406317,12.3411991 217.692278,12.6250934 C217.97777,12.9089877 218.12075,13.246491 218.12075,13.6371371 L218.12075,14.862218 C219.048951,14.0100689 220.039969,13.3532427 221.093336,12.8912735 C222.146235,12.4297704 223.530098,12.1990188 225.243519,12.1990188 L225.636363,12.1990188 C226.029208,12.1990188 226.368611,12.3411991 226.654103,12.6250934 C226.939595,12.9089877 227.082106,13.246491 227.082106,13.6371371 L227.082106,17.1520193 C227.082106,17.5426654 226.939595,17.8801687 226.654103,18.164063 C226.368611,18.4479573 226.029208,18.5901376 225.636363,18.5901376 L224.172338,18.5901376 Z" id="Fill-18" fill="#FFFFFF"></path>
                <path d="M238.890648,38.454956 C238.890648,38.8451359 238.747668,39.1826392 238.462176,39.4665336 C238.176683,39.7504279 237.837281,39.8926081 237.444436,39.8926081 L233.373948,39.8926081 C232.981572,39.8926081 232.642169,39.7504279 232.356677,39.4665336 C232.070717,39.1826392 231.927736,38.8451359 231.927736,38.454956 L231.927736,13.6372769 C231.927736,13.2466309 232.070717,12.9091276 232.356677,12.6252332 C232.642169,12.3408727 232.981572,12.1991587 233.373948,12.1991587 L237.444436,12.1991587 C237.837281,12.1991587 238.176683,12.3408727 238.462176,12.6252332 C238.747668,12.9091276 238.890648,13.2466309 238.890648,13.6372769 L238.890648,38.454956 Z M237.712114,2.08058653 C238.104959,2.08058653 238.444362,2.22230061 238.729854,2.50666111 C239.015814,2.79055545 239.157857,3.12805873 239.157857,3.51870479 L239.157857,7.6726989 C239.157857,8.0628788 239.015814,8.39991592 238.729854,8.68427642 C238.444362,8.96817075 238.104959,9.110351 237.712114,9.110351 L233.10627,9.110351 C232.713425,9.110351 232.374491,8.96817075 232.08853,8.68427642 C231.803038,8.39991592 231.660058,8.0628788 231.660058,7.6726989 L231.660058,3.51870479 C231.660058,3.12805873 231.803038,2.79055545 232.08853,2.50666111 C232.374491,2.22230061 232.713425,2.08058653 233.10627,2.08058653 L237.712114,2.08058653 Z" id="Fill-20" fill="#FFFFFF"></path>
                <path d="M264.792089,27.536958 C264.899442,26.5430947 264.899442,25.5487653 264.792089,24.5549021 C264.577853,22.2469204 263.863889,20.5873738 262.649727,19.5753302 C261.436034,18.5632865 259.954195,18.0574977 258.204677,18.0574977 C256.455159,18.0574977 254.982227,18.5726098 253.785879,19.6019016 C252.59,20.6316595 251.902757,22.1052063 251.724148,24.0220757 C251.652892,24.5549021 251.617265,25.2294425 251.617265,26.0461631 C251.617265,26.8628837 251.652892,27.536958 251.724148,28.0697843 C251.902757,29.9162629 252.59,31.3716292 253.785879,32.4368157 C254.982227,33.5020022 256.455159,34.0343623 258.204677,34.0343623 C259.954195,34.0343623 261.436034,33.5285736 262.649727,32.516996 C263.863889,31.5049524 264.577853,29.8449397 264.792089,27.536958 M259.811214,40.4250149 C258.704405,40.4250149 257.713387,40.3187293 256.838628,40.1056921 C255.964338,39.8926548 255.196463,39.6264747 254.53594,39.3066857 C253.875418,38.9868966 253.31334,38.6410024 252.848771,38.2685368 C252.384671,37.895605 252.00964,37.5497107 251.724148,37.2299217 L251.724148,48.5735748 C251.724148,48.9642209 251.581168,49.301258 251.295676,49.5856185 C251.010184,49.8695128 250.670781,50.0112269 250.278405,50.0112269 L246.207917,50.0112269 C245.815541,50.0112269 245.476138,49.8695128 245.190646,49.5856185 C244.904686,49.301258 244.761705,48.9642209 244.761705,48.5735748 L244.761705,13.6373235 C244.761705,13.2466775 244.904686,12.9091742 245.190646,12.6252799 C245.476138,12.3409194 245.815541,12.1992053 246.207917,12.1992053 L250.278405,12.1992053 C250.670781,12.1992053 251.010184,12.3409194 251.295676,12.6252799 C251.581168,12.9091742 251.724148,13.2466775 251.724148,13.6373235 L251.724148,14.8624045 C252.00964,14.5426155 252.384671,14.1962551 252.848771,13.8233233 C253.31334,13.4508576 253.875418,13.1044972 254.53594,12.7847082 C255.196463,12.4653853 255.964338,12.1992053 256.838628,11.986168 C257.713387,11.7731307 258.704405,11.666379 259.811214,11.666379 C261.596829,11.666379 263.212273,12.0127394 264.658016,12.7054602 C266.104228,13.3977149 267.336203,14.3202549 268.353474,15.4744788 C269.371213,16.6287028 270.174247,17.9596031 270.763514,19.4685784 C271.352781,20.9780199 271.682808,22.5489951 271.754533,24.1819703 C271.79016,24.7143304 271.807974,25.335728 271.807974,26.0461631 C271.807974,26.756132 271.79016,27.3770635 271.754533,27.9098898 C271.682808,29.5433311 271.352781,31.1143063 270.763514,32.6232816 C270.174247,34.1317907 269.371213,35.4636234 268.353474,36.6173812 C267.336203,37.771139 266.104228,38.6946113 264.658016,39.386866 C263.212273,40.0791207 261.596829,40.4250149 259.811214,40.4250149" id="Fill-22" fill="#FFFFFF"></path>
                <path d="M276.515921,12.0765573 L276.515921,3.51870479 C276.515921,3.12805873 276.658901,2.79055545 276.944394,2.50666111 C277.229417,2.22230061 277.568819,2.08058653 277.961664,2.08058653 L282.032152,2.08058653 C282.424528,2.08058653 282.763931,2.22230061 283.049892,2.50666111 C283.335384,2.79055545 283.478364,3.12805873 283.478364,3.51870479 L283.478364,12.1991587 L290.386897,12.1991587 C290.779741,12.1991587 291.118675,12.3408727 291.404636,12.6252332 C291.690128,12.9091276 291.833108,13.2466309 291.833108,13.6372769 L291.833108,17.1521592 C291.833108,17.5428052 291.690128,17.8798423 291.404636,18.1642028 C291.118675,18.4480972 290.779741,18.5902774 290.386897,18.5902774 L283.478364,18.5902774 L283.478364,29.8803216 C283.478364,30.9809366 283.772294,31.8596571 284.361561,32.5169494 C284.950828,33.1733094 286.04873,33.5019555 287.655736,33.5019555 L290.922253,33.5019555 C291.315097,33.5019555 291.6545,33.6441358 291.939992,33.9280301 C292.225953,34.2119245 292.368465,34.5494277 292.368465,34.9396076 L292.368465,38.454956 C292.368465,38.8451359 292.225953,39.1821731 291.939992,39.4665336 C291.6545,39.7504279 291.315097,39.8926081 290.922253,39.8926081 L286.959117,39.8926081 C283.603062,39.8926081 281.02332,39.0852108 279.22036,37.4694838 C277.417401,35.8542229 276.515921,33.3774896 276.515921,30.0402161 L276.515921,12.0765573 Z" id="Fill-24" fill="#FFFFFF"></path>
                <path d="M301.781076,12.3456276 C301.842488,12.3456276 301.894992,12.3675374 301.939527,12.411823 C301.984062,12.4556425 302.006563,12.5087853 302.006563,12.5689205 L302.006563,12.8677321 C302.006563,12.9283336 301.984062,12.9810102 301.939527,13.0252958 C301.894992,13.0695815 301.842488,13.0910251 301.781076,13.0910251 L300.222824,13.0910251 L300.222824,17.9223566 C300.222824,17.9834241 300.20126,18.0356346 300.156725,18.0794541 C300.11219,18.1242059 300.059217,18.1456495 299.998275,18.1456495 L299.656528,18.1456495 C299.595117,18.1456495 299.542612,18.1242059 299.498077,18.0794541 C299.453543,18.0356346 299.43151,17.9834241 299.43151,17.9223566 L299.43151,13.0910251 L297.873257,13.0910251 C297.811846,13.0910251 297.759342,13.0695815 297.714807,13.0252958 C297.670272,12.9810102 297.648708,12.9283336 297.648708,12.8677321 L297.648708,12.5689205 C297.648708,12.5087853 297.670272,12.4556425 297.714807,12.411823 C297.759342,12.3675374 297.811846,12.3456276 297.873257,12.3456276 L301.781076,12.3456276 Z" id="Fill-26" fill="#FFFFFF"></path>
                <path d="M305.50574,15.8500678 L307.189158,12.6111551 C307.222442,12.5440273 307.268383,12.4834259 307.326982,12.4284185 C307.384643,12.373411 307.461524,12.3454412 307.556219,12.3454412 L307.872183,12.3454412 C307.933594,12.3454412 307.986098,12.3673509 308.030633,12.4116366 C308.074699,12.4559222 308.09767,12.5085988 308.09767,12.5692002 L308.09767,17.9221701 C308.09767,17.9832377 308.074699,18.0354481 308.030633,18.0792676 C307.986098,18.1240194 307.933594,18.1459292 307.872183,18.1459292 L307.530905,18.1459292 C307.469494,18.1459292 307.416989,18.1240194 307.372454,18.0792676 C307.328388,18.0354481 307.306355,17.9832377 307.306355,17.9221701 L307.306355,13.9947321 L306.005937,16.4887135 C305.961871,16.5712246 305.914054,16.6364877 305.864831,16.6831042 C305.814202,16.7301868 305.748103,16.7534951 305.66419,16.7534951 L305.347758,16.7534951 C305.264314,16.7534951 305.198214,16.7301868 305.147585,16.6831042 C305.097425,16.6364877 305.050546,16.5712246 305.00648,16.4887135 L303.706061,13.9947321 L303.706061,17.9221701 C303.706061,17.9832377 303.684028,18.0354481 303.639962,18.0792676 C303.595427,18.1240194 303.542454,18.1459292 303.481512,18.1459292 L303.139296,18.1459292 C303.077885,18.1459292 303.025381,18.1240194 302.980846,18.0792676 C302.93678,18.0354481 302.914747,17.9832377 302.914747,17.9221701 L302.914747,12.5692002 C302.914747,12.5085988 302.93678,12.4559222 302.980846,12.4116366 C303.025381,12.3673509 303.077885,12.3454412 303.139296,12.3454412 L303.456197,12.3454412 C303.550893,12.3454412 303.626836,12.373411 303.685435,12.4284185 C303.743096,12.4834259 303.789975,12.5440273 303.822321,12.6111551 L305.50574,15.8500678 Z" id="Fill-28" fill="#FFFFFF"></path>
                <path d="M170.144023,31.983284 C170.144023,31.5917056 170.018388,31.2714504 169.768055,31.0215861 C169.517253,30.772188 169.078467,30.5405041 168.452166,30.3265345 C167.824928,30.1125649 166.991422,29.8990614 165.953056,29.6855579 C164.913753,29.4715883 163.588957,29.1872278 161.976794,28.8301456 C160.399791,28.4749281 159.092809,28.0292746 158.053974,27.4945836 C157.014671,26.9603588 156.181634,26.3375627 155.555333,25.6243306 C154.928563,24.912497 154.489308,24.1018365 154.238975,23.1932814 C153.988174,22.2847263 153.863007,21.296457 153.863007,20.2275413 C153.863007,19.1590917 154.112871,18.1088225 154.614944,17.0753352 C155.116078,16.0427803 155.841294,15.1249019 156.791527,14.3230985 C157.740355,13.5217613 158.895449,12.8723938 160.257279,12.3731313 C161.618171,11.8743351 163.176892,11.6249369 164.932035,11.6249369 C166.68671,11.6249369 168.254338,11.8211923 169.633982,12.2127707 C171.012688,12.6052814 172.186065,13.1213258 173.153644,13.7623023 C174.120754,14.403745 174.873159,15.1430823 175.41039,15.979848 C175.947622,16.8170799 176.251396,17.6627028 176.324059,18.517649 C176.359218,18.9101597 176.224676,19.2485953 175.920432,19.533422 C175.616188,19.8182486 175.266941,19.9604289 174.873159,19.9604289 L170.735634,19.9604289 C170.197934,19.9604289 169.795245,19.8630004 169.52616,19.6667451 C169.257545,19.471422 168.962208,19.2485953 168.639682,18.998731 C168.317624,18.749799 167.887745,18.5274384 167.350045,18.3311831 C166.813283,18.13586 166.006967,18.0370331 164.932035,18.0370331 C163.857573,18.0370331 162.907808,18.1973938 162.084147,18.517649 C161.259548,18.8388365 160.848421,19.4084898 160.848421,20.2275413 C160.848421,20.620052 160.946398,20.9491643 161.143758,21.2162767 C161.340649,21.4838553 161.716148,21.7239301 162.272131,21.9374336 C162.827645,22.1514032 163.596926,22.3746961 164.583257,22.6059138 C165.567712,22.8375977 166.847973,23.1131011 168.424977,23.4338224 C171.612737,24.1106937 173.860576,25.1707523 175.168496,26.6130661 C176.475946,28.055846 177.129906,29.8459186 177.129906,31.983284 C177.129906,33.0517336 176.86129,34.0936119 176.324059,35.1089187 C175.786359,36.1242255 175.007232,37.0327806 173.986212,37.8341178 C172.96566,38.6359212 171.711182,39.2768977 170.225124,39.7579798 C168.738127,40.2385956 167.063147,40.4796028 165.20112,40.4796028 C163.30159,40.4796028 161.627078,40.2563099 160.176179,39.8111225 C158.725748,39.3659352 157.497991,38.7878909 156.496191,38.0746588 C155.492515,37.3623591 154.722765,36.5610219 154.185065,35.670181 C153.648302,34.7802725 153.360935,33.9066798 153.325307,33.0517336 C153.28921,32.6601552 153.423753,32.3221858 153.727996,32.0364268 C154.032709,31.7520663 154.381956,31.6089537 154.776207,31.6089537 L158.914201,31.6089537 C159.450963,31.6089537 159.854121,31.734352 160.122737,31.983284 C160.391352,32.2326822 160.695596,32.5175088 161.036405,32.8382302 C161.376745,33.1584854 161.85069,33.4442443 162.460115,33.6931763 C163.069071,33.9425745 163.98227,34.0675066 165.20112,34.0675066 C165.738351,34.0675066 166.292928,34.0325443 166.866724,33.9598226 C167.439115,33.8894317 167.967908,33.7733567 168.452166,33.612996 C168.935487,33.4526353 169.338176,33.2386657 169.660702,32.9715533 C169.98276,32.7044409 170.144023,32.3757947 170.144023,31.983284" id="Fill-30" fill="#FFFFFF"></path>
            </g>
        </g>
    </g>
</svg>