<?xml version="1.0" encoding="utf-8"?>
<!-- Generator: Adobe Illustrator 22.0.1, SVG Export Plug-In . SVG Version: 6.00 Build 0)  -->
<svg version="1.1" id="Layer_1" xmlns="http://www.w3.org/2000/svg" xmlns:xlink="http://www.w3.org/1999/xlink" x="0px" y="0px"
	 viewBox="0 0 370 100" style="enable-background:new 0 0 370 100;" xml:space="preserve">
<style type="text/css">
	.st0{fill:#88B04B;}
	.st1{fill:#FFFFFF;}
</style>
<title>Page 1</title>
<desc>Created with Sketch.</desc>
<g id="_x30_6" transform="translate(-807.000000, -346.000000)">
	<g id="Page-1" transform="translate(807.000000, 346.000000)">
		<polygon id="Fill-1" class="st0" points="0,100 370,100 370,0 0,0 		"/>
		<g id="Group-32" transform="translate(33.985240, 27.476228)">
			<path id="Fill-2" class="st1" d="M91.8,2.4c0.4,0,0.7,0.1,1,0.4s0.4,0.6,0.4,1v3.8c0,0.4-0.1,0.7-0.4,1c-0.3,0.3-0.6,0.4-1,0.4
				H74.7v10.9h16.1c0.4,0,0.7,0.1,1,0.4c0.3,0.3,0.4,0.6,0.4,1v3.8c0,0.4-0.1,0.7-0.4,1c-0.3,0.3-0.6,0.4-1,0.4H74.7v12.3
				c0,0.4-0.1,0.7-0.4,1c-0.3,0.3-0.6,0.4-1,0.4h-4.4c-0.4,0-0.7-0.1-1-0.4c-0.3-0.3-0.4-0.6-0.4-1V3.9c0-0.4,0.1-0.7,0.4-1
				s0.6-0.4,1-0.4H91.8z"/>
			<path id="Fill-4" class="st1" d="M98.3,14.1c0-0.4,0.1-0.7,0.4-1c0.3-0.3,0.6-0.4,1-0.4h4.1c0.4,0,0.7,0.1,1,0.4
				c0.3,0.3,0.4,0.6,0.4,1v13.6c0,2.1,0.5,3.9,1.4,5.2c0.9,1.3,2.4,1.9,4.5,1.9c1.9,0,3.4-0.6,4.4-1.9c1-1.3,1.5-3,1.5-5.2V14.1
				c0-0.4,0.1-0.7,0.4-1c0.3-0.3,0.6-0.4,1-0.4h4.1c0.4,0,0.7,0.1,1,0.4c0.3,0.3,0.4,0.6,0.4,1v25c0,0.4-0.1,0.7-0.4,1
				c-0.3,0.3-0.6,0.4-1,0.4h-4.1c-0.4,0-0.7-0.1-1-0.4c-0.3-0.3-0.4-0.6-0.4-1v-1.2c-0.8,0.8-1.8,1.6-3.1,2.2c-1.2,0.7-2.7,1-4.4,1
				c-2.2,0-4-0.3-5.4-1c-1.4-0.7-2.6-1.6-3.4-2.7c-0.9-1.1-1.5-2.5-1.8-4c-0.4-1.5-0.5-3.1-0.5-4.8V14.1z"/>
			<path id="Fill-6" class="st1" d="M136.9,39.1c0,0.4-0.1,0.7-0.4,1c-0.3,0.3-0.6,0.4-1,0.4h-4.1c-0.4,0-0.7-0.1-1-0.4
				c-0.3-0.3-0.4-0.6-0.4-1V3.9c0-0.4,0.1-0.7,0.4-1c0.3-0.3,0.6-0.4,1-0.4h4.1c0.4,0,0.7,0.1,1,0.4c0.3,0.3,0.4,0.6,0.4,1V39.1z"/>
			<path id="Fill-8" class="st1" d="M149.8,39.1c0,0.4-0.1,0.7-0.4,1c-0.3,0.3-0.6,0.4-1,0.4h-4.1c-0.4,0-0.7-0.1-1-0.4
				c-0.3-0.3-0.4-0.6-0.4-1V3.9c0-0.4,0.1-0.7,0.4-1c0.3-0.3,0.6-0.4,1-0.4h4.1c0.4,0,0.7,0.1,1,0.4c0.3,0.3,0.4,0.6,0.4,1V39.1z"/>
			<path id="Fill-10" class="st1" d="M188,24.7c-0.1,0.5-0.1,1.2-0.1,1.9c0,0.7,0,1.3,0.1,1.9c0.1,1.1,0.4,2.1,0.8,2.8
				c0.4,0.8,0.9,1.4,1.5,1.9c0.6,0.5,1.2,0.8,2,1.1c0.7,0.2,1.5,0.3,2.2,0.3c0.9,0,1.7-0.1,2.3-0.2c0.6-0.1,1.1-0.3,1.6-0.6
				c0.4-0.3,0.8-0.6,1.1-0.9c0.3-0.3,0.6-0.7,0.9-1.2c0.2-0.3,0.5-0.6,0.8-1c0.3-0.3,0.6-0.5,1-0.5h4.1c0.4,0,0.7,0.1,1,0.4
				c0.3,0.3,0.4,0.6,0.4,1c0,0.8-0.3,1.7-0.8,2.7c-0.5,1.1-1.3,2.1-2.3,3.1c-1.1,1-2.4,1.8-4.1,2.5c-1.7,0.7-3.6,1-5.9,1
				c-2,0-3.7-0.3-5.3-1c-1.6-0.7-3-1.6-4.1-2.7c-1.2-1.1-2.1-2.4-2.7-3.9c-0.7-1.5-1.1-3.1-1.2-4.7c-0.1-0.6-0.1-1.4-0.1-2.1
				c0-0.8,0-1.5,0.1-2.2c0.1-1.6,0.5-3.2,1.2-4.7c0.7-1.5,1.6-2.8,2.7-3.9c1.1-1.1,2.5-2,4.1-2.7c1.6-0.7,3.4-1,5.4-1
				c2.3,0,4.3,0.3,5.9,1c1.7,0.7,3,1.5,4.1,2.5c1.1,1,1.8,2,2.3,3.1c0.5,1.1,0.8,2,0.8,2.7c0,0.4-0.1,0.7-0.4,1
				c-0.3,0.3-0.7,0.4-1,0.4H202c-0.4,0-0.7-0.2-1-0.5c-0.3-0.3-0.5-0.6-0.8-1c-0.3-0.4-0.6-0.8-0.9-1.2c-0.3-0.3-0.7-0.6-1.1-0.9
				c-0.4-0.3-1-0.5-1.6-0.6c-0.6-0.1-1.4-0.2-2.3-0.2c-0.8,0-1.5,0.1-2.2,0.3c-0.7,0.2-1.4,0.6-2,1.1c-0.6,0.5-1.1,1.1-1.5,1.9
				C188.4,22.6,188.1,23.6,188,24.7"/>
			<path id="Fill-12" class="st1" d="M225,19.1c-2.2,0-3.7,0.5-4.7,1.4c-1,0.9-1.4,2.5-1.4,4.6v14c0,0.4-0.1,0.7-0.4,1
				c-0.3,0.3-0.6,0.4-1,0.4h-4.1c-0.4,0-0.7-0.1-1-0.4c-0.3-0.3-0.4-0.6-0.4-1v-25c0-0.4,0.1-0.7,0.4-1c0.3-0.3,0.6-0.4,1-0.4h4.1
				c0.4,0,0.7,0.1,1,0.4c0.3,0.3,0.4,0.6,0.4,1v1.2c0.9-0.9,1.9-1.5,3-2c1.1-0.5,2.4-0.7,4.2-0.7h0.4c0.4,0,0.7,0.1,1,0.4
				c0.3,0.3,0.4,0.6,0.4,1v3.5c0,0.4-0.1,0.7-0.4,1c-0.3,0.3-0.6,0.4-1,0.4H225z"/>
			<path id="Fill-14" class="st1" d="M239.8,39.1c0,0.4-0.1,0.7-0.4,1c-0.3,0.3-0.6,0.4-1,0.4h-4.1c-0.4,0-0.7-0.1-1-0.4
				c-0.3-0.3-0.4-0.6-0.4-1v-25c0-0.4,0.1-0.7,0.4-1c0.3-0.3,0.6-0.4,1-0.4h4.1c0.4,0,0.7,0.1,1,0.4c0.3,0.3,0.4,0.6,0.4,1V39.1z
				 M238.7,2.4c0.4,0,0.7,0.1,1,0.4c0.3,0.3,0.4,0.6,0.4,1v4.2c0,0.4-0.1,0.7-0.4,1c-0.3,0.3-0.6,0.4-1,0.4H234
				c-0.4,0-0.7-0.1-1-0.4c-0.3-0.3-0.4-0.6-0.4-1V3.9c0-0.4,0.1-0.7,0.4-1c0.3-0.3,0.6-0.4,1-0.4H238.7z"/>
			<path id="Fill-16" class="st1" d="M265.9,28.1c0.1-1,0.1-2,0-3c-0.2-2.3-0.9-4-2.2-5c-1.2-1-2.7-1.5-4.5-1.5
				c-1.8,0-3.2,0.5-4.4,1.6c-1.2,1-1.9,2.5-2.1,4.5c-0.1,0.5-0.1,1.2-0.1,2s0,1.5,0.1,2c0.2,1.9,0.9,3.3,2.1,4.4
				c1.2,1.1,2.7,1.6,4.4,1.6c1.8,0,3.2-0.5,4.5-1.5C264.9,32.1,265.7,30.4,265.9,28.1 M260.9,41.1c-1.1,0-2.1-0.1-3-0.3
				c-0.9-0.2-1.7-0.5-2.3-0.8c-0.7-0.3-1.2-0.7-1.7-1c-0.5-0.4-0.8-0.7-1.1-1v11.4c0,0.4-0.1,0.7-0.4,1c-0.3,0.3-0.6,0.4-1,0.4h-4.1
				c-0.4,0-0.7-0.1-1-0.4c-0.3-0.3-0.4-0.6-0.4-1V14.1c0-0.4,0.1-0.7,0.4-1c0.3-0.3,0.6-0.4,1-0.4h4.1c0.4,0,0.7,0.1,1,0.4
				c0.3,0.3,0.4,0.6,0.4,1v1.2c0.3-0.3,0.7-0.7,1.1-1c0.5-0.4,1-0.7,1.7-1c0.7-0.3,1.4-0.6,2.3-0.8c0.9-0.2,1.9-0.3,3-0.3
				c1.8,0,3.4,0.3,4.9,1c1.5,0.7,2.7,1.6,3.7,2.8c1,1.2,1.8,2.5,2.4,4c0.6,1.5,0.9,3.1,1,4.7c0,0.5,0.1,1.2,0.1,1.9
				c0,0.7,0,1.3-0.1,1.9c-0.1,1.6-0.4,3.2-1,4.7c-0.6,1.5-1.4,2.9-2.4,4c-1,1.2-2.3,2.1-3.7,2.8C264.3,40.7,262.7,41.1,260.9,41.1"
				/>
			<path id="Fill-18" class="st1" d="M277.6,12.5V3.9c0-0.4,0.1-0.7,0.4-1c0.3-0.3,0.6-0.4,1-0.4h4.1c0.4,0,0.7,0.1,1,0.4
				c0.3,0.3,0.4,0.6,0.4,1v8.7h6.9c0.4,0,0.7,0.1,1,0.4c0.3,0.3,0.4,0.6,0.4,1v3.5c0,0.4-0.1,0.7-0.4,1c-0.3,0.3-0.6,0.4-1,0.4h-6.9
				v11.4c0,1.1,0.3,2,0.9,2.7c0.6,0.7,1.7,1,3.3,1h3.3c0.4,0,0.7,0.1,1,0.4c0.3,0.3,0.4,0.6,0.4,1v3.5c0,0.4-0.1,0.7-0.4,1
				c-0.3,0.3-0.6,0.4-1,0.4h-4c-3.4,0-6-0.8-7.8-2.4c-1.8-1.6-2.7-4.1-2.7-7.5V12.5z"/>
			<path id="Fill-20" class="st1" d="M303,12.8c0.1,0,0.1,0,0.2,0.1c0,0,0.1,0.1,0.1,0.2v0.3c0,0.1,0,0.1-0.1,0.2
				c0,0-0.1,0.1-0.2,0.1h-1.6v4.9c0,0.1,0,0.1-0.1,0.2c0,0-0.1,0.1-0.2,0.1h-0.3c-0.1,0-0.1,0-0.2-0.1c0,0-0.1-0.1-0.1-0.2v-4.9
				h-1.6c-0.1,0-0.1,0-0.2-0.1c0,0-0.1-0.1-0.1-0.2V13c0-0.1,0-0.1,0.1-0.2c0,0,0.1-0.1,0.2-0.1H303z"/>
			<path id="Fill-22" class="st1" d="M306.8,16.3l1.7-3.3c0-0.1,0.1-0.1,0.1-0.2c0.1-0.1,0.1-0.1,0.2-0.1h0.3c0.1,0,0.1,0,0.2,0.1
				c0,0,0.1,0.1,0.1,0.2v5.4c0,0.1,0,0.1-0.1,0.2c0,0-0.1,0.1-0.2,0.1h-0.3c-0.1,0-0.1,0-0.2-0.1c0,0-0.1-0.1-0.1-0.2v-4l-1.3,2.5
				c0,0.1-0.1,0.1-0.1,0.2c-0.1,0-0.1,0.1-0.2,0.1h-0.3c-0.1,0-0.2,0-0.2-0.1c-0.1,0-0.1-0.1-0.1-0.2l-1.3-2.5v4
				c0,0.1,0,0.1-0.1,0.2c0,0-0.1,0.1-0.2,0.1h-0.3c-0.1,0-0.1,0-0.2-0.1c0,0-0.1-0.1-0.1-0.2V13c0-0.1,0-0.1,0.1-0.2
				c0,0,0.1-0.1,0.2-0.1h0.3c0.1,0,0.2,0,0.2,0.1c0.1,0.1,0.1,0.1,0.1,0.2L306.8,16.3z"/>
			<path id="Fill-24" class="st1" d="M170.8,32.6c0-0.4-0.1-0.7-0.4-1c-0.3-0.3-0.7-0.5-1.3-0.7c-0.6-0.2-1.5-0.4-2.5-0.6
				c-1-0.2-2.4-0.5-4-0.9c-1.6-0.4-2.9-0.8-3.9-1.3c-1-0.5-1.9-1.2-2.5-1.9c-0.6-0.7-1.1-1.5-1.3-2.4c-0.3-0.9-0.4-1.9-0.4-3
				c0-1.1,0.3-2.1,0.8-3.2c0.5-1,1.2-2,2.2-2.8c1-0.8,2.1-1.5,3.5-2c1.4-0.5,2.9-0.8,4.7-0.8c1.8,0,3.3,0.2,4.7,0.6
				c1.4,0.4,2.6,0.9,3.5,1.6c1,0.6,1.7,1.4,2.3,2.2c0.5,0.8,0.8,1.7,0.9,2.6c0,0.4-0.1,0.7-0.4,1c-0.3,0.3-0.7,0.4-1.1,0.4h-4.2
				c-0.5,0-0.9-0.1-1.2-0.3c-0.3-0.2-0.6-0.4-0.9-0.7c-0.3-0.3-0.8-0.5-1.3-0.7c-0.5-0.2-1.3-0.3-2.4-0.3c-1.1,0-2,0.2-2.9,0.5
				c-0.8,0.3-1.2,0.9-1.2,1.7c0,0.4,0.1,0.7,0.3,1c0.2,0.3,0.6,0.5,1.1,0.7c0.6,0.2,1.3,0.4,2.3,0.7c1,0.2,2.3,0.5,3.9,0.8
				c3.2,0.7,5.5,1.8,6.8,3.2c1.3,1.5,2,3.3,2,5.4c0,1.1-0.3,2.1-0.8,3.1c-0.5,1-1.3,1.9-2.3,2.7c-1,0.8-2.3,1.5-3.8,1.9
				c-1.5,0.5-3.2,0.7-5,0.7c-1.9,0-3.6-0.2-5-0.7c-1.5-0.4-2.7-1-3.7-1.7c-1-0.7-1.8-1.5-2.3-2.4c-0.5-0.9-0.8-1.8-0.9-2.6
				c0-0.4,0.1-0.7,0.4-1c0.3-0.3,0.7-0.4,1.1-0.4h4.2c0.5,0,0.9,0.1,1.2,0.4c0.3,0.3,0.6,0.5,0.9,0.9c0.3,0.3,0.8,0.6,1.4,0.9
				c0.6,0.3,1.5,0.4,2.8,0.4c0.5,0,1.1,0,1.7-0.1c0.6-0.1,1.1-0.2,1.6-0.3c0.5-0.2,0.9-0.4,1.2-0.6C170.6,33.3,170.8,33,170.8,32.6"
				/>
			<path id="Fill-28" class="st1" d="M46,17c0,0,0,0.1,0,0.1c0,0.6-1,14.3-17.9,20.4c0,0,0,0,0,0v-8.4l0,0l10.2-11
				c0.9-1,0.9-2.5-0.1-3.5c-1-0.9-2.6-0.9-3.5,0.1l-6.6,7.1l0,0v-7.3c0,0,0,0,0-0.1c0.8-1.8,4.7-9.2,14.4-9.2c0.1,0,0.2,0,0.3,0
				C46.6,9.9,46,16.9,46,17z M23.1,21.9L23.1,21.9l-6.6-7.1c-0.9-1-2.5-1.1-3.5-0.1c-1,0.9-1.1,2.5-0.1,3.5l10.2,11l0,0v8.4
				c0,0,0,0,0,0C6.2,31.4,5.2,17.7,5.2,17.1c0,0,0-0.1,0-0.1c0-0.1-0.6-7.1,3.2-11.7c0.1,0,0.2,0,0.3,0c9.7,0,13.6,7.3,14.4,9.2
				c0,0,0,0,0,0V21.9z M45.7,1.2c-0.4-0.4-1-0.7-1.6-0.7C34.8-0.1,28.8,4.6,25.6,9c-3.2-4.4-9.2-9.1-18.5-8.5
				c-0.6,0-1.2,0.3-1.6,0.7c-6,5.9-5.3,15.3-5.2,16.2c0,0.7,0.4,5.3,3.5,10.6c2.9,5.1,8.9,11.8,21,15.2c0.1,0,0.1,0,0.2,0.1h0
				c0,0,0.1,0,0.1,0c0.1,0,0.1,0,0.2,0c0.1,0,0.2,0,0.3,0c0.1,0,0.2,0,0.3,0c0.1,0,0.1,0,0.2,0c0.1,0,0.1,0,0.2,0
				c0.1,0,0.1,0,0.2-0.1c22.4-6.3,24.3-24.1,24.4-25.7C51,16.9,51.8,7.3,45.7,1.2z"/>
			<path id="Fill-30" class="st1" d="M26.1,43.3c0.1,0,0.1,0,0.2,0c0.1,0,0.1,0,0.2-0.1C26.3,43.3,26.2,43.3,26.1,43.3z M28.1,29.1
				v8.4c0,0,0,0,0,0L28.1,29.1L28.1,29.1z M28.1,14.6v7.3l0,0L28.1,14.6C28.1,14.5,28.1,14.5,28.1,14.6z"/>
		</g>
	</g>
</g>
</svg>
