<?xml version="1.0" encoding="UTF-8"?>
<svg width="309px" height="51px" viewBox="0 0 309 51" version="1.1" xmlns="http://www.w3.org/2000/svg" xmlns:xlink="http://www.w3.org/1999/xlink">
    <!-- Generator: Sketch 48.2 (47327) - http://www.bohemiancoding.com/sketch -->
    <title>Page 1</title>
    <desc>Created with Sketch.</desc>
    <defs></defs>
    <g id="06" stroke="none" stroke-width="1" fill="none" fill-rule="evenodd" transform="translate(-432.000000, -539.000000)">
        <g id="Group-2" transform="translate(400.000000, 513.000000)" fill="#404F5E">
            <g id="Page-1" transform="translate(32.000000, 26.000000)">
                <path d="M91.4624479,2.4705055 C91.8565758,2.4705055 92.1970872,2.61321193 92.4835119,2.89815688 C92.7699365,3.18310183 92.9129137,3.52185413 92.9129137,3.91394587 L92.9129137,7.70900092 C92.9129137,8.10109266 92.7699365,8.43984495 92.4835119,8.72478991 C92.1970872,9.01020275 91.8565758,9.15244128 91.4624479,9.15244128 L74.3221192,9.15244128 L74.3221192,20.0570835 L90.3877676,20.0570835 C90.7818954,20.0570835 91.1219365,20.199322 91.4088315,20.484267 C91.6952562,20.7692119 91.8387037,21.1079642 91.8387037,21.500056 L91.8387037,25.295111 C91.8387037,25.6872028 91.6952562,26.025955 91.4088315,26.3109 C91.1219365,26.5963128 90.7818954,26.7385514 90.3877676,26.7385514 L74.3221192,26.7385514 L74.3221192,38.9794872 C74.3221192,39.3715789 74.1786717,39.7098633 73.892247,39.9948083 C73.6058224,40.2802211 73.265311,40.4224596 72.8716534,40.4224596 L68.5193155,40.4224596 C68.1251877,40.4224596 67.7846763,40.2802211 67.4982516,39.9948083 C67.2118269,39.7098633 67.0683795,39.3715789 67.0683795,38.9794872 L67.0683795,3.91394587 C67.0683795,3.52185413 67.2118269,3.18310183 67.4982516,2.89815688 C67.7846763,2.61321193 68.1251877,2.4705055 68.5193155,2.4705055 L91.4624479,2.4705055 Z" id="Fill-1"></path>
                <path d="M97.8833927,14.0699642 C97.8833927,13.6778725 98.0268402,13.3391202 98.3132648,13.0541752 C98.5996895,12.7692303 98.9402009,12.6265239 99.3338584,12.6265239 L103.417644,12.6265239 C103.811772,12.6265239 104.151813,12.7692303 104.438708,13.0541752 C104.725132,13.3391202 104.86858,13.6778725 104.86858,14.0699642 L104.86858,27.6476615 C104.86858,29.7854505 105.32526,31.496056 106.238621,32.7785422 C107.151982,34.0619642 108.647598,34.7034413 110.725,34.7034413 C112.62368,34.7034413 114.074146,34.0619642 115.077338,32.7785422 C116.080059,31.496056 116.58189,29.7854505 116.58189,27.6476615 L116.58189,14.0699642 C116.58189,13.6778725 116.725338,13.3391202 117.011763,13.0541752 C117.298187,12.7692303 117.638228,12.6265239 118.032356,12.6265239 L122.116142,12.6265239 C122.510269,12.6265239 122.850311,12.7692303 123.137205,13.0541752 C123.42363,13.3391202 123.566607,13.6778725 123.566607,14.0699642 L123.566607,38.9794872 C123.566607,39.3715789 123.42363,39.7098633 123.137205,39.9948083 C122.850311,40.2802211 122.510269,40.4224596 122.116142,40.4224596 L118.032356,40.4224596 C117.638228,40.4224596 117.298187,40.2802211 117.011763,39.9948083 C116.725338,39.7098633 116.58189,39.3715789 116.58189,38.9794872 L116.58189,37.7498725 C115.75789,38.5696156 114.736826,39.3088817 113.519169,39.9686064 C112.301041,40.6278633 110.832703,40.9572578 109.113215,40.9572578 C106.92811,40.9572578 105.11926,40.6185055 103.686196,39.9414688 C102.253603,39.2649 101.106963,38.3557899 100.247219,37.2155422 C99.3879452,36.0748266 98.7788813,34.7474229 98.4204977,33.2333312 C98.0625845,31.7187716 97.8833927,30.1242028 97.8833927,28.448689 L97.8833927,14.0699642 Z" id="Fill-3"></path>
                <path d="M136.397726,38.9796275 C136.397726,39.3717193 136.254749,39.7100037 135.967854,39.9949486 C135.68143,40.2798936 135.340918,40.4226 134.947261,40.4226 L130.863475,40.4226 C130.469818,40.4226 130.129306,40.2798936 129.842411,39.9949486 C129.555987,39.7100037 129.412539,39.3717193 129.412539,38.9796275 L129.412539,3.91408624 C129.412539,3.5219945 129.555987,3.1832422 129.842411,2.89829725 C130.129306,2.6128844 130.469818,2.47064587 130.863475,2.47064587 L134.947261,2.47064587 C135.340918,2.47064587 135.68143,2.6128844 135.967854,2.89829725 C136.254749,3.1832422 136.397726,3.5219945 136.397726,3.91408624 L136.397726,38.9796275 Z" id="Fill-5"></path>
                <path d="M149.338618,38.9796275 C149.338618,39.3717193 149.195171,39.7100037 148.908746,39.9949486 C148.622321,40.2798936 148.28181,40.4226 147.888153,40.4226 L143.804367,40.4226 C143.410239,40.4226 143.069728,40.2798936 142.783303,39.9949486 C142.496879,39.7100037 142.353431,39.3717193 142.353431,38.9796275 L142.353431,3.91408624 C142.353431,3.5219945 142.496879,3.1832422 142.783303,2.89829725 C143.069728,2.6128844 143.410239,2.47064587 143.804367,2.47064587 L147.888153,2.47064587 C148.28181,2.47064587 148.622321,2.6128844 148.908746,2.89829725 C149.195171,3.1832422 149.338618,3.5219945 149.338618,3.91408624 L149.338618,38.9796275 Z" id="Fill-7"></path>
                <path d="M187.461129,24.6536807 C187.38964,25.1884789 187.353426,25.8121761 187.353426,26.5247725 C187.353426,27.2373688 187.38964,27.8610661 187.461129,28.3953963 C187.568832,29.5000844 187.819512,30.4447541 188.21317,31.2289376 C188.607298,32.0126532 189.099722,32.6452404 189.690914,33.1262312 C190.281636,33.6076899 190.93585,33.9632862 191.652147,34.1953596 C192.368444,34.4269651 193.102613,34.5430018 193.855124,34.5430018 C194.750613,34.5430018 195.503124,34.4714147 196.111718,34.3291761 C196.720311,34.1864697 197.240015,33.9815339 197.669887,33.7139009 C198.099759,33.4472037 198.466608,33.144011 198.771375,32.8057266 C199.075672,32.4669743 199.371503,32.0837725 199.657928,31.656589 C199.872864,31.3356165 200.123544,31.0151119 200.409969,30.6941394 C200.696864,30.3736349 201.036905,30.2131486 201.431033,30.2131486 L205.514818,30.2131486 C205.908946,30.2131486 206.257923,30.355855 206.56222,30.6408 C206.866987,30.925745 207.001499,31.2644972 206.965754,31.656589 C206.93001,32.4042771 206.660987,33.3133872 206.159626,34.3825156 C205.657795,35.451644 204.878946,36.4763229 203.822138,37.4560844 C202.76533,38.4358459 201.413161,39.2649468 199.765161,39.9415156 C198.117631,40.6185523 196.147462,40.9573046 193.855124,40.9573046 C191.884485,40.9573046 190.11185,40.6279101 188.535339,39.9681853 C186.959768,39.3089284 185.589727,38.4180661 184.425216,37.2960661 C183.260704,36.1731303 182.347343,34.8723963 181.685133,33.3938642 C181.022453,31.9148642 180.618919,30.355855 180.475471,28.7163688 C180.403983,28.0748917 180.368238,27.3622954 180.368238,26.5781119 C180.368238,25.7943963 180.403983,25.0635523 180.475471,24.3865156 C180.583174,22.7474972 180.977302,21.1791303 181.657855,19.6828183 C182.338407,18.1860385 183.252238,16.8764147 184.397937,15.7539468 C185.544576,14.631011 186.914617,13.7406165 188.509001,13.0813596 C190.102444,12.4216349 191.884485,12.0922404 193.855124,12.0922404 C196.147462,12.0922404 198.117631,12.4309927 199.765161,13.1075615 C201.413161,13.7850661 202.76533,14.6132312 203.822138,15.5934606 C204.878946,16.573222 205.657795,17.5979009 206.159626,18.6670294 C206.660987,19.7361578 206.93001,20.6448 206.965754,21.392956 C207.001499,21.7850477 206.866987,22.1238 206.56222,22.408745 C206.257923,22.6941578 205.908946,22.8363963 205.514818,22.8363963 L201.431033,22.8363963 C201.036905,22.8363963 200.696864,22.6759101 200.409969,22.3554055 C200.123544,22.034433 199.872864,21.7139284 199.657928,21.392956 C199.371503,20.9653046 199.075672,20.5825706 198.771375,20.2438183 C198.466608,19.9055339 198.099759,19.6023413 197.669887,19.3351761 C197.240015,19.068011 196.720311,18.8630752 196.111718,18.7203688 C195.503124,18.5781303 194.750613,18.5065431 193.855124,18.5065431 C193.102613,18.5065431 192.368444,18.6221119 191.652147,18.8537174 C190.93585,19.0857908 190.281636,19.441855 189.690914,19.9233138 C189.099722,20.4043046 188.607298,21.0368917 188.21317,21.8206073 C187.819512,22.6047908 187.568832,23.5494606 187.461129,24.6536807" id="Fill-9"></path>
                <path d="M224.44001,19.0412945 C222.29112,19.0412945 220.741887,19.5133954 219.792311,20.4575972 C218.843206,21.402267 218.368654,22.9434963 218.368654,25.0812853 L218.368654,38.9794872 C218.368654,39.3715789 218.225206,39.7098633 217.938782,39.9948083 C217.651887,40.2802211 217.311846,40.4224596 216.917718,40.4224596 L212.833932,40.4224596 C212.439805,40.4224596 212.100234,40.2802211 211.813339,39.9948083 C211.526914,39.7098633 211.383467,39.3715789 211.383467,38.9794872 L211.383467,14.0699642 C211.383467,13.6778725 211.526914,13.3391202 211.813339,13.0541752 C212.100234,12.7692303 212.439805,12.6265239 212.833932,12.6265239 L216.917718,12.6265239 C217.311846,12.6265239 217.651887,12.7692303 217.938782,13.0541752 C218.225206,13.3391202 218.368654,13.6778725 218.368654,14.0699642 L218.368654,15.2995789 C219.299887,14.4442761 220.294142,13.7850193 221.350951,13.3213404 C222.407289,12.8581294 223.795672,12.6265239 225.51469,12.6265239 L225.908818,12.6265239 C226.302946,12.6265239 226.643458,12.7692303 226.929882,13.0541752 C227.216307,13.3391202 227.359284,13.6778725 227.359284,14.0699642 L227.359284,17.5978541 C227.359284,17.9899459 227.216307,18.3286982 226.929882,18.6136431 C226.643458,18.8985881 226.302946,19.0412945 225.908818,19.0412945 L224.44001,19.0412945 Z" id="Fill-11"></path>
                <path d="M239.2064,38.9796275 C239.2064,39.3717193 239.062953,39.7100037 238.776528,39.9949486 C238.490104,40.2798936 238.149592,40.4226 237.755464,40.4226 L233.671679,40.4226 C233.278021,40.4226 232.93751,40.2798936 232.651085,39.9949486 C232.36419,39.7100037 232.220743,39.3717193 232.220743,38.9796275 L232.220743,14.0701046 C232.220743,13.6780128 232.36419,13.3392606 232.651085,13.0543156 C232.93751,12.7689028 233.278021,12.6266642 233.671679,12.6266642 L237.755464,12.6266642 C238.149592,12.6266642 238.490104,12.7689028 238.776528,13.0543156 C239.062953,13.3392606 239.2064,13.6780128 239.2064,14.0701046 L239.2064,38.9796275 Z M238.024017,2.47064587 C238.418145,2.47064587 238.758656,2.6128844 239.045081,2.89829725 C239.331976,3.1832422 239.474483,3.5219945 239.474483,3.91408624 L239.474483,8.08345321 C239.474483,8.47554495 239.331976,8.81336147 239.045081,9.09877431 C238.758656,9.38371927 238.418145,9.52642569 238.024017,9.52642569 L233.403126,9.52642569 C233.008999,9.52642569 232.668958,9.38371927 232.382063,9.09877431 C232.095638,8.81336147 231.95219,8.47554495 231.95219,8.08345321 L231.95219,3.91408624 C231.95219,3.5219945 232.095638,3.1832422 232.382063,2.89829725 C232.668958,2.6128844 233.008999,2.47064587 233.403126,2.47064587 L238.024017,2.47064587 Z" id="Fill-13"></path>
                <path d="M265.192501,28.0212248 C265.300204,27.0236835 265.300204,26.0256743 265.192501,25.028133 C264.977565,22.7116101 264.261268,21.045922 263.04314,20.030133 C261.825483,19.014344 260.338802,18.5066835 258.583569,18.5066835 C256.828337,18.5066835 255.350592,19.0237018 254.150337,20.0572706 C252.950551,21.0903716 252.261063,22.5693716 252.081871,24.4933349 C252.010382,25.028133 251.974638,25.7051697 251.974638,26.5249128 C251.974638,27.344656 252.010382,28.0212248 252.081871,28.5560229 C252.261063,30.4093349 252.950551,31.8700872 254.150337,32.9392156 C255.350592,34.008344 256.828337,34.5426743 258.583569,34.5426743 C260.338802,34.5426743 261.825483,34.0350138 263.04314,33.0196927 C264.261268,32.0039037 264.977565,30.3377477 265.192501,28.0212248 M260.195355,40.9569771 C259.08493,40.9569771 258.090674,40.8502982 257.213058,40.6364725 C256.335912,40.4226468 255.565528,40.1554817 254.902848,39.8345092 C254.240168,39.5135367 253.676254,39.1663624 253.210168,38.7925183 C252.744551,38.4182064 252.368295,38.0710321 252.081871,37.7500596 L252.081871,49.1356927 C252.081871,49.5277844 251.938423,49.8660688 251.651999,50.1514817 C251.365574,50.4364266 251.025063,50.579133 250.631405,50.579133 L246.54762,50.579133 C246.153962,50.579133 245.813451,50.4364266 245.527026,50.1514817 C245.240131,49.8660688 245.096684,49.5277844 245.096684,49.1356927 L245.096684,14.0701514 C245.096684,13.6780596 245.240131,13.3393073 245.527026,13.0543624 C245.813451,12.7689495 246.153962,12.626711 246.54762,12.626711 L250.631405,12.626711 C251.025063,12.626711 251.365574,12.7689495 251.651999,13.0543624 C251.938423,13.3393073 252.081871,13.6780596 252.081871,14.0701514 L252.081871,15.2997661 C252.368295,14.9787936 252.744551,14.6311514 253.210168,14.2573073 C253.676254,13.8829954 254.240168,13.5353532 254.902848,13.2143807 C255.565528,12.8938761 256.335912,12.626711 257.213058,12.4133532 C258.090674,12.1995275 259.08493,12.0923807 260.195355,12.0923807 C261.986802,12.0923807 263.607524,12.439555 265.057989,13.1348394 C266.508926,13.829656 267.744926,14.7556101 268.765519,15.9141055 C269.786583,17.0726009 270.592241,18.4084266 271.183432,19.9229862 C271.774624,21.4380138 272.105729,23.0148028 272.177688,24.6538211 C272.213432,25.1881514 272.231305,25.8118486 272.231305,26.5249128 C272.231305,27.2375092 272.213432,27.8612064 272.177688,28.3955367 C272.105729,30.0350229 271.774624,31.6118119 271.183432,33.1263716 C270.592241,34.6404633 269.786583,35.9772248 268.765519,37.1352523 C267.744926,38.2932798 266.508926,39.2201697 265.057989,39.9149862 C263.607524,40.6098028 261.986802,40.9569771 260.195355,40.9569771" id="Fill-15"></path>
                <path d="M276.954631,12.5036092 L276.954631,3.91408624 C276.954631,3.5219945 277.098078,3.1832422 277.384503,2.89829725 C277.670457,2.6128844 278.010968,2.47064587 278.405096,2.47064587 L282.488882,2.47064587 C282.882539,2.47064587 283.223051,2.6128844 283.509946,2.89829725 C283.79637,3.1832422 283.939818,3.5219945 283.939818,3.91408624 L283.939818,12.6266642 L290.870918,12.6266642 C291.265046,12.6266642 291.605087,12.7689028 291.891982,13.0543156 C292.178407,13.3392606 292.321854,13.6780128 292.321854,14.0701046 L292.321854,17.5979945 C292.321854,17.9900862 292.178407,18.3283706 291.891982,18.6137835 C291.605087,18.8987284 291.265046,19.0414349 290.870918,19.0414349 L283.939818,19.0414349 L283.939818,30.3732606 C283.939818,31.4784165 284.234708,32.3599211 284.8259,33.0196459 C285.417092,33.6789028 286.51858,34.0082972 288.130836,34.0082972 L291.408023,34.0082972 C291.802151,34.0082972 292.142663,34.1510037 292.429087,34.4359486 C292.715982,34.7208936 292.858959,35.0596459 292.858959,35.4517376 L292.858959,38.9796275 C292.858959,39.3717193 292.715982,39.7095358 292.429087,39.9949486 C292.142663,40.2798936 291.802151,40.4226 291.408023,40.4226 L287.431941,40.4226 C284.064923,40.4226 281.476754,39.6122147 279.667905,37.9905083 C277.859055,36.3692697 276.954631,33.8833706 276.954631,30.5337468 L276.954631,12.5036092 Z" id="Fill-18"></path>
                <path d="M302.302272,12.7736752 C302.363884,12.7736752 302.41656,12.7956661 302.46124,12.8401156 C302.505921,12.8840972 302.528496,12.9374367 302.528496,12.9977945 L302.528496,13.2977119 C302.528496,13.3585376 302.505921,13.4114092 302.46124,13.4558587 C302.41656,13.5003083 302.363884,13.5222991 302.302272,13.5222991 L300.73893,13.5222991 L300.73893,18.3710422 C300.73893,18.4323358 300.717295,18.4847394 300.672615,18.5287211 C300.627934,18.5736385 300.574788,18.5951615 300.513647,18.5951615 L300.170784,18.5951615 C300.109172,18.5951615 300.056496,18.5736385 300.011816,18.5287211 C299.967135,18.4847394 299.94503,18.4323358 299.94503,18.3710422 L299.94503,13.5222991 L298.381688,13.5222991 C298.320076,13.5222991 298.2674,13.5003083 298.22272,13.4558587 C298.178039,13.4114092 298.156405,13.3585376 298.156405,13.2977119 L298.156405,12.9977945 C298.156405,12.9374367 298.178039,12.8840972 298.22272,12.8401156 C298.2674,12.7956661 298.320076,12.7736752 298.381688,12.7736752 L302.302272,12.7736752 Z" id="Fill-20"></path>
                <path d="M306.039103,16.2915055 L307.728021,13.0401385 C307.761413,12.9727624 307.807505,12.9119367 307.866295,12.8567257 C307.924144,12.8015147 308.001276,12.7734413 308.096281,12.7734413 L308.413276,12.7734413 C308.474888,12.7734413 308.527564,12.7954321 308.572244,12.8398817 C308.616454,12.8843312 308.6395,12.9372028 308.6395,12.9980284 L308.6395,18.3708083 C308.6395,18.4321018 308.616454,18.4845055 308.572244,18.5284872 C308.527564,18.5734046 308.474888,18.5953954 308.413276,18.5953954 L308.070884,18.5953954 C308.009272,18.5953954 307.956596,18.5734046 307.911916,18.5284872 C307.867705,18.4845055 307.8456,18.4321018 307.8456,18.3708083 L307.8456,14.4288358 L306.540934,16.9320468 C306.496724,17.0148633 306.448751,17.0808358 306.399368,17.1276248 C306.348573,17.1744138 306.282258,17.1978083 306.198071,17.1978083 L305.880605,17.1978083 C305.796888,17.1978083 305.730573,17.1744138 305.679779,17.1276248 C305.629454,17.0808358 305.582422,17.0148633 305.538212,16.9320468 L304.233546,14.4288358 L304.233546,18.3708083 C304.233546,18.4321018 304.211441,18.4845055 304.167231,18.5284872 C304.12255,18.5734046 304.069404,18.5953954 304.008263,18.5953954 L303.664929,18.5953954 C303.603317,18.5953954 303.550642,18.5734046 303.505961,18.5284872 C303.461751,18.4845055 303.439646,18.4321018 303.439646,18.3708083 L303.439646,12.9980284 C303.439646,12.9372028 303.461751,12.8843312 303.505961,12.8398817 C303.550642,12.7954321 303.603317,12.7734413 303.664929,12.7734413 L303.982865,12.7734413 C304.07787,12.7734413 304.154062,12.8015147 304.212852,12.8567257 C304.270701,12.9119367 304.317733,12.9727624 304.350185,13.0401385 L306.039103,16.2915055 Z" id="Fill-22"></path>
                <path d="M170.235249,32.4839587 C170.235249,32.0909312 170.109203,31.7694908 169.858053,31.5187018 C169.606432,31.2688486 169.166212,31.0358394 168.537865,30.821078 C167.908578,30.6067844 167.072349,30.3920229 166.030591,30.1777294 C164.987893,29.9629679 163.658769,29.677555 162.04134,29.3196193 C160.459185,28.9626193 159.147934,28.5153165 158.105705,27.9786468 C157.063007,27.4429128 156.227249,26.8178119 155.598902,26.1014725 C154.970084,25.3870046 154.529395,24.573344 154.278244,23.6618945 C154.026623,22.7495092 153.901048,21.7575826 153.901048,20.684711 C153.901048,19.6123073 154.151728,18.5581514 154.655441,17.5208394 C155.158212,16.4844633 155.885797,15.5631881 156.839135,14.7588853 C157.791062,13.9541147 158.949929,13.302344 160.316208,12.8012339 C161.681546,12.3005917 163.245358,12.0502706 165.006235,12.0502706 C166.766642,12.0502706 168.33939,12.2472523 169.723541,12.6402798 C171.106751,13.0342431 172.283961,13.5521972 173.254701,14.1955459 C174.22497,14.8393624 174.979833,15.5814358 175.51882,16.4212982 C176.057806,17.2616284 176.362573,18.1103807 176.435473,18.9684908 C176.470747,19.3624541 176.335765,19.7021422 176.030527,19.9880229 C175.72529,20.2739037 175.374902,20.417078 174.979833,20.417078 L170.828792,20.417078 C170.289336,20.417078 169.885331,20.3188211 169.615368,20.1218394 C169.345874,19.9257936 169.049573,19.7021422 168.725993,19.4513532 C168.402884,19.2015 167.9716,18.9783165 167.432144,18.7813349 C166.893628,18.585289 166.084678,18.4860963 165.006235,18.4860963 C163.928263,18.4860963 162.975395,18.6470505 162.149043,18.9684908 C161.321751,19.290867 160.909281,19.8626284 160.909281,20.684711 C160.909281,21.0786743 161.007578,21.4090046 161.205582,21.6771055 C161.403116,21.9456743 161.779842,22.1866376 162.337642,22.4013991 C162.89497,22.6156927 163.666765,22.8398119 164.656317,23.0718853 C165.643989,23.3044266 166.928432,23.5814174 168.510587,23.9028578 C171.70876,24.5822339 173.963943,25.6462156 175.276135,27.093867 C176.587856,28.5419862 177.243952,30.3386835 177.243952,32.4839587 C177.243952,33.5563624 176.974459,34.6020963 176.435473,35.6211606 C175.896016,36.6402248 175.114345,37.5521422 174.089989,38.3569128 C173.066103,39.1612156 171.807527,39.8045642 170.316614,40.2874266 C168.82476,40.7698211 167.144308,41.0117202 165.276199,41.0117202 C163.370463,41.0117202 161.690482,40.7876009 160.234842,40.3407661 C158.779674,39.8943991 157.547906,39.3137477 156.542833,38.5978761 C155.535879,37.8829404 154.763614,37.0786376 154.224158,36.1845 C153.685642,35.2912982 153.397336,34.4149404 153.361591,33.5563624 C153.325377,33.1633349 153.460358,32.8241147 153.765596,32.5372982 C154.071304,32.2518853 154.421692,32.1082431 154.817231,32.1082431 L158.968742,32.1082431 C159.507258,32.1082431 159.911733,32.2341055 160.181226,32.4839587 C160.450719,32.7342798 160.755957,33.0201606 161.097879,33.3420688 C161.439331,33.6635092 161.914824,33.9503257 162.52624,34.2001789 C163.137185,34.4505 164.053368,34.5758945 165.276199,34.5758945 C165.815185,34.5758945 166.371573,34.5408028 166.947244,34.4682798 C167.521505,34.3971606 168.052025,34.280656 168.537865,34.1197018 C169.022765,33.9587477 169.426769,33.7439862 169.750349,33.4758853 C170.073459,33.2082523 170.235249,32.877922 170.235249,32.4839587" id="Fill-25"></path>
                <path d="M45.6809233,16.9851055 C45.6762201,17.0225367 45.6710466,17.0693257 45.6710466,17.1067569 C45.6385945,17.7150138 44.7214712,31.3072156 27.7946676,37.4365734 C27.7852612,37.4412523 27.780558,37.4412523 27.7711516,37.4454633 L27.7711516,29.0566651 L27.7946676,29.0332706 L38.0147132,18.075289 C38.9365397,17.0880413 38.8801014,15.5393257 37.8830237,14.6175826 C36.8859461,13.7000505 35.3291881,13.7566651 34.4026584,14.7485917 L27.7946676,21.8371239 L27.7711516,21.8605183 L27.7711516,14.5567569 C27.780558,14.5380413 27.7852612,14.5240046 27.7946676,14.505289 C28.6130237,12.6898761 32.5307863,5.36272018 42.2193708,5.36272018 C42.3134347,5.36272018 42.4074986,5.36272018 42.5015626,5.36739908 C46.2923388,9.8825367 45.6856265,16.914922 45.6809233,16.9851055 Z M22.870421,21.8605183 L22.8516082,21.8371239 L16.2389142,14.7485917 C15.3170877,13.7566651 13.7556265,13.6958394 12.7632521,14.6175826 C11.7661744,15.5393257 11.7050329,17.0880413 12.6310922,18.075289 L22.8516082,29.0332706 L22.870421,29.0519862 L22.870421,37.4454633 C22.8657178,37.4454633 22.8563114,37.4412523 22.8516082,37.4412523 C5.92010137,31.3118945 5.00297808,17.7150138 4.9747589,17.1161147 C4.97005571,17.0740046 4.96535251,17.0272156 4.96535251,16.9851055 C4.95594612,16.9102431 4.32101461,9.91061009 8.14001005,5.36739908 C8.23877717,5.36272018 8.33754429,5.36272018 8.43631142,5.36272018 C18.1625215,5.36272018 22.0285489,12.6711606 22.8516082,14.5146468 C22.8563114,14.5286835 22.8657178,14.5427202 22.870421,14.5567569 L22.870421,21.8605183 Z M45.3611059,1.23125229 C44.9378183,0.810151376 44.3734347,0.552811927 43.7761288,0.515380734 C34.5061288,-0.050766055 28.5095534,4.60941743 25.3254895,8.99354587 C22.1367224,4.60941743 16.140147,-0.0554449541 6.86967671,0.515380734 C6.2681379,0.552811927 5.70375434,0.810151376 5.28046667,1.23125229 C-0.673779909,7.15473853 -0.0200356164,16.4891422 0.0599187215,17.4015275 C0.0975442922,18.0659312 0.483206393,22.665289 3.51206484,27.9430872 C6.41393699,33.0005092 12.4011059,39.724555 24.4836174,43.0980413 C24.5447589,43.1167569 24.6106037,43.1354725 24.6764484,43.1541881 L24.6811516,43.1541881 C24.7281836,43.1682248 24.7705123,43.1771147 24.8175443,43.1869404 C24.8786858,43.2009771 24.9398274,43.2103349 25.0056721,43.2196927 C25.1138457,43.2384083 25.2220192,43.2430872 25.3297224,43.2430872 C25.433663,43.2430872 25.5371333,43.2384083 25.6406037,43.2196927 C25.697042,43.2103349 25.7534804,43.2009771 25.8099187,43.1916193 C25.8616539,43.1822615 25.913389,43.1682248 25.9651242,43.1541881 C26.0352018,43.1354725 26.1062201,43.1167569 26.176768,43.0933624 C48.5075443,36.8423532 50.4452612,19.1140046 50.5769507,17.4529954 C50.633389,16.9102431 51.4517452,7.29042661 45.3611059,1.23125229 Z" id="Fill-29"></path>
            </g>
        </g>
    </g>
</svg>