<?xml version="1.0" encoding="UTF-8"?>
<svg width="309px" height="51px" viewBox="0 0 309 51" version="1.1" xmlns="http://www.w3.org/2000/svg" xmlns:xlink="http://www.w3.org/1999/xlink">
    <!-- Generator: Sketch 48.2 (47327) - http://www.bohemiancoding.com/sketch -->
    <title>Page 1</title>
    <desc>Created with Sketch.</desc>
    <defs></defs>
    <g id="06" stroke="none" stroke-width="1" fill="none" fill-rule="evenodd" transform="translate(-402.000000, -371.000000)">
        <g id="Page-1" transform="translate(402.000000, 371.000000)">
            <path d="M45.6809233,16.9851055 C45.6762201,17.0225367 45.6710466,17.0693257 45.6710466,17.1067569 C45.6385945,17.7150138 44.7214712,31.3072156 27.7946676,37.4365734 C27.7852612,37.4412523 27.780558,37.4412523 27.7711516,37.4459312 L27.7711516,29.0566651 L27.7946676,29.0332706 L38.0147132,18.075289 C38.9365397,17.0880413 38.8801014,15.5393257 37.8830237,14.6175826 C36.8859461,13.7005183 35.3291881,13.7566651 34.4026584,14.7485917 L27.7946676,21.8371239 L27.7711516,21.8605183 L27.7711516,14.5567569 C27.780558,14.5380413 27.7852612,14.5240046 27.7946676,14.505289 C28.6130237,12.6898761 32.5307863,5.36272018 42.2193708,5.36272018 C42.3134347,5.36272018 42.4074986,5.36272018 42.5015626,5.36739908 C46.2923388,9.8825367 45.6856265,16.914922 45.6809233,16.9851055 Z M22.870421,21.8605183 L22.8516082,21.8371239 L16.2389142,14.7485917 C15.3170877,13.7566651 13.7556265,13.6958394 12.7632521,14.6175826 C11.7661744,15.5393257 11.7050329,17.0880413 12.6310922,18.075289 L22.8516082,29.0332706 L22.870421,29.0519862 L22.870421,37.4459312 C22.8657178,37.4459312 22.8563114,37.4412523 22.8516082,37.4412523 C5.92010137,31.3118945 5.00297808,17.7150138 4.9747589,17.1161147 C4.97005571,17.0740046 4.96535251,17.0272156 4.96535251,16.9851055 C4.95594612,16.9102431 4.32101461,9.91061009 8.14001005,5.36739908 C8.23877717,5.36272018 8.33754429,5.36272018 8.43631142,5.36272018 C18.1625215,5.36272018 22.0285489,12.6711606 22.8516082,14.5146468 C22.8563114,14.5286835 22.8657178,14.5427202 22.870421,14.5567569 L22.870421,21.8605183 Z M45.3611059,1.23125229 C44.9378183,0.810151376 44.3734347,0.552811927 43.7761288,0.515380734 C34.5061288,-0.050766055 28.5095534,4.60941743 25.3254895,8.99354587 C22.1367224,4.60941743 16.140147,-0.0554449541 6.86967671,0.515380734 C6.2681379,0.552811927 5.70375434,0.810151376 5.28046667,1.23125229 C-0.673779909,7.15473853 -0.0200356164,16.4891422 0.0599187215,17.4015275 C0.0975442922,18.0659312 0.483206393,22.665289 3.51206484,27.9430872 C6.41393699,33.0009771 12.4011059,39.724555 24.4836174,43.0980413 C24.5447589,43.1167569 24.6106037,43.1354725 24.6764484,43.1541881 L24.6811516,43.1541881 C24.7281836,43.1682248 24.7705123,43.1775826 24.8175443,43.1869404 C24.8786858,43.2009771 24.9398274,43.2103349 25.0056721,43.2196927 C25.1138457,43.2384083 25.2220192,43.2430872 25.3297224,43.2430872 C25.433663,43.2430872 25.5371333,43.2384083 25.6406037,43.2196927 L25.8099187,43.1916193 C25.8616539,43.1822615 25.913389,43.1682248 25.9651242,43.1541881 C26.0352018,43.1354725 26.1062201,43.1167569 26.176768,43.0933624 C48.5075443,36.8423532 50.4452612,19.1140046 50.5769507,17.4529954 C50.633389,16.9102431 51.4517452,7.29042661 45.3611059,1.23125229 Z" id="Fill-3" fill="#88B04B"></path>
            <path d="M91.4624479,2.47022477 C91.8565758,2.47022477 92.1970872,2.61293119 92.4835119,2.89787615 C92.7699365,3.1828211 92.9129137,3.52157339 92.9129137,3.91319725 L92.9129137,7.70872018 C92.9129137,8.10081193 92.7699365,8.43909633 92.4835119,8.72450917 C92.1970872,9.00945413 91.8565758,9.15169266 91.4624479,9.15169266 L74.3221192,9.15169266 L74.3221192,20.0563349 L90.3877676,20.0563349 C90.7818954,20.0563349 91.1219365,20.1990413 91.4088315,20.4839862 C91.6952562,20.7689312 91.8387037,21.1076835 91.8387037,21.4993073 L91.8387037,25.2948303 C91.8387037,25.686922 91.6952562,26.0252064 91.4088315,26.3106193 C91.1219365,26.5955642 90.7818954,26.7382706 90.3877676,26.7382706 L74.3221192,26.7382706 L74.3221192,38.9787385 C74.3221192,39.3708303 74.1786717,39.7095826 73.892247,39.9945275 C73.6058224,40.2799404 73.265311,40.4221789 72.8716534,40.4221789 L68.5193155,40.4221789 C68.1251877,40.4221789 67.7846763,40.2799404 67.4982516,39.9945275 C67.2118269,39.7095826 67.0683795,39.3708303 67.0683795,38.9787385 L67.0683795,3.91319725 C67.0683795,3.52157339 67.2118269,3.1828211 67.4982516,2.89787615 C67.7846763,2.61293119 68.1251877,2.47022477 68.5193155,2.47022477 L91.4624479,2.47022477 Z" id="Fill-8" fill="#404F5E"></path>
            <path d="M97.8833927,14.0694963 C97.8833927,13.6774046 98.0268402,13.3391202 98.3132648,13.0541752 C98.5996895,12.7687624 98.9402009,12.6265239 99.3338584,12.6265239 L103.417644,12.6265239 C103.811772,12.6265239 104.151813,12.7687624 104.438708,13.0541752 C104.725132,13.3391202 104.86858,13.6774046 104.86858,14.0694963 L104.86858,27.6467257 C104.86858,29.7849826 105.32526,31.4955881 106.238621,32.7780743 C107.151982,34.0614963 108.647598,34.7025055 110.725,34.7025055 C112.62368,34.7025055 114.074146,34.0614963 115.077338,32.7780743 C116.080059,31.4955881 116.58189,29.7849826 116.58189,27.6467257 L116.58189,14.0694963 C116.58189,13.6774046 116.725338,13.3391202 117.011763,13.0541752 C117.298187,12.7687624 117.638228,12.6265239 118.032356,12.6265239 L122.116142,12.6265239 C122.510269,12.6265239 122.850311,12.7687624 123.137205,13.0541752 C123.42363,13.3391202 123.566607,13.6774046 123.566607,14.0694963 L123.566607,38.9790193 C123.566607,39.371111 123.42363,39.7093954 123.137205,39.9948083 C122.850311,40.2797532 122.510269,40.4224596 122.116142,40.4224596 L118.032356,40.4224596 C117.638228,40.4224596 117.298187,40.2797532 117.011763,39.9948083 C116.725338,39.7093954 116.58189,39.371111 116.58189,38.9790193 L116.58189,37.7494046 C115.75789,38.5691477 114.736826,39.3084138 113.519169,39.9681385 C112.301041,40.6269275 110.832703,40.9567899 109.113215,40.9567899 C106.92811,40.9567899 105.11926,40.6180376 103.686196,39.9410009 C102.253603,39.2639642 101.106963,38.355322 100.247219,37.2150743 C99.3879452,36.0748266 98.7788813,34.746955 98.4204977,33.2328633 C98.0625845,31.7183037 97.8833927,30.1237349 97.8833927,28.448689 L97.8833927,14.0694963 Z" id="Fill-10" fill="#404F5E"></path>
            <path d="M136.397726,38.9789257 C136.397726,39.3710174 136.254749,39.7097697 135.967854,39.9947147 C135.68143,40.2796596 135.340918,40.4223661 134.947261,40.4223661 L130.863475,40.4223661 C130.469818,40.4223661 130.129306,40.2796596 129.842411,39.9947147 C129.555987,39.7097697 129.412539,39.3710174 129.412539,38.9789257 L129.412539,3.9133844 C129.412539,3.52129266 129.555987,3.18300826 129.842411,2.89759541 C130.129306,2.61265046 130.469818,2.46994404 130.863475,2.46994404 L134.947261,2.46994404 C135.340918,2.46994404 135.68143,2.61265046 135.967854,2.89759541 C136.254749,3.18300826 136.397726,3.52129266 136.397726,3.9133844 L136.397726,38.9789257 Z" id="Fill-12" fill="#404F5E"></path>
            <path d="M149.338618,38.9789257 C149.338618,39.3710174 149.195171,39.7097697 148.908746,39.9947147 C148.622321,40.2796596 148.28181,40.4223661 147.888153,40.4223661 L143.804367,40.4223661 C143.410239,40.4223661 143.069728,40.2796596 142.783303,39.9947147 C142.496879,39.7097697 142.353431,39.3710174 142.353431,38.9789257 L142.353431,3.9133844 C142.353431,3.52129266 142.496879,3.18300826 142.783303,2.89759541 C143.069728,2.61265046 143.410239,2.46994404 143.804367,2.46994404 L147.888153,2.46994404 C148.28181,2.46994404 148.622321,2.61265046 148.908746,2.89759541 C149.195171,3.18300826 149.338618,3.52129266 149.338618,3.9133844 L149.338618,38.9789257 Z" id="Fill-14" fill="#404F5E"></path>
            <path d="M187.461129,24.6534468 C187.38964,25.1877771 187.353426,25.8114743 187.353426,26.5245385 C187.353426,27.236667 187.38964,27.8603642 187.461129,28.3951624 C187.568832,29.4998505 187.819512,30.4440523 188.21317,31.2282358 C188.607298,32.0124193 189.099722,32.6450064 189.690914,33.1255294 C190.281636,33.6069881 190.93585,33.9630523 191.652147,34.1951257 C192.368444,34.4267312 193.102613,34.5423 193.855124,34.5423 C194.750613,34.5423 195.503124,34.4711807 196.111718,34.3284743 C196.720311,34.1862358 197.240015,33.9813 197.669887,33.713667 C198.099759,33.4465018 198.466608,33.1437771 198.771375,32.8050248 C199.075672,32.4667404 199.371503,32.0835385 199.657928,31.6558872 C199.872864,31.3349147 200.123544,31.0144101 200.409969,30.6939055 C200.696864,30.372933 201.036905,30.2124468 201.431033,30.2124468 L205.514818,30.2124468 C205.908946,30.2124468 206.257923,30.3551532 206.56222,30.6400982 C206.866987,30.9250431 207.001499,31.2637954 206.965754,31.6558872 C206.93001,32.4040431 206.660987,33.3126853 206.159626,34.3818138 C205.657795,35.4509422 204.878946,36.4756211 203.822138,37.4553826 C202.76533,38.4356119 201.413161,39.264245 199.765161,39.9412817 C198.117631,40.6183183 196.147462,40.9566028 193.855124,40.9566028 C191.884485,40.9566028 190.11185,40.6272083 188.535339,39.9679514 C186.959768,39.3086945 185.589727,38.4178321 184.425216,37.2953642 C183.260704,36.1728963 182.347343,34.8716945 181.685133,33.3931624 C181.022453,31.9141624 180.618919,30.3551532 180.475471,28.7161349 C180.403983,28.0746578 180.368238,27.3615936 180.368238,26.577878 C180.368238,25.7936945 180.403983,25.0628505 180.475471,24.3862817 C180.583174,22.7467954 180.977302,21.1788963 181.657855,19.6821165 C182.338407,18.1853367 183.252238,16.8757128 184.397937,15.753245 C185.544576,14.6307771 186.914617,13.7399147 188.509001,13.0806578 C190.102444,12.4214009 191.884485,12.0915385 193.855124,12.0915385 C196.147462,12.0915385 198.117631,12.4302908 199.765161,13.1073275 C201.413161,13.7843642 202.76533,14.6129972 203.822138,15.5927587 C204.878946,16.5729881 205.657795,17.5971991 206.159626,18.6667954 C206.660987,19.735456 206.93001,20.6445661 206.965754,21.392722 C207.001499,21.7848138 206.866987,22.1230982 206.56222,22.408511 C206.257923,22.693456 205.908946,22.8361624 205.514818,22.8361624 L201.431033,22.8361624 C201.036905,22.8361624 200.696864,22.6756761 200.409969,22.3547037 C200.123544,22.0341991 199.872864,21.7132266 199.657928,21.392722 C199.371503,20.9650706 199.075672,20.5818688 198.771375,20.2435844 C198.466608,19.9048321 198.099759,19.6021073 197.669887,19.3344743 C197.240015,19.0677771 196.720311,18.8628413 196.111718,18.7201349 C195.503124,18.5774284 194.750613,18.5063092 193.855124,18.5063092 C193.102613,18.5063092 192.368444,18.621878 191.652147,18.8534835 C190.93585,19.0855569 190.281636,19.4416211 189.690914,19.9226119 C189.099722,20.4036028 188.607298,21.0366578 188.21317,21.8203734 C187.819512,22.6045569 187.568832,23.5487587 187.461129,24.6534468" id="Fill-16" fill="#404F5E"></path>
            <path d="M224.44001,19.0408266 C222.29112,19.0408266 220.741887,19.5129275 219.792311,20.4571294 C218.843206,21.4013312 218.368654,22.9430284 218.368654,25.0808174 L218.368654,38.9790193 C218.368654,39.371111 218.225206,39.7093954 217.938782,39.9948083 C217.651887,40.2797532 217.311846,40.4224596 216.917718,40.4224596 L212.833932,40.4224596 C212.439805,40.4224596 212.100234,40.2797532 211.813339,39.9948083 C211.526914,39.7093954 211.383467,39.371111 211.383467,38.9790193 L211.383467,14.0694963 C211.383467,13.6774046 211.526914,13.3391202 211.813339,13.0541752 C212.100234,12.7687624 212.439805,12.6265239 212.833932,12.6265239 L216.917718,12.6265239 C217.311846,12.6265239 217.651887,12.7687624 217.938782,13.0541752 C218.225206,13.3391202 218.368654,13.6774046 218.368654,14.0694963 L218.368654,15.299111 C219.299887,14.4438083 220.294142,13.7845514 221.350951,13.3213404 C222.407289,12.8581294 223.795672,12.6265239 225.51469,12.6265239 L225.908818,12.6265239 C226.302946,12.6265239 226.643458,12.7687624 226.929882,13.0541752 C227.216307,13.3391202 227.359284,13.6774046 227.359284,14.0694963 L227.359284,17.5973862 C227.359284,17.989478 227.216307,18.3282303 226.929882,18.6131752 C226.643458,18.8981202 226.302946,19.0408266 225.908818,19.0408266 L224.44001,19.0408266 Z" id="Fill-18" fill="#404F5E"></path>
            <path d="M239.2064,38.9789257 C239.2064,39.3710174 239.062953,39.7097697 238.776528,39.9947147 C238.490104,40.2796596 238.149592,40.4223661 237.755464,40.4223661 L233.671679,40.4223661 C233.278021,40.4223661 232.93751,40.2796596 232.651085,39.9947147 C232.36419,39.7097697 232.220743,39.3710174 232.220743,38.9789257 L232.220743,14.0694028 C232.220743,13.677311 232.36419,13.3390266 232.651085,13.0540817 C232.93751,12.7686688 233.278021,12.6264303 233.671679,12.6264303 L237.755464,12.6264303 C238.149592,12.6264303 238.490104,12.7686688 238.776528,13.0540817 C239.062953,13.3390266 239.2064,13.677311 239.2064,14.0694028 L239.2064,38.9789257 Z M238.024017,2.46994404 C238.418145,2.46994404 238.758656,2.61265046 239.045081,2.89759541 C239.331976,3.18300826 239.474483,3.52129266 239.474483,3.9133844 L239.474483,8.08275138 C239.474483,8.47484312 239.331976,8.81312752 239.045081,9.09854037 C238.758656,9.38348532 238.418145,9.52619174 238.024017,9.52619174 L233.403126,9.52619174 C233.008999,9.52619174 232.668958,9.38348532 232.382063,9.09854037 C232.095638,8.81312752 231.95219,8.47484312 231.95219,8.08275138 L231.95219,3.9133844 C231.95219,3.52129266 232.095638,3.18300826 232.382063,2.89759541 C232.668958,2.61265046 233.008999,2.46994404 233.403126,2.46994404 L238.024017,2.46994404 Z" id="Fill-20" fill="#404F5E"></path>
            <path d="M265.192501,28.020944 C265.300204,27.0229349 265.300204,26.0253936 265.192501,25.0273844 C264.977565,22.7113294 264.261268,21.0451734 263.04314,20.0293844 C261.825483,19.0140633 260.338802,18.5064028 258.583569,18.5064028 C256.828337,18.5064028 255.350592,19.0229532 254.150337,20.056522 C252.950551,21.0900908 252.261063,22.5686229 252.081871,24.4930541 C252.010382,25.0273844 251.974638,25.7044211 251.974638,26.5241642 C251.974638,27.3439073 252.010382,28.020944 252.081871,28.5557422 C252.261063,30.4085862 252.950551,31.8698064 254.150337,32.938467 C255.350592,34.0075954 256.828337,34.5423936 258.583569,34.5423936 C260.338802,34.5423936 261.825483,34.034733 263.04314,33.018944 C264.261268,32.003155 264.977565,30.337467 265.192501,28.020944 M260.195355,40.9566963 C259.08493,40.9566963 258.090674,40.8495495 257.213058,40.6357239 C256.335912,40.4223661 255.565528,40.1552009 254.902848,39.8342284 C254.240168,39.513256 253.676254,39.1660817 253.210168,38.7917697 C252.744551,38.4179257 252.368295,38.0702835 252.081871,37.749311 L252.081871,49.134944 C252.081871,49.5270358 251.938423,49.8657881 251.651999,50.150733 C251.365574,50.435678 251.025063,50.5783844 250.631405,50.5783844 L246.54762,50.5783844 C246.153962,50.5783844 245.813451,50.435678 245.527026,50.150733 C245.240131,49.8657881 245.096684,49.5270358 245.096684,49.134944 L245.096684,14.0694028 C245.096684,13.677311 245.240131,13.3390266 245.527026,13.0540817 C245.813451,12.7686688 246.153962,12.6264303 246.54762,12.6264303 L250.631405,12.6264303 C251.025063,12.6264303 251.365574,12.7686688 251.651999,13.0540817 C251.938423,13.3390266 252.081871,13.677311 252.081871,14.0694028 L252.081871,15.2990174 C252.368295,14.9785128 252.744551,14.6308706 253.210168,14.2565587 C253.676254,13.8822468 254.240168,13.5350725 254.902848,13.2141 C255.565528,12.8935954 256.335912,12.6264303 257.213058,12.4126046 C258.090674,12.1987789 259.08493,12.0916321 260.195355,12.0916321 C261.986802,12.0916321 263.607524,12.4392743 265.057989,13.1340908 C266.508926,13.8289073 267.744926,14.7553294 268.765519,15.9138248 C269.786583,17.0718523 270.592241,18.4081459 271.183432,19.9227055 C271.774624,21.4372651 272.105729,23.0140541 272.177688,24.6535404 C272.213432,25.1878706 272.231305,25.8115679 272.231305,26.5241642 C272.231305,27.2367606 272.213432,27.8604578 272.177688,28.395256 C272.105729,30.0342743 271.774624,31.6110633 271.183432,33.1256229 C270.592241,34.6401826 269.786583,35.9764761 268.765519,37.1349716 C267.744926,38.2929991 266.508926,39.2194211 265.057989,39.9142376 C263.607524,40.6090541 261.986802,40.9566963 260.195355,40.9566963" id="Fill-22" fill="#404F5E"></path>
            <path d="M276.954631,12.5031413 L276.954631,3.91315046 C276.954631,3.52152661 277.098078,3.18277431 277.384503,2.89782936 C277.670457,2.61241651 278.010968,2.47017798 278.405096,2.47017798 L282.488882,2.47017798 C282.882539,2.47017798 283.223051,2.61241651 283.509946,2.89782936 C283.79637,3.18277431 283.939818,3.52152661 283.939818,3.91315046 L283.939818,12.6261963 L290.870918,12.6261963 C291.265046,12.6261963 291.605087,12.7689028 291.891982,13.0538477 C292.178407,13.3392606 292.321854,13.677545 292.321854,14.0696367 L292.321854,17.5975266 C292.321854,17.9896183 292.178407,18.3279028 291.891982,18.6133156 C291.605087,18.8982606 291.265046,19.040967 290.870918,19.040967 L283.939818,19.040967 L283.939818,30.3727927 C283.939818,31.4774807 284.234708,32.3594532 284.8259,33.0187101 C285.417092,33.677967 286.51858,34.0078294 288.130836,34.0078294 L291.408023,34.0078294 C291.802151,34.0078294 292.142663,34.1505358 292.429087,34.4354807 C292.715982,34.7204257 292.858959,35.059178 292.858959,35.4508018 L292.858959,38.9786917 C292.858959,39.3707835 292.715982,39.7095358 292.429087,39.9944807 C292.142663,40.2798936 291.802151,40.4221321 291.408023,40.4221321 L287.431941,40.4221321 C284.064923,40.4221321 281.476754,39.6117468 279.667905,37.9900404 C277.859055,36.3688018 276.954631,33.8829028 276.954631,30.5332789 L276.954631,12.5031413 Z" id="Fill-24" fill="#404F5E"></path>
            <path d="M302.302272,12.7733945 C302.363884,12.7733945 302.41656,12.7949174 302.46124,12.839367 C302.505921,12.8838165 302.528496,12.9366881 302.528496,12.9975138 L302.528496,13.2969633 C302.528496,13.3582569 302.505921,13.4106606 302.46124,13.4551101 C302.41656,13.4995596 302.363884,13.5215505 302.302272,13.5215505 L300.73893,13.5215505 L300.73893,18.3702936 C300.73893,18.4315872 300.717295,18.4844587 300.672615,18.5279725 C300.627934,18.5733578 300.574788,18.5948807 300.513647,18.5948807 L300.170784,18.5948807 C300.109172,18.5948807 300.056496,18.5733578 300.011816,18.5279725 C299.967135,18.4844587 299.94503,18.4315872 299.94503,18.3702936 L299.94503,13.5215505 L298.381688,13.5215505 C298.320076,13.5215505 298.2674,13.4995596 298.22272,13.4551101 C298.178039,13.4106606 298.156405,13.3582569 298.156405,13.2969633 L298.156405,12.9975138 C298.156405,12.9366881 298.178039,12.8838165 298.22272,12.839367 C298.2674,12.7949174 298.320076,12.7733945 298.381688,12.7733945 L302.302272,12.7733945 Z" id="Fill-26" fill="#404F5E"></path>
            <path d="M306.039103,16.2908037 L307.728021,13.0394367 C307.761413,12.9725284 307.807505,12.9117028 307.866295,12.8564917 C307.924144,12.8012807 308.001276,12.7732073 308.096281,12.7732073 L308.413276,12.7732073 C308.474888,12.7732073 308.527564,12.7951982 308.572244,12.8396477 C308.616454,12.8840972 308.6395,12.9365009 308.6395,12.9977945 L308.6395,18.3705743 C308.6395,18.4318679 308.616454,18.4842716 308.572244,18.5282532 C308.527564,18.5731706 308.474888,18.5946936 308.413276,18.5946936 L308.070884,18.5946936 C308.009272,18.5946936 307.956596,18.5731706 307.911916,18.5282532 C307.867705,18.4842716 307.8456,18.4318679 307.8456,18.3705743 L307.8456,14.4286018 L306.540934,16.9318128 C306.496724,17.0146294 306.448751,17.0801339 306.399368,17.1269229 C306.348573,17.1737119 306.282258,17.1975743 306.198071,17.1975743 L305.880605,17.1975743 C305.796888,17.1975743 305.730573,17.1737119 305.679779,17.1269229 C305.629454,17.0801339 305.582422,17.0146294 305.538212,16.9318128 L304.233546,14.4286018 L304.233546,18.3705743 C304.233546,18.4318679 304.211441,18.4842716 304.167231,18.5282532 C304.12255,18.5731706 304.069404,18.5946936 304.008263,18.5946936 L303.664929,18.5946936 C303.603317,18.5946936 303.550642,18.5731706 303.505961,18.5282532 C303.461751,18.4842716 303.439646,18.4318679 303.439646,18.3705743 L303.439646,12.9977945 C303.439646,12.9365009 303.461751,12.8840972 303.505961,12.8396477 C303.550642,12.7951982 303.603317,12.7732073 303.664929,12.7732073 L303.982865,12.7732073 C304.07787,12.7732073 304.154062,12.8012807 304.212852,12.8564917 C304.270701,12.9117028 304.317733,12.9725284 304.350185,13.0394367 L306.039103,16.2908037 Z" id="Fill-28" fill="#404F5E"></path>
            <path d="M170.235249,32.4834908 C170.235249,32.0904633 170.109203,31.768555 169.858053,31.5182339 C169.606432,31.2683807 169.166212,31.0353716 168.537865,30.8206101 C167.908578,30.6063165 167.072349,30.3920229 166.030591,30.1772615 C164.987893,29.9625 163.658769,29.6770872 162.04134,29.3191514 C160.459185,28.9621514 159.147934,28.5148486 158.105705,27.9786468 C157.063007,27.4419771 156.227249,26.8168761 155.598902,26.1010046 C154.970084,25.3865367 154.529395,24.5728761 154.278244,23.6609587 C154.026623,22.7495092 153.901048,21.7571147 153.901048,20.684711 C153.901048,19.6118394 154.151728,18.5576835 154.655441,17.5203716 C155.158212,16.4835275 155.885797,15.5627202 156.839135,14.7584174 C157.791062,13.9536468 158.949929,13.3018761 160.316208,12.8007661 C161.681546,12.3005917 163.245358,12.0498028 165.006235,12.0498028 C166.766642,12.0498028 168.33939,12.2467844 169.723541,12.6398119 C171.106751,13.0337752 172.283961,13.5517294 173.254701,14.195078 C174.22497,14.8388945 174.979833,15.5809679 175.51882,16.4208303 C176.057806,17.2611606 176.362573,18.1103807 176.435473,18.9684908 C176.470747,19.3624541 176.335765,19.7016743 176.030527,19.9870872 C175.72529,20.2739037 175.374902,20.4161422 174.979833,20.4161422 L170.828792,20.4161422 C170.289336,20.4161422 169.885331,20.3183532 169.615368,20.1213716 C169.345874,19.9253257 169.049573,19.7016743 168.725993,19.4508853 C168.402884,19.2010321 167.9716,18.9773807 167.432144,18.780867 C166.893628,18.5843532 166.084678,18.4856284 165.006235,18.4856284 C163.928263,18.4856284 162.975395,18.6465826 162.149043,18.9684908 C161.321751,19.2899312 160.909281,19.8626284 160.909281,20.684711 C160.909281,21.0782064 161.007578,21.4085367 161.205582,21.6766376 C161.403116,21.9447385 161.779842,22.1861697 162.337642,22.4009312 C162.89497,22.6152248 163.666765,22.8388761 164.656317,23.0709495 C165.643989,23.3039587 166.928432,23.5804817 168.510587,23.9023899 C171.70876,24.5817661 173.963943,25.6452798 175.276135,27.0933991 C176.587856,28.5415183 177.243952,30.3382156 177.243952,32.4834908 C177.243952,33.5558945 176.974459,34.6016284 176.435473,35.6211606 C175.896016,36.6397569 175.114345,37.5516743 174.089989,38.3559771 C173.066103,39.1607477 171.807527,39.8040963 170.316614,40.2869587 C168.82476,40.7693532 167.144308,41.0107844 165.276199,41.0107844 C163.370463,41.0107844 161.690482,40.787133 160.234842,40.3402982 C158.779674,39.8934633 157.547906,39.3132798 156.542833,38.5974083 C155.535879,37.8824725 154.763614,37.0781697 154.224158,36.1840321 C153.685642,35.2908303 153.397336,34.4140046 153.361591,33.5558945 C153.325377,33.1633349 153.460358,32.8236468 153.765596,32.5368303 C154.071304,32.2514174 154.421692,32.1077752 154.817231,32.1077752 L158.968742,32.1077752 C159.507258,32.1077752 159.911733,32.2336376 160.181226,32.4834908 C160.450719,32.7342798 160.755957,33.0196927 161.097879,33.341133 C161.439331,33.6630413 161.914824,33.9498578 162.52624,34.199711 C163.137185,34.4505 164.053368,34.5749587 165.276199,34.5749587 C165.815185,34.5749587 166.371573,34.539867 166.947244,34.4678119 C167.521505,34.3966927 168.052025,34.2801881 168.537865,34.1192339 C169.022765,33.9582798 169.426769,33.7435183 169.750349,33.4758853 C170.073459,33.2073165 170.235249,32.8774541 170.235249,32.4834908" id="Fill-31" fill="#404F5E"></path>
        </g>
    </g>
</svg>