<?xml version="1.0" encoding="UTF-8"?>
<svg width="10px" height="10px" viewBox="0 0 10 10" version="1.1" xmlns="http://www.w3.org/2000/svg" xmlns:xlink="http://www.w3.org/1999/xlink">
    <!-- Generator: Sketch 48.2 (47327) - http://www.bohemiancoding.com/sketch -->
    <title>Error Icon Copy</title>
    <desc>Created with Sketch.</desc>
    <defs></defs>
    <g id="06" stroke="none" stroke-width="1" fill="none" fill-rule="evenodd" transform="translate(-1115.000000, -935.000000)">
        <path d="M1122.88488,944.631848 L1120.00312,941.751529 L1117.11512,944.63684 C1116.63191,945.121053 1115.84655,945.121053 1115.36334,944.63684 C1114.87889,944.153875 1114.87889,943.370149 1115.36334,942.885935 L1118.25009,939.999376 L1115.36334,937.114065 C1114.87889,936.629851 1114.87889,935.846125 1115.36334,935.36316 C1115.84655,934.878947 1116.63191,934.878947 1117.11512,935.36316 L1120.00312,938.248471 L1122.88488,935.368152 C1123.36809,934.883939 1124.1522,934.883939 1124.63666,935.368152 C1125.11987,935.852365 1125.11987,936.636091 1124.63666,937.119057 L1121.7549,940.000624 L1124.63666,942.880943 C1125.12111,943.363909 1125.12111,944.148883 1124.63666,944.631848 C1124.15345,945.114813 1123.36809,945.114813 1122.88488,944.631848 Z" id="Error-Icon-Copy" fill="#EF5C6E"></path>
    </g>
</svg>